<svg width="53" height="53" viewBox="0 0 53 53" fill="none" xmlns="http://www.w3.org/2000/svg">
<path d="M35.753 4.41675H17.2472C9.20883 4.41675 4.41675 9.20883 4.41675 17.2472V35.7309C4.41675 43.7913 9.20883 48.5834 17.2472 48.5834H35.7309C43.7693 48.5834 48.5613 43.7913 48.5613 35.753V17.2472C48.5834 9.20883 43.7913 4.41675 35.753 4.41675Z" fill="url(#paint0_linear_291_285)"/>
<path d="M35.3334 24.8438H28.1563V17.6667C28.1563 16.7613 27.4055 16.0105 26.5001 16.0105C25.5947 16.0105 24.8438 16.7613 24.8438 17.6667V24.8438H17.6667C16.7613 24.8438 16.0105 25.5947 16.0105 26.5001C16.0105 27.4055 16.7613 28.1563 17.6667 28.1563H24.8438V35.3334C24.8438 36.2388 25.5947 36.9897 26.5001 36.9897C27.4055 36.9897 28.1563 36.2388 28.1563 35.3334V28.1563H35.3334C36.2388 28.1563 36.9897 27.4055 36.9897 26.5001C36.9897 25.5947 36.2388 24.8438 35.3334 24.8438Z" fill="white"/>
<defs>
<linearGradient id="paint0_linear_291_285" x1="9" y1="4.00012" x2="64" y2="70.5001" gradientUnits="userSpaceOnUse">
<stop offset="0.0434683" stop-color="#FF7723"/>
<stop offset="0.986725" stop-color="#3129DB"/>
</linearGradient>
</defs>
</svg>
