<svg width="53" height="53" viewBox="0 0 53 53" fill="none" xmlns="http://www.w3.org/2000/svg">
<path d="M35.753 4.4165H17.2472C9.20883 4.4165 4.41675 9.20859 4.41675 17.2469V35.7307C4.41675 43.7911 9.20883 48.5832 17.2472 48.5832H35.7309C43.7693 48.5832 48.5613 43.7911 48.5613 35.7528V17.2469C48.5834 9.20859 43.7913 4.4165 35.753 4.4165Z" fill="url(#paint0_linear_302_299)"/>
<path d="M35.3334 24.8436H28.1563V17.6665C28.1563 16.7611 27.4055 16.0103 26.5001 16.0103C25.5947 16.0103 24.8438 16.7611 24.8438 17.6665V24.8436H17.6667C16.7613 24.8436 16.0105 25.5944 16.0105 26.4998C16.0105 27.4053 16.7613 28.1561 17.6667 28.1561H24.8438V35.3332C24.8438 36.2386 25.5947 36.9894 26.5001 36.9894C27.4055 36.9894 28.1563 36.2386 28.1563 35.3332V28.1561H35.3334C36.2388 28.1561 36.9897 27.4053 36.9897 26.4998C36.9897 25.5944 36.2388 24.8436 35.3334 24.8436Z" fill="white"/>
<defs>
<linearGradient id="paint0_linear_302_299" x1="9" y1="3.99988" x2="64" y2="70.4999" gradientUnits="userSpaceOnUse">
<stop offset="0.0434683" stop-color="#308ECC"/>
<stop offset="0.986725" stop-color="#3129DB"/>
</linearGradient>
</defs>
</svg>
