<svg width="53" height="53" viewBox="0 0 53 53" fill="none" xmlns="http://www.w3.org/2000/svg">
<path d="M35.753 4.41663H17.2472C9.20883 4.41663 4.41675 9.20871 4.41675 17.247V35.7308C4.41675 43.7912 9.20883 48.5833 17.2472 48.5833H35.7309C43.7693 48.5833 48.5613 43.7912 48.5613 35.7529V17.247C48.5834 9.20871 43.7913 4.41663 35.753 4.41663Z" fill="url(#paint0_linear_225_17)"/>
<path d="M35.3334 24.8437H28.1563V17.6666C28.1563 16.7612 27.4055 16.0104 26.5001 16.0104C25.5947 16.0104 24.8438 16.7612 24.8438 17.6666V24.8437H17.6667C16.7613 24.8437 16.0105 25.5945 16.0105 26.5C16.0105 27.4054 16.7613 28.1562 17.6667 28.1562H24.8438V35.3333C24.8438 36.2387 25.5947 36.9895 26.5001 36.9895C27.4055 36.9895 28.1563 36.2387 28.1563 35.3333V28.1562H35.3334C36.2388 28.1562 36.9897 27.4054 36.9897 26.5C36.9897 25.5945 36.2388 24.8437 35.3334 24.8437Z" fill="white"/>
<defs>
<linearGradient id="paint0_linear_225_17" x1="9" y1="4" x2="64" y2="70.5" gradientUnits="userSpaceOnUse">
<stop offset="0.0434683" stop-color="#AC3483"/>
<stop offset="0.986725" stop-color="#3129DB"/>
</linearGradient>
</defs>
</svg>
