<svg width="53" height="53" viewBox="0 0 53 53" fill="none" xmlns="http://www.w3.org/2000/svg">
<path d="M47.8547 15.3479C46.4414 10.5558 42.4443 6.55876 37.6522 5.14543C34.0084 4.08543 31.4909 4.17376 29.7464 5.47668C27.6484 7.0446 27.4055 9.87126 27.4055 11.8808V17.3796C27.4055 22.8121 29.8788 25.5725 34.7372 25.5725H41.0751C43.0626 25.5725 45.9114 25.3296 47.4793 23.2317C48.8264 21.5092 48.9368 18.9917 47.8547 15.3479Z" fill="#6F6F6F"/>
<path d="M41.7597 29.5056C41.1855 28.8431 40.3463 28.4676 39.4851 28.4676H31.5792C27.6926 28.4676 24.5347 25.3097 24.5347 21.4231V13.5172C24.5347 12.656 24.1592 11.8168 23.4967 11.2426C22.8563 10.6685 21.973 10.4035 21.1338 10.5139C15.9442 11.1764 11.1742 14.0251 8.0605 18.3093C4.92466 22.6156 3.77633 27.8714 4.77008 33.1272C6.2055 40.7239 12.2784 46.7968 19.8972 48.2322C21.1117 48.4751 22.3263 48.5856 23.5409 48.5856C27.538 48.5856 31.4026 47.3489 34.693 44.9418C38.9772 41.8281 41.8259 37.0581 42.4884 31.8685C42.5988 31.0072 42.3338 30.146 41.7597 29.5056Z" fill="url(#paint0_linear_39_384)"/>
<defs>
<linearGradient id="paint0_linear_39_384" x1="23.4677" y1="10.4893" x2="62.5001" y2="58.5" gradientUnits="userSpaceOnUse">
<stop stop-color="#AC3483"/>
<stop offset="1" stop-color="#3129DB"/>
</linearGradient>
</defs>
</svg>
