<svg width="43" height="45" viewBox="0 0 43 45" fill="none" xmlns="http://www.w3.org/2000/svg">
<path d="M37.7755 6.80084L24.8346 1.03709C22.9355 0.197923 20.0646 0.197923 18.1655 1.03709L5.22463 6.80084C1.95629 8.25834 1.47046 10.2458 1.47046 11.3058C1.47046 12.3658 1.95629 14.3533 5.22463 15.8108L18.1655 21.5746C19.115 21.9942 20.3075 22.215 21.5 22.215C22.6925 22.215 23.885 21.9942 24.8346 21.5746L37.7755 15.8108C41.0438 14.3533 41.5296 12.3658 41.5296 11.3058C41.5296 10.2458 41.0659 8.25834 37.7755 6.80084Z" fill="url(#paint0_linear_676_379)"/>
<path opacity="0.4" d="M21.5 33.6301C20.6608 33.6301 19.8216 33.4534 19.0487 33.1222L4.16454 26.4972C1.88996 25.4813 0.123291 22.7651 0.123291 20.2697C0.123291 19.3642 0.852041 18.6355 1.75746 18.6355C2.66287 18.6355 3.39162 19.3642 3.39162 20.2697C3.39162 21.4622 4.38537 23.008 5.48954 23.4938L20.3737 30.1188C21.0804 30.428 21.8975 30.428 22.6041 30.1188L37.4883 23.4938C38.5925 23.008 39.5862 21.4842 39.5862 20.2697C39.5862 19.3642 40.315 18.6355 41.2204 18.6355C42.1258 18.6355 42.8545 19.3642 42.8545 20.2697C42.8545 22.743 41.0879 25.4813 38.8133 26.4972L23.9291 33.1222C23.1783 33.4534 22.3391 33.6301 21.5 33.6301Z" fill="white"/>
<path opacity="0.4" d="M21.5 44.5834C20.6608 44.5834 19.8216 44.4068 19.0487 44.0755L4.16454 37.4505C2.96085 36.9145 1.93843 36.0409 1.22115 34.9356C0.503873 33.8303 0.12252 32.5407 0.123292 31.223C0.123292 30.3176 0.852042 29.5889 1.75746 29.5889C2.66288 29.5889 3.39163 30.3176 3.39163 31.223C3.39163 32.6143 4.20871 33.873 5.48954 34.4472L20.3737 41.0722C21.0804 41.3814 21.8975 41.3814 22.6041 41.0722L37.4883 34.4472C38.747 33.8951 39.5862 32.6143 39.5862 31.223C39.5862 30.3176 40.315 29.5889 41.2204 29.5889C42.1258 29.5889 42.8545 30.3176 42.8545 31.223C42.8545 33.9172 41.2645 36.3464 38.8133 37.4505L23.9291 44.0755C23.1783 44.4068 22.3391 44.5834 21.5 44.5834Z" fill="white"/>
<defs>
<linearGradient id="paint0_linear_676_379" x1="15.0001" y1="-0.000124494" x2="65.0001" y2="79.4999" gradientUnits="userSpaceOnUse">
<stop stop-color="#308ECC"/>
<stop offset="0.502744" stop-color="#3129DB"/>
</linearGradient>
</defs>
</svg>
