<svg width="43" height="45" viewBox="0 0 43 45" fill="none" xmlns="http://www.w3.org/2000/svg">
<path d="M37.7752 6.80084L24.8344 1.03709C22.9352 0.197923 20.0644 0.197923 18.1652 1.03709L5.22438 6.80084C1.95605 8.25834 1.47021 10.2458 1.47021 11.3058C1.47021 12.3658 1.95605 14.3533 5.22438 15.8108L18.1652 21.5746C19.1148 21.9942 20.3073 22.215 21.4998 22.215C22.6923 22.215 23.8848 21.9942 24.8344 21.5746L37.7752 15.8108C41.0435 14.3533 41.5294 12.3658 41.5294 11.3058C41.5294 10.2458 41.0656 8.25834 37.7752 6.80084Z" fill="url(#paint0_linear_676_369)"/>
<path opacity="0.4" d="M21.5002 33.6301C20.661 33.6301 19.8219 33.4534 19.049 33.1222L4.16479 26.4972C1.8902 25.4813 0.123535 22.7651 0.123535 20.2697C0.123535 19.3642 0.852285 18.6355 1.7577 18.6355C2.66312 18.6355 3.39187 19.3642 3.39187 20.2697C3.39187 21.4622 4.38562 23.008 5.48979 23.4938L20.374 30.1188C21.0806 30.428 21.8977 30.428 22.6044 30.1188L37.4885 23.4938C38.5927 23.008 39.5865 21.4842 39.5865 20.2697C39.5865 19.3642 40.3152 18.6355 41.2206 18.6355C42.126 18.6355 42.8548 19.3642 42.8548 20.2697C42.8548 22.743 41.0881 25.4813 38.8135 26.4972L23.9294 33.1222C23.1785 33.4534 22.3394 33.6301 21.5002 33.6301Z" fill="white"/>
<path opacity="0.4" d="M21.5002 44.5834C20.661 44.5834 19.8219 44.4068 19.049 44.0755L4.16479 37.4505C2.96109 36.9145 1.93867 36.0409 1.2214 34.9356C0.504118 33.8303 0.122764 32.5407 0.123536 31.223C0.123536 30.3176 0.852286 29.5889 1.7577 29.5889C2.66312 29.5889 3.39187 30.3176 3.39187 31.223C3.39187 32.6143 4.20895 33.873 5.48979 34.4472L20.374 41.0722C21.0806 41.3814 21.8977 41.3814 22.6044 41.0722L37.4885 34.4472C38.7473 33.8951 39.5865 32.6143 39.5865 31.223C39.5865 30.3176 40.3152 29.5889 41.2206 29.5889C42.126 29.5889 42.8548 30.3176 42.8548 31.223C42.8548 33.9172 41.2648 36.3464 38.8135 37.4505L23.9294 44.0755C23.1785 44.4068 22.3394 44.5834 21.5002 44.5834Z" fill="white"/>
<defs>
<linearGradient id="paint0_linear_676_369" x1="14.9998" y1="-0.000124494" x2="64.9998" y2="79.4999" gradientUnits="userSpaceOnUse">
<stop stop-color="#16A085"/>
<stop offset="1" stop-color="#3129DB"/>
</linearGradient>
</defs>
</svg>
