<svg width="53" height="53" viewBox="0 0 53 53" fill="none" xmlns="http://www.w3.org/2000/svg">
<path d="M42.7754 10.801L29.8346 5.03721C27.9354 4.19805 25.0646 4.19805 23.1654 5.03721L10.2246 10.801C6.95623 12.2585 6.4704 14.246 6.4704 15.306C6.4704 16.366 6.95623 18.3535 10.2246 19.811L23.1654 25.5747C24.115 25.9943 25.3075 26.2151 26.5 26.2151C27.6925 26.2151 28.885 25.9943 29.8346 25.5747L42.7754 19.811C46.0437 18.3535 46.5296 16.366 46.5296 15.306C46.5296 14.246 46.0658 12.2585 42.7754 10.801Z" fill="url(#paint0_linear_225_94)"/>
<path opacity="0.4" d="M26.5 37.63C25.6609 37.63 24.8217 37.4533 24.0488 37.122L9.1646 30.497C6.89002 29.4812 5.12335 26.765 5.12335 24.2695C5.12335 23.3641 5.8521 22.6354 6.75752 22.6354C7.66294 22.6354 8.39169 23.3641 8.39169 24.2695C8.39169 25.462 9.38544 27.0079 10.4896 27.4937L25.3738 34.1187C26.0804 34.4279 26.8975 34.4279 27.6042 34.1187L42.4883 27.4937C43.5925 27.0079 44.5863 25.4841 44.5863 24.2695C44.5863 23.3641 45.315 22.6354 46.2204 22.6354C47.1259 22.6354 47.8546 23.3641 47.8546 24.2695C47.8546 26.7429 46.0879 29.4812 43.8134 30.497L28.9292 37.122C28.1784 37.4533 27.3392 37.63 26.5 37.63Z" fill="white"/>
<path opacity="0.4" d="M26.5 48.5833C25.6609 48.5833 24.8217 48.4067 24.0488 48.0754L9.1646 41.4504C7.96091 40.9144 6.93849 40.0408 6.22121 38.9355C5.50393 37.8302 5.12258 36.5406 5.12335 35.2229C5.12335 34.3175 5.8521 33.5887 6.75752 33.5887C7.66294 33.5887 8.39169 34.3175 8.39169 35.2229C8.39169 36.6142 9.20877 37.8729 10.4896 38.4471L25.3738 45.0721C26.0804 45.3812 26.8975 45.3812 27.6042 45.0721L42.4883 38.4471C43.7471 37.895 44.5863 36.6142 44.5863 35.2229C44.5863 34.3175 45.315 33.5887 46.2204 33.5887C47.1259 33.5887 47.8546 34.3175 47.8546 35.2229C47.8546 37.9171 46.2646 40.3462 43.8134 41.4504L28.9292 48.0754C28.1784 48.4067 27.3392 48.5833 26.5 48.5833Z" fill="white"/>
<defs>
<linearGradient id="paint0_linear_225_94" x1="20" y1="4" x2="47" y2="46" gradientUnits="userSpaceOnUse">
<stop stop-color="#AC3483"/>
<stop offset="1" stop-color="#3129DB"/>
</linearGradient>
</defs>
</svg>
