<svg width="45" height="45" viewBox="0 0 45 45" fill="none" xmlns="http://www.w3.org/2000/svg">
<path d="M15.7449 11.4613L15.7449 32.6613C15.7449 39.728 20.2449 44.1447 27.4449 44.1447L33.2724 44.1447C40.4949 44.1447 44.9949 39.728 44.9949 32.6613L44.9949 11.4834C44.9949 4.41673 40.4949 7.09992e-05 33.2949 7.1314e-05L27.4449 7.15697e-05C20.2449 -0.0220114 15.7449 4.39466 15.7449 11.4613Z" fill="url(#paint0_linear_232_922)"/>
<path d="M8.02733 13.493L0.489828 20.8909C0.175998 21.2026 -4.14683e-07 21.6231 -3.95529e-07 22.0613C-3.76375e-07 22.4995 0.175998 22.9201 0.489828 23.2318L8.02733 30.6297C8.67983 31.2701 9.75983 31.2701 10.4123 30.6297C11.0648 29.9893 11.0648 28.9293 10.4123 28.2888L5.75483 23.7176L29.8073 23.7176C30.7298 23.7176 31.4948 22.9668 31.4948 22.0613C31.4948 21.1559 30.7298 20.4051 29.8073 20.4051L5.75483 20.4051L10.4123 15.8338C10.7498 15.5026 10.9073 15.083 10.9073 14.6634C10.9073 14.2438 10.7498 13.8243 10.4123 13.493C9.75983 12.8305 8.70233 12.8305 8.02733 13.493Z" fill="white"/>
<defs>
<linearGradient id="paint0_linear_232_922" x1="16" y1="7" x2="53" y2="47" gradientUnits="userSpaceOnUse">
<stop offset="0.0852" stop-color="#AC3483"/>
<stop offset="1" stop-color="#3129DB"/>
</linearGradient>
</defs>
</svg>
