<svg width="345" height="254" viewBox="0 0 345 254" fill="none" xmlns="http://www.w3.org/2000/svg">
<g clip-path="url(#clip0_93_960)">
<path d="M91.6386 187.589C41.1088 187.589 0 146.392 0 95.7537C0 45.1157 41.1088 3.91895 91.6386 3.91895C106.321 3.93406 120.785 7.4765 133.819 14.2493C146.853 21.022 158.077 30.8277 166.549 42.8441L165.682 43.458C157.308 31.5804 146.214 21.8881 133.331 15.1936C120.448 8.49909 106.151 4.99755 91.6386 4.98257C41.6944 4.98257 1.06135 45.7026 1.06135 95.7537C1.06135 145.805 41.6944 186.525 91.6386 186.525C105.551 186.57 119.285 183.383 131.762 177.212C144.238 171.041 155.116 162.056 163.543 150.962L164.385 151.609C155.86 162.833 144.854 171.924 132.231 178.167C119.609 184.41 105.714 187.635 91.6386 187.589Z" fill="#E6E6E6"/>
<path d="M129.523 80.3749C128.519 80.3749 127.537 80.0763 126.701 79.517C125.866 78.9576 125.215 78.1626 124.83 77.2324C124.446 76.3022 124.345 75.2787 124.541 74.2912C124.737 73.3038 125.221 72.3967 125.932 71.6848C126.642 70.9729 127.547 70.4881 128.532 70.2917C129.518 70.0952 130.539 70.1961 131.467 70.5813C132.395 70.9666 133.189 71.6191 133.747 72.4562C134.305 73.2934 134.603 74.2776 134.603 75.2844C134.603 76.6345 134.068 77.9292 133.115 78.8839C132.163 79.8385 130.871 80.3749 129.523 80.3749Z" fill="#BFBFBF"/>
<path d="M131.295 76.3497L130.232 75.2845L131.295 74.2192C131.342 74.1727 131.379 74.1173 131.404 74.0563C131.43 73.9953 131.443 73.9299 131.443 73.8638C131.443 73.7977 131.43 73.7323 131.405 73.6712C131.38 73.6101 131.343 73.5547 131.296 73.5079C131.25 73.4612 131.194 73.4242 131.133 73.3989C131.072 73.3737 131.007 73.3607 130.941 73.3608C130.875 73.3609 130.81 73.3741 130.749 73.3995C130.688 73.425 130.633 73.4622 130.586 73.5091L129.523 74.5743L128.46 73.5091C128.366 73.4149 128.239 73.362 128.106 73.362C127.973 73.362 127.846 73.4149 127.752 73.5091C127.658 73.6033 127.605 73.731 127.605 73.8642C127.605 73.9973 127.658 74.1251 127.752 74.2192L128.815 75.2844L127.752 76.3497C127.658 76.4439 127.606 76.5715 127.606 76.7044C127.606 76.8373 127.659 76.9647 127.753 77.0587C127.847 77.1526 127.974 77.2055 128.107 77.2058C128.239 77.206 128.366 77.1535 128.46 77.0598L129.523 75.9946L130.586 77.0598C130.633 77.1064 130.688 77.1434 130.749 77.1687C130.81 77.1939 130.875 77.2069 130.941 77.2069C131.006 77.2069 131.072 77.1939 131.132 77.1687C131.193 77.1434 131.248 77.1064 131.295 77.0598C131.342 77.0132 131.378 76.9578 131.404 76.8969C131.429 76.836 131.442 76.7707 131.442 76.7047C131.442 76.6388 131.429 76.5735 131.404 76.5126C131.378 76.4517 131.342 76.3963 131.295 76.3497Z" fill="white"/>
<path d="M104.261 20.2607C109.844 20.2607 114.37 15.7252 114.37 10.1304C114.37 4.53552 109.844 0 104.261 0C98.6781 0 94.1522 4.53552 94.1522 10.1304C94.1522 15.7252 98.6781 20.2607 104.261 20.2607Z" fill="#545454"/>
<path d="M102.882 15.4028C102.707 15.4028 102.535 15.362 102.379 15.2838C102.223 15.2055 102.087 15.0919 101.982 14.9519L99.2246 11.2669C99.136 11.1485 99.0715 11.0138 99.0349 10.8705C98.9983 10.7271 98.9901 10.5779 99.011 10.4314C99.0319 10.285 99.0814 10.144 99.1566 10.0167C99.2319 9.88937 99.3314 9.77813 99.4495 9.68935C99.5677 9.60057 99.7021 9.53597 99.8451 9.49925C99.9882 9.46253 100.137 9.45441 100.283 9.47534C100.429 9.49627 100.57 9.54585 100.697 9.62125C100.824 9.69665 100.935 9.79639 101.024 9.91477L102.828 12.3254L107.462 5.35962C107.628 5.11312 107.885 4.94257 108.177 4.88518C108.468 4.82778 108.77 4.88821 109.017 5.05328C109.264 5.21835 109.436 5.47465 109.495 5.76626C109.555 6.05786 109.496 6.3611 109.333 6.60979L103.818 14.9009C103.718 15.0509 103.584 15.1747 103.426 15.2619C103.269 15.3492 103.093 15.3974 102.913 15.4024L102.882 15.4028Z" fill="white"/>
<path d="M116.639 28.4065H92.3296C90.8438 28.4065 89.6394 29.6135 89.6394 31.1025V32.0728C89.6394 33.5618 90.8438 34.7688 92.3296 34.7688H116.639C118.124 34.7688 119.329 33.5618 119.329 32.0728V31.1025C119.329 29.6135 118.124 28.4065 116.639 28.4065Z" fill="#B9B9B9"/>
<path d="M131.717 41.1311H77.2514C75.7656 41.1311 74.5611 42.3382 74.5611 43.8271V44.7974C74.5611 46.2864 75.7656 47.4934 77.2514 47.4934H131.717C133.203 47.4934 134.407 46.2864 134.407 44.7974V43.8271C134.407 42.3382 133.203 41.1311 131.717 41.1311Z" fill="#BFBFBF"/>
<path d="M131.717 53.8558H77.2514C75.7656 53.8558 74.5611 55.0629 74.5611 56.5519V57.5221C74.5611 59.0111 75.7656 60.2182 77.2514 60.2182H131.717C133.203 60.2182 134.407 59.0111 134.407 57.5221V56.5519C134.407 55.0629 133.203 53.8558 131.717 53.8558Z" fill="#BFBFBF"/>
<path d="M98.5885 189.528C97.5838 189.528 96.6017 189.23 95.7664 188.67C94.931 188.111 94.28 187.316 93.8955 186.386C93.511 185.456 93.4104 184.432 93.6064 183.445C93.8024 182.457 94.2862 181.55 94.9966 180.838C95.707 180.126 96.6121 179.641 97.5975 179.445C98.5828 179.249 99.6042 179.349 100.532 179.735C101.461 180.12 102.254 180.772 102.812 181.61C103.37 182.447 103.668 183.431 103.668 184.438C103.668 185.788 103.133 187.083 102.18 188.037C101.228 188.992 99.9357 189.528 98.5885 189.528Z" fill="#E6E6E6"/>
<path d="M100.36 185.503L99.2971 184.438L100.36 183.372C100.454 183.278 100.507 183.15 100.507 183.017C100.507 182.884 100.454 182.756 100.36 182.662C100.266 182.568 100.139 182.515 100.006 182.515C99.8728 182.515 99.7454 182.568 99.6514 182.662L98.5885 183.727L97.5255 182.662C97.4315 182.568 97.3041 182.515 97.1712 182.515C97.0383 182.515 96.9109 182.568 96.8169 182.662C96.7229 182.756 96.6701 182.884 96.6701 183.017C96.6701 183.15 96.7229 183.278 96.8169 183.372L97.8798 184.438L96.8169 185.503C96.7229 185.597 96.6701 185.725 96.6701 185.858C96.6701 185.991 96.7229 186.119 96.8169 186.213C96.9109 186.307 97.0383 186.36 97.1712 186.36C97.3041 186.36 97.4316 186.307 97.5255 186.213L98.5885 185.148L99.6514 186.213C99.7454 186.307 99.8728 186.36 100.006 186.36C100.139 186.36 100.266 186.307 100.36 186.213C100.454 186.119 100.507 185.991 100.507 185.858C100.507 185.725 100.454 185.597 100.36 185.503Z" fill="white"/>
<path d="M73.326 129.414C78.9089 129.414 83.4347 124.878 83.4347 119.284C83.4347 113.689 78.9089 109.153 73.326 109.153C67.7431 109.153 63.2173 113.689 63.2173 119.284C63.2173 124.878 67.7431 129.414 73.326 129.414Z" fill="#545454"/>
<path d="M71.9469 124.556C71.7724 124.556 71.6002 124.515 71.4441 124.437C71.288 124.359 71.1522 124.245 71.0475 124.105L68.2897 120.42C68.2011 120.302 68.1366 120.167 68.1 120.024C68.0633 119.88 68.0552 119.731 68.0761 119.585C68.097 119.438 68.1465 119.297 68.2217 119.17C68.2969 119.043 68.3965 118.931 68.5146 118.843C68.6327 118.754 68.7672 118.689 68.9102 118.652C69.0532 118.616 69.2021 118.608 69.3483 118.629C69.4945 118.649 69.6351 118.699 69.7621 118.774C69.8892 118.85 70.0002 118.95 70.0888 119.068L71.893 121.479L76.527 114.513C76.6085 114.389 76.7136 114.282 76.8364 114.198C76.9593 114.115 77.0973 114.057 77.2426 114.027C77.3879 113.998 77.5377 113.997 77.6832 114.026C77.8287 114.054 77.9672 114.112 78.0906 114.194C78.214 114.276 78.3199 114.383 78.4022 114.506C78.4845 114.63 78.5416 114.769 78.5702 114.914C78.5988 115.06 78.5983 115.21 78.5688 115.356C78.5393 115.502 78.4814 115.64 78.3983 115.763L72.8827 124.054C72.7829 124.204 72.6487 124.328 72.4913 124.415C72.334 124.502 72.158 124.551 71.9782 124.556L71.9469 124.556Z" fill="white"/>
<path d="M85.7036 137.56H61.3947C59.9089 137.56 58.7044 138.767 58.7044 140.256V141.226C58.7044 142.715 59.9089 143.922 61.3947 143.922H85.7036C87.1894 143.922 88.3938 142.715 88.3938 141.226V140.256C88.3938 138.767 87.1894 137.56 85.7036 137.56Z" fill="#B9B9B9"/>
<path d="M100.782 150.284H46.3164C44.8306 150.284 43.6262 151.491 43.6262 152.98V153.951C43.6262 155.44 44.8306 156.647 46.3164 156.647H100.782C102.268 156.647 103.472 155.44 103.472 153.951V152.98C103.472 151.491 102.268 150.284 100.782 150.284Z" fill="#B9B9B9"/>
<path d="M100.782 163.009H46.3164C44.8306 163.009 43.6262 164.216 43.6262 165.705V166.675C43.6262 168.164 44.8306 169.371 46.3164 169.371H100.782C102.268 169.371 103.472 168.164 103.472 166.675V165.705C103.472 164.216 102.268 163.009 100.782 163.009Z" fill="#B9B9B9"/>
<path d="M203.668 167.809C202.281 167.809 200.925 167.397 199.771 166.624C198.617 165.852 197.718 164.754 197.187 163.469C196.657 162.185 196.518 160.772 196.788 159.408C197.059 158.044 197.727 156.792 198.708 155.809C199.689 154.826 200.939 154.156 202.3 153.885C203.66 153.614 205.071 153.753 206.352 154.285C207.634 154.817 208.73 155.718 209.5 156.874C210.271 158.03 210.683 159.389 210.683 160.779C210.683 162.644 209.944 164.432 208.628 165.75C207.313 167.068 205.528 167.809 203.668 167.809Z" fill="#E6E6E6"/>
<path d="M206.114 162.25L204.647 160.779L206.114 159.309C206.244 159.178 206.317 159.002 206.317 158.818C206.317 158.634 206.244 158.458 206.114 158.328C205.985 158.198 205.809 158.125 205.625 158.125C205.442 158.125 205.266 158.198 205.136 158.328L203.668 159.799L202.2 158.328C202.07 158.198 201.894 158.125 201.711 158.125C201.527 158.125 201.351 158.198 201.222 158.328C201.092 158.458 201.019 158.634 201.019 158.818C201.019 159.002 201.092 159.178 201.222 159.309L202.689 160.779L201.222 162.25C201.092 162.381 201.019 162.557 201.019 162.741C201.019 162.925 201.092 163.101 201.222 163.231C201.351 163.361 201.527 163.434 201.711 163.434C201.894 163.434 202.07 163.361 202.2 163.231L203.668 161.76L205.136 163.231C205.266 163.361 205.442 163.434 205.625 163.434C205.809 163.434 205.985 163.361 206.114 163.231C206.244 163.101 206.317 162.925 206.317 162.741C206.317 162.557 206.244 162.38 206.114 162.25Z" fill="white"/>
<path d="M173.106 84.797C180.816 84.797 187.066 78.5339 187.066 70.8079C187.066 63.082 180.816 56.8188 173.106 56.8188C165.397 56.8188 159.147 63.082 159.147 70.8079C159.147 78.5339 165.397 84.797 173.106 84.797Z" fill="#AC3483"/>
<path d="M171.202 78.0886C170.961 78.0886 170.723 78.0323 170.508 77.9243C170.292 77.8162 170.105 77.6593 169.96 77.466L166.152 72.3773C166.029 72.2139 165.94 72.0278 165.89 71.8299C165.839 71.6319 165.828 71.4259 165.857 71.2236C165.886 71.0213 165.954 70.8267 166.058 70.6509C166.162 70.4751 166.299 70.3215 166.462 70.1989C166.625 70.0763 166.811 69.9871 167.009 69.9364C167.206 69.8856 167.412 69.8744 167.614 69.9033C167.815 69.9322 168.01 70.0007 168.185 70.1048C168.36 70.2089 168.514 70.3467 168.636 70.5102L171.128 73.839L177.527 64.2199C177.64 64.0498 177.785 63.9037 177.955 63.79C178.124 63.6762 178.314 63.597 178.514 63.5569C178.714 63.5168 178.92 63.5165 179.12 63.5562C179.32 63.5958 179.511 63.6746 179.68 63.788C179.85 63.9013 179.996 64.0471 180.109 64.2169C180.223 64.3868 180.302 64.5774 180.342 64.7778C180.382 64.9782 180.382 65.1845 180.342 65.385C180.303 65.5855 180.224 65.7762 180.111 65.9463L172.494 77.3956C172.356 77.6026 172.171 77.7736 171.954 77.8941C171.736 78.0146 171.494 78.0811 171.245 78.088C171.231 78.0883 171.216 78.0886 171.202 78.0886Z" fill="white"/>
<path d="M191.223 96.0455H155.606C154.12 96.0455 152.915 97.2526 152.915 98.7416V102.135C152.915 103.624 154.12 104.831 155.606 104.831H191.223C192.709 104.831 193.914 103.624 193.914 102.135V98.7416C193.914 97.2526 192.709 96.0455 191.223 96.0455Z" fill="#3F3D56"/>
<path d="M212.045 113.617H134.784C133.298 113.617 132.094 114.824 132.094 116.313V119.707C132.094 121.196 133.298 122.403 134.784 122.403H212.045C213.531 122.403 214.735 121.196 214.735 119.707V116.313C214.735 114.824 213.531 113.617 212.045 113.617Z" fill="#3F3D56"/>
<path d="M212.045 131.189H134.784C133.298 131.189 132.094 132.396 132.094 133.885V137.278C132.094 138.767 133.298 139.974 134.784 139.974H212.045C213.531 139.974 214.735 138.767 214.735 137.278V133.885C214.735 132.396 213.531 131.189 212.045 131.189Z" fill="#3F3D56"/>
<path d="M239.163 246.568L232.394 246.568L229.173 220.401L239.165 220.401L239.163 246.568Z" fill="#FFB6B6"/>
<path d="M238.983 244.352L231.755 241.406L231.548 241.321L227.557 244.352C225.304 244.353 223.143 245.25 221.55 246.846C219.957 248.443 219.061 250.609 219.061 252.867V253.143H240.888V244.352H238.983Z" fill="#2F2E41"/>
<path d="M296.381 240.886L289.916 242.899L279.091 218.868L288.633 215.897L296.381 240.886Z" fill="#FFB6B6"/>
<path d="M295.552 238.823L287.777 238.159L287.554 238.14L284.641 242.221C282.49 242.892 280.692 244.391 279.643 246.39C278.594 248.388 278.381 250.723 279.049 252.879L279.131 253.143L299.974 246.652L297.371 238.257L295.552 238.823Z" fill="#2F2E41"/>
<path d="M269.295 112.524L272.048 120.371V124.613L271.665 129.278L275.926 144.835L279.269 179.142L296.092 229.925L283.193 233.648L250.259 150.673L239.857 234.6L228.06 234.284C228.06 234.284 226.042 229.393 226.573 226.734C227.104 224.075 227.104 227.266 227.104 224.075C227.104 220.884 224.803 222.271 226.484 219.716C228.165 217.162 227.956 214.926 228.06 213.385C228.165 211.844 227.104 149.622 227.104 147.494C227.104 145.367 226.736 145.833 226.92 143.739C227.104 141.644 229.436 142.505 228.801 138.884C228.165 135.263 227.956 135.896 228.06 133.186C228.165 130.476 229.628 114.588 229.628 114.588L269.295 112.524Z" fill="#2F2E41"/>
<path d="M225.146 115.077L248.794 92.2223L255.349 73.6238L245.681 69.4108C240.715 74.1779 235.347 89.0262 235.347 89.0262L219.073 109.774C218.947 109.817 218.82 109.864 218.695 109.919C217.962 110.243 217.325 110.751 216.845 111.393C216.365 112.036 216.059 112.792 215.956 113.588C215.853 114.384 215.956 115.194 216.257 115.938C216.557 116.682 217.044 117.336 217.67 117.837C218.296 118.338 219.04 118.668 219.831 118.796C220.622 118.924 221.432 118.846 222.184 118.568C222.936 118.291 223.603 117.824 224.122 117.212C224.641 116.6 224.994 115.865 225.146 115.077Z" fill="#FFB8B8"/>
<path d="M242.96 71.4873L255.223 75.3888L255.27 75.3811C259.834 74.6149 263.621 67.1442 265.995 61.0119C266.776 58.9893 266.761 56.7449 265.954 54.7326C265.147 52.7202 263.607 51.0901 261.647 50.1717C260.196 49.504 258.588 49.2562 257.004 49.4565C255.42 49.6568 253.924 50.297 252.684 51.305L246.386 56.4616L242.96 71.4873Z" fill="#AC3483"/>
<path d="M271.379 122.605L271.45 122.51C275.276 117.424 270.043 104.831 269.252 103.004L272.81 101.948L272.19 95.1601L271.891 92.1332L274.657 89.5007L274.666 89.4335L276.569 75.8664L279.058 66.887C279.996 63.4924 280.016 59.9087 279.115 56.5039C278.215 53.0991 276.426 49.9957 273.933 47.5125L268.845 42.4497L262.749 32.8872L252.528 32.6228L248.852 39.166C245.434 39.8651 242.369 41.7437 240.191 44.4745C238.013 47.2054 236.86 50.6154 236.933 54.1106L237.279 71.5299L233.611 93.1125L233.509 97.0329L229.909 100.84L230.574 104.688L227.882 105.763L226.564 111.232C226.061 111.863 222.738 116.072 222.708 117.245C222.703 117.421 222.829 117.595 223.102 117.791C225.253 119.333 237.274 122.674 242.685 120.666C248.447 118.527 271.034 122.543 271.261 122.584L271.379 122.605Z" fill="#AC3483"/>
<path d="M246.323 67.3846L241.102 56.953C233.523 57.4718 218.482 66.253 218.482 66.253L190.024 72.2996C189.181 71.9749 188.267 71.8784 187.375 72.0199C186.483 72.1615 185.644 72.536 184.942 73.1059C184.241 73.6757 183.701 74.4207 183.378 75.266C183.055 76.1112 182.96 77.0268 183.102 77.9206C183.244 78.8144 183.619 79.6549 184.189 80.3575C184.758 81.06 185.502 81.5998 186.346 81.9226C187.19 82.2453 188.104 82.3396 188.995 82.1959C189.887 82.0522 190.725 81.6757 191.426 81.1041L227.626 78.5037L246.323 67.3846Z" fill="#FFB8B8"/>
<path d="M244.217 69.0975L257.853 58.9424L260.255 50.2682C260.72 48.5635 260.7 46.7625 260.198 45.0685C259.695 43.3745 258.73 41.8551 257.411 40.682C255.612 39.1038 253.283 38.269 250.894 38.3462C248.504 38.4235 246.233 39.4071 244.54 41.0981C239.409 46.2309 233.556 53.3916 234.813 58.357L234.826 58.4073L244.217 69.0975Z" fill="#AC3483"/>
<path d="M257.975 30.2517C264.672 30.2517 270.1 24.8114 270.1 18.1005C270.1 11.3895 264.672 5.94922 257.975 5.94922C251.278 5.94922 245.85 11.3895 245.85 18.1005C245.85 24.8114 251.278 30.2517 257.975 30.2517Z" fill="#FFB8B8"/>
<path d="M265.954 30.8085C263.926 29.8539 261.558 30.434 259.319 30.5223C257.08 30.6106 254.367 29.7647 253.892 27.5703C253.54 25.9477 254.596 24.1693 253.931 22.6487C253.205 20.9905 251.028 20.7545 249.282 20.2902C247.092 19.6563 245.162 18.3398 243.77 16.5318C242.379 14.7238 241.598 12.5183 241.542 10.2356C241.421 11.1416 242.968 11.4392 243.476 10.68C243.984 9.92083 243.634 8.87004 243.074 8.14865C242.513 7.42725 241.757 6.85114 241.335 6.04097C240.912 5.2308 240.994 4.0276 241.819 3.63771C242.242 4.49305 242.841 5.24884 243.577 5.85523C244.312 6.46161 245.168 6.90482 246.087 7.15559C245.711 6.01315 246.242 4.72875 247.096 3.88375C248.004 3.09205 249.049 2.47508 250.18 2.06389C252.975 0.849692 256.238 -0.35857 258.945 1.04233C259.644 1.41088 260.25 1.93289 260.72 2.56934C261.189 3.2058 261.508 3.94028 261.655 4.7179C266.661 5.14216 271.803 10.5774 271.518 15.6047C271.211 21.0168 270.987 21.4546 266.491 30.5619" fill="#2F2E41"/>
<path d="M326.695 253.455H309.084L309.008 253.317C308.783 252.908 308.565 252.474 308.362 252.029C306.548 248.137 305.781 243.685 305.105 239.758L304.595 236.798C304.534 236.439 304.58 236.07 304.729 235.739C304.878 235.407 305.122 235.127 305.43 234.935C305.738 234.743 306.097 234.647 306.46 234.661C306.822 234.674 307.173 234.796 307.466 235.01C310.143 236.961 312.82 238.911 315.499 240.859C316.513 241.599 317.671 242.455 318.781 243.38C318.888 242.859 319 242.336 319.112 241.821C319.189 241.465 319.37 241.141 319.632 240.889C319.895 240.637 320.226 240.469 320.584 240.407C320.942 240.345 321.31 240.392 321.642 240.541C321.973 240.69 322.253 240.934 322.445 241.243L324.505 244.561C326.008 246.984 327.334 249.371 327.064 251.946C327.065 251.977 327.063 252.009 327.057 252.04C327.003 252.463 326.903 252.878 326.758 253.279L326.695 253.455Z" fill="#F0F0F0"/>
<path d="M335.858 253.886L298.142 254C298.104 253.999 298.068 253.953 298.041 253.87C298.015 253.787 298 253.674 298 253.557C298 253.44 298.015 253.328 298.041 253.245C298.068 253.162 298.104 253.115 298.142 253.114L335.858 253C335.896 253.001 335.932 253.048 335.959 253.131C335.985 253.213 336 253.326 336 253.443C336 253.56 335.985 253.672 335.959 253.755C335.932 253.838 335.896 253.885 335.858 253.886Z" fill="#CACACA"/>
</g>
<defs>
<clipPath id="clip0_93_960">
<rect width="345" height="254" fill="white"/>
</clipPath>
</defs>
</svg>
