<svg width="378" height="239" viewBox="0 0 378 239" fill="none" xmlns="http://www.w3.org/2000/svg">
<path d="M327.949 142.698C328.373 142.11 328.671 141.429 328.823 140.705C328.974 139.98 328.975 139.229 328.825 138.504C328.675 137.779 328.378 137.098 327.956 136.509C327.533 135.919 326.994 135.436 326.378 135.094L327.317 123.532L320.879 121.208L319.767 137.556C319.297 138.7 319.236 139.989 319.596 141.178C319.956 142.368 320.712 143.374 321.72 144.008C322.728 144.642 323.919 144.859 325.067 144.617C326.215 144.376 327.24 143.693 327.948 142.698L327.949 142.698Z" fill="#FFB8B8"/>
<path d="M360.071 232.589H354.278L351.521 208.704H360.075L360.071 232.589Z" fill="#FFB8B8"/>
<path d="M350.138 230.819H361.315V238.337H343.101C343.101 236.343 343.842 234.431 345.162 233.021C346.482 231.611 348.272 230.819 350.138 230.819Z" fill="#2F2E41"/>
<path d="M346.918 216.74L341.291 218.218L333.278 195.729L341.584 193.548L346.918 216.74Z" fill="#FFB8B8"/>
<path d="M336.955 217.341L347.808 214.487L349.489 221.788L331.803 226.439C331.357 224.503 331.649 222.456 332.615 220.75C333.581 219.044 335.142 217.818 336.955 217.341Z" fill="#2F2E41"/>
<path d="M353.29 224.973C352.761 224.974 352.25 224.766 351.857 224.388C351.463 224.009 351.215 223.488 351.161 222.926L344.494 156.553L338.691 176.85L346.91 208.552C347.051 209.095 347 209.675 346.766 210.18C346.531 210.686 346.13 211.081 345.64 211.29L339.105 214.082C338.836 214.197 338.548 214.253 338.259 214.245C337.969 214.238 337.684 214.168 337.42 214.04C337.156 213.911 336.92 213.727 336.725 213.499C336.529 213.27 336.38 213.001 336.284 212.709L326.212 181.834C325.109 178.462 324.621 174.897 324.775 171.329L326.181 138.009L363.209 139.684L362.631 222.123C362.624 222.697 362.417 223.247 362.05 223.667C361.684 224.086 361.184 224.344 360.648 224.39L353.457 224.969C353.401 224.971 353.345 224.973 353.29 224.973Z" fill="#2F2E41"/>
<path d="M347.158 64.2671C354.034 64.2671 359.609 58.3116 359.609 50.965C359.609 43.6184 354.034 37.6628 347.158 37.6628C340.281 37.6628 334.707 43.6184 334.707 50.965C334.707 58.3116 340.281 64.2671 347.158 64.2671Z" fill="#FFB8B8"/>
<path d="M356.314 141.851C353.035 141.851 348.963 141.565 344.747 141.269C338.988 140.863 333.034 140.445 328.588 140.72C327.988 140.784 327.383 140.682 326.83 140.425C326.277 140.167 325.794 139.763 325.429 139.25C320.847 132.982 327.913 108.537 328.217 107.5L333.968 80.1668C335.235 74.155 339.276 69.7205 344.519 68.594C349.426 67.5411 354.173 69.6398 357.217 74.213C357.379 74.4556 357.54 74.7046 357.701 74.9599C367.613 90.6429 362.007 129.607 361.631 132.119C362.155 132.789 364.986 136.578 364.208 139.209C363.891 140.28 363.031 141.01 361.652 141.376C359.894 141.748 358.103 141.907 356.313 141.85L356.314 141.851Z" fill="#AC3483"/>
<path d="M328.789 141.863C327.661 141.863 326.14 141.419 324.089 140.509C323.207 140.117 320.525 138.925 323.782 108.516C325.382 93.5789 327.673 78.7457 327.696 78.5978L327.718 78.4548L327.842 78.3952C327.901 78.3665 333.754 75.5004 334.772 71.817C334.805 71.6896 334.845 71.5659 334.89 71.446C335.17 70.6273 335.736 69.9557 336.468 69.5714C337.2 69.1871 338.043 69.1199 338.821 69.3836C339.643 69.5934 340.359 70.1292 340.824 70.8824C341.289 71.6355 341.469 72.5496 341.326 73.4391C340.972 75.8415 340.29 78.1757 339.303 80.3672C336.549 86.4385 334.683 102.534 334.665 102.696C334.559 104.07 332.06 136.638 331.578 139.11C331.41 139.973 331.101 141.029 330.193 141.542C329.757 141.771 329.276 141.883 328.79 141.867L328.789 141.863Z" fill="#2F2E41"/>
<path d="M342.391 140.615C342.163 140.615 341.942 140.534 341.763 140.385C338.1 137.411 344.028 101.363 347.542 88.9248C348.246 86.4335 348.873 84.3012 349.405 82.5849C350.376 79.5052 351.054 76.3287 351.428 73.1037C351.621 71.3566 352.042 70.3589 352.714 70.0529C353.181 69.8401 353.728 69.9847 354.346 70.4824C357.594 70.3113 360.75 71.7281 363.674 73.2884L366.306 74.6912L369.259 130.556C369.176 134.122 362.598 136.638 359.729 136.799C355.121 137.058 346.847 137.859 343.203 140.324C342.964 140.502 342.682 140.603 342.391 140.615L342.391 140.615Z" fill="#2F2E41"/>
<path d="M325.938 130.133C325.894 130.133 325.85 130.133 325.806 130.129L319.841 129.737C319.544 129.717 319.254 129.632 318.989 129.486C318.725 129.341 318.492 129.138 318.304 128.891C318.117 128.643 317.981 128.357 317.903 128.05C317.825 127.744 317.807 127.423 317.852 127.108L320.551 108.002L325.633 81.1925C325.758 80.5321 326.012 79.9072 326.378 79.3583C326.743 78.8094 327.213 78.3487 327.756 78.0061C328.299 77.6636 328.903 77.4467 329.53 77.3697C330.156 77.2926 330.791 77.3571 331.393 77.5589C332.422 77.9096 333.299 78.6415 333.867 79.6227C334.435 80.6039 334.655 81.7696 334.489 82.9094L330.452 109.773L328.062 128.158C327.988 128.705 327.733 129.205 327.343 129.568C326.953 129.93 326.455 130.131 325.938 130.133Z" fill="#2F2E41"/>
<path d="M346.317 109.219C346.681 108.587 347.17 108.047 347.751 107.639C348.331 107.23 348.988 106.962 349.675 106.854C350.363 106.746 351.064 106.8 351.73 107.013C352.396 107.226 353.01 107.592 353.529 108.086L363.31 103.038L367.631 108.64L353.724 115.562C352.89 116.438 351.784 116.957 350.615 117.02C349.447 117.084 348.297 116.687 347.384 115.905C346.471 115.123 345.858 114.011 345.662 112.779C345.465 111.547 345.698 110.28 346.317 109.219Z" fill="#FFB8B8"/>
<path d="M359.905 114.64C359.424 114.64 358.956 114.467 358.578 114.149C358.199 113.83 357.932 113.385 357.82 112.885L356.4 106.575C356.292 106.101 356.329 105.602 356.506 105.151C356.683 104.701 356.991 104.323 357.384 104.074L365.951 98.595L361.571 81.4621C361.192 79.9949 361.366 78.4276 362.055 77.0956C362.744 75.7636 363.894 74.7727 365.259 74.3352C366.623 73.8977 368.094 74.0482 369.356 74.7545C370.618 75.4609 371.571 76.6669 372.011 78.1145L376.846 93.8885C377.44 95.8113 377.445 97.8864 376.86 99.8123C376.274 101.738 375.129 103.414 373.591 104.597L361.161 114.205C360.796 114.488 360.356 114.64 359.905 114.64Z" fill="#2F2E41"/>
<path d="M248.338 0H8.45579C6.214 0.0028666 4.06479 0.955566 2.4796 2.64911C0.894416 4.34266 0.00268318 6.63878 0 9.03382V36.6119C0.00268318 39.0069 0.894416 41.3031 2.4796 42.9966C4.06479 44.6901 6.214 45.6428 8.45579 45.6457H248.338C250.58 45.6428 252.729 44.6901 254.314 42.9966C255.899 41.3031 256.791 39.0069 256.794 36.6119V9.03382C256.791 6.63878 255.899 4.34266 254.314 2.64911C252.729 0.955566 250.58 0.0028666 248.338 0ZM255.903 36.6119C255.9 38.7546 255.102 40.8087 253.684 42.3238C252.266 43.8389 250.343 44.6915 248.338 44.6947H8.45579C6.45017 44.6915 4.52755 43.8389 3.10936 42.3238C1.69117 40.8087 0.893139 38.7546 0.890189 36.6119V9.03382C0.893139 6.8911 1.69117 4.83704 3.10936 3.32191C4.52755 1.80678 6.45017 0.954192 8.45579 0.951041H248.338C250.343 0.954192 252.266 1.80678 253.684 3.32191C255.102 4.83704 255.9 6.8911 255.903 9.03382V36.6119Z" fill="white"/>
<path d="M248.338 110.785H8.45579C6.214 110.782 4.06479 109.829 2.4796 108.136C0.894416 106.442 0.00268318 104.146 0 101.751V74.1737C0.00268318 71.7787 0.894416 69.4826 2.4796 67.789C4.06479 66.0955 6.214 65.1428 8.45579 65.1399H248.338C250.58 65.1428 252.729 66.0955 254.314 67.789C255.899 69.4826 256.791 71.7787 256.794 74.1737V101.751C256.791 104.146 255.899 106.442 254.314 108.136C252.729 109.829 250.58 110.782 248.338 110.785ZM8.45579 66.0909C6.44997 66.0934 4.52696 66.9457 3.10862 68.461C1.69029 69.9763 0.892469 72.0308 0.890189 74.1737V101.751C0.892067 103.894 1.68971 105.949 3.10808 107.465C4.52646 108.981 6.4497 109.833 8.45579 109.836H248.338C250.344 109.833 252.267 108.981 253.685 107.466C255.104 105.95 255.902 103.896 255.904 101.753V74.1737C255.902 72.0308 255.104 69.9763 253.685 68.461C252.267 66.9457 250.344 66.0934 248.338 66.0909H8.45579Z" fill="#CCCCCC" fill-opacity="0.53"/>
<path d="M248.338 175.925H8.45579C6.214 175.922 4.06479 174.969 2.4796 173.276C0.894416 171.582 0.00268318 169.286 0 166.891V139.314C0.00268318 136.919 0.894416 134.622 2.4796 132.929C4.06479 131.235 6.214 130.283 8.45579 130.28H248.338C250.58 130.283 252.729 131.235 254.314 132.929C255.899 134.622 256.791 136.919 256.794 139.314V166.891C256.791 169.286 255.899 171.582 254.314 173.276C252.729 174.969 250.58 175.922 248.338 175.925ZM8.45579 131.229C6.44997 131.231 4.52696 132.083 3.10862 133.599C1.69029 135.114 0.892469 137.168 0.890189 139.311V166.889C0.892335 169.032 1.6901 171.087 3.10845 172.602C4.52679 174.117 6.44988 174.97 8.45579 174.972H248.338C250.344 174.97 252.267 174.118 253.685 172.602C255.104 171.087 255.902 169.033 255.904 166.89V139.314C255.902 137.17 255.104 135.115 253.686 133.599C252.267 132.084 250.344 131.231 248.338 131.229H8.45579Z" fill="#CCCCCC" fill-opacity="0.53"/>
<path d="M40.8692 38.5465C37.9583 38.5465 35.1128 37.6243 32.6925 35.8966C30.2722 34.1688 28.3859 31.7131 27.2719 28.84C26.158 25.9669 25.8665 22.8054 26.4344 19.7553C27.0023 16.7053 28.404 13.9036 30.4623 11.7046C32.5206 9.5056 35.143 8.00807 37.9979 7.40138C40.8528 6.79468 43.812 7.10605 46.5013 8.29614C49.1906 9.48622 51.4892 11.5016 53.1063 14.0873C54.7235 16.673 55.5867 19.713 55.5867 22.8229C55.5867 26.993 54.0361 30.9924 51.276 33.9411C48.516 36.8899 44.7725 38.5465 40.8692 38.5465Z" fill="#AC3483"/>
<path d="M226.608 35.6603H69.5068C68.5625 35.6603 67.6569 35.2595 66.9891 34.5461C66.3214 33.8328 65.9463 32.8652 65.9463 31.8564C65.9463 30.8475 66.3214 29.88 66.9891 29.1666C67.6569 28.4533 68.5625 28.0525 69.5068 28.0525H226.608C227.552 28.0525 228.458 28.4533 229.126 29.1666C229.794 29.88 230.169 30.8475 230.169 31.8564C230.169 32.8652 229.794 33.8328 229.126 34.5461C228.458 35.2595 227.552 35.6603 226.608 35.6603Z" fill="#CCCCCC" fill-opacity="0.53"/>
<path d="M175.425 19.4941H69.5033C68.559 19.4941 67.6533 19.0934 66.9856 18.38C66.3179 17.6666 65.9427 16.6991 65.9427 15.6903C65.9427 14.6814 66.3179 13.7139 66.9856 13.0005C67.6533 12.2871 68.559 11.8864 69.5033 11.8864H175.425C176.369 11.8864 177.275 12.2871 177.942 13.0005C178.61 13.7139 178.985 14.6814 178.985 15.6903C178.985 16.6991 178.61 17.6666 177.942 18.38C177.275 19.0934 176.369 19.4941 175.425 19.4941Z" fill="#CCCCCC" fill-opacity="0.53"/>
<path d="M40.8692 103.686C37.9583 103.686 35.1128 102.764 32.6925 101.036C30.2722 99.3082 28.3859 96.8526 27.2719 93.9794C26.158 91.1063 25.8665 87.9448 26.4344 84.8947C27.0023 81.8447 28.404 79.043 30.4623 76.844C32.5206 74.645 35.143 73.1475 37.9979 72.5408C40.8528 71.9341 43.812 72.2455 46.5013 73.4355C49.1906 74.6256 51.4892 76.641 53.1063 79.2267C54.7235 81.8124 55.5867 84.8524 55.5867 87.9623C55.5867 92.1324 54.0361 96.1318 51.276 99.0805C48.516 102.029 44.7725 103.686 40.8692 103.686Z" fill="#E6E6E6" fill-opacity="0.37"/>
<path d="M226.608 100.8H69.5068C68.5625 100.8 67.6569 100.399 66.9891 99.686C66.3214 98.9727 65.9463 98.0051 65.9463 96.9963C65.9463 95.9874 66.3214 95.0199 66.9891 94.3065C67.6569 93.5931 68.5625 93.1924 69.5068 93.1924H226.608C227.552 93.1924 228.458 93.5931 229.126 94.3065C229.794 95.0199 230.169 95.9874 230.169 96.9963C230.169 98.0051 229.794 98.9727 229.126 99.686C228.458 100.399 227.552 100.8 226.608 100.8Z" fill="#E6E6E6" fill-opacity="0.37"/>
<path d="M175.425 84.6342H69.5033C68.559 84.6342 67.6533 84.2334 66.9856 83.52C66.3179 82.8067 65.9427 81.8391 65.9427 80.8303C65.9427 79.8214 66.3179 78.8539 66.9856 78.1405C67.6533 77.4271 68.559 77.0264 69.5033 77.0264H175.425C176.369 77.0264 177.275 77.4271 177.942 78.1405C178.61 78.8539 178.985 79.8214 178.985 80.8303C178.985 81.8391 178.61 82.8067 177.942 83.52C177.275 84.2334 176.369 84.6342 175.425 84.6342Z" fill="#E6E6E6" fill-opacity="0.37"/>
<path d="M40.8692 168.826C37.9583 168.826 35.1128 167.904 32.6925 166.176C30.2722 164.448 28.3859 161.992 27.2719 159.119C26.158 156.246 25.8665 153.085 26.4344 150.035C27.0023 146.985 28.404 144.183 30.4623 141.984C32.5206 139.785 35.143 138.287 37.9979 137.681C40.8528 137.074 43.812 137.385 46.5013 138.575C49.1906 139.766 51.4892 141.781 53.1063 144.367C54.7235 146.952 55.5867 149.992 55.5867 153.102C55.5867 157.272 54.0361 161.272 51.276 164.22C48.516 167.169 44.7725 168.826 40.8692 168.826Z" fill="#E6E6E6" fill-opacity="0.37"/>
<path d="M226.608 165.94H69.5068C68.5625 165.94 67.6569 165.539 66.9891 164.826C66.3214 164.113 65.9463 163.145 65.9463 162.136C65.9463 161.127 66.3214 160.16 66.9891 159.446C67.6569 158.733 68.5625 158.332 69.5068 158.332H226.608C227.552 158.332 228.458 158.733 229.126 159.446C229.794 160.16 230.169 161.127 230.169 162.136C230.169 163.145 229.794 164.113 229.126 164.826C228.458 165.539 227.552 165.94 226.608 165.94Z" fill="#E6E6E6" fill-opacity="0.37"/>
<path d="M175.425 149.774H69.5033C68.559 149.774 67.6533 149.373 66.9856 148.66C66.3179 147.947 65.9427 146.979 65.9427 145.97C65.9427 144.961 66.3179 143.994 66.9856 143.28C67.6533 142.567 68.559 142.166 69.5033 142.166H175.425C176.369 142.166 177.275 142.567 177.942 143.28C178.61 143.994 178.985 144.961 178.985 145.97C178.985 146.979 178.61 147.947 177.942 148.66C177.275 149.373 176.369 149.774 175.425 149.774Z" fill="#E6E6E6" fill-opacity="0.37"/>
<path d="M40.1179 28.3536C39.7524 28.3545 39.3965 28.2283 39.104 27.994L39.0858 27.9793L35.2711 24.8619C35.0944 24.7172 34.9461 24.5368 34.8347 24.3308C34.7233 24.1249 34.6509 23.8976 34.6218 23.6618C34.5926 23.426 34.6072 23.1864 34.6647 22.9566C34.7223 22.7268 34.8216 22.5114 34.957 22.3227C35.0925 22.1339 35.2614 21.9755 35.4541 21.8565C35.6469 21.7374 35.8597 21.6601 36.0804 21.629C36.3011 21.5978 36.5254 21.6134 36.7404 21.6749C36.9555 21.7363 37.1571 21.8424 37.3338 21.9871L39.8047 24.0116L45.6431 15.8736C45.9166 15.4927 46.3204 15.2434 46.7659 15.1805C47.2114 15.1176 47.662 15.2464 48.0186 15.5384L47.9826 15.5925L48.0196 15.5384C48.3758 15.8309 48.6088 16.2625 48.6675 16.7384C48.7263 17.2143 48.6059 17.6956 48.3329 18.0768L41.4654 27.6446C41.3063 27.8647 41.1019 28.0427 40.868 28.1647C40.6342 28.2868 40.3772 28.3498 40.1169 28.3487L40.1179 28.3536Z" fill="white" fill-opacity="0.66"/>
<path d="M366.81 239H329.19C329.14 239 329.091 238.944 329.056 238.844C329.02 238.744 329 238.608 329 238.466C329 238.325 329.02 238.189 329.056 238.089C329.091 237.989 329.14 237.933 329.19 237.933H366.81C366.86 237.933 366.909 237.989 366.944 238.089C366.98 238.189 367 238.325 367 238.466C367 238.608 366.98 238.744 366.944 238.844C366.909 238.944 366.86 239 366.81 239Z" fill="#CCCCCC" fill-opacity="0.63"/>
<path d="M351.735 54.5108C351.735 54.5108 350.22 45.5602 346.772 46.6296C343.324 47.699 334.451 48.7932 334.435 44.5779C334.418 40.3627 342.787 36.6369 347.721 37.1412C352.655 37.6455 361.045 39.1882 360.583 47.0938C360.213 52.0729 358.773 56.8936 356.374 61.1807L351.735 54.5108Z" fill="#2F2E41"/>
</svg>
