<svg width="19" height="27" viewBox="0 0 19 27" fill="none" xmlns="http://www.w3.org/2000/svg">
<path d="M17.6688 22.875H12.6688M15.1688 25.375V20.375M9.53125 25.7625C7.25625 25.7625 4.99375 25.1875 3.26875 24.0375C0.24375 22.0125 0.24375 18.7125 3.26875 16.7C6.70625 14.4 12.3437 14.4 15.7812 16.7M9.74375 12.0875C9.61875 12.075 9.46875 12.075 9.33125 12.0875C7.8965 12.0388 6.53705 11.4335 5.54079 10.3999C4.54452 9.36635 3.98968 7.98557 3.99375 6.55C3.99178 5.82166 4.13357 5.1001 4.411 4.42666C4.68843 3.75323 5.09605 3.14117 5.61048 2.62558C6.12492 2.10998 6.73605 1.70099 7.40886 1.42204C8.08166 1.14309 8.80291 0.999669 9.53125 1C12.5937 1 15.0813 3.4875 15.0813 6.55C15.0813 9.55 12.7062 11.9875 9.74375 12.0875Z" stroke="white" stroke-width="1.5" stroke-linecap="round" stroke-linejoin="round"/>
</svg>
