<svg width="98" height="69" viewBox="0 0 98 69" fill="none" xmlns="http://www.w3.org/2000/svg">
<circle cx="61.5" cy="27.5" r="27.5" fill="#EEA42F"/>
<path d="M53.0327 47.8314C50.911 45.8035 47.9903 44.3939 44.7357 43.8271C43.9944 41.2176 42.7113 38.968 40.8295 37.1009C40.7725 37.0334 40.7154 36.9659 40.6584 36.9209C34.3857 30.937 24.1213 30.9595 17.1929 34.064C11.2623 36.741 6.21566 42.3874 8.8673 50.4409C2.7942 51.6107 0 55.7949 0 59.5742C0 63.8035 3.507 68.5501 11.3194 69H40.915C44.9638 69 48.8414 67.8077 51.8352 65.6481C58.9918 60.654 58.0509 52.5105 53.0327 47.8314Z" fill="#DFDFDF"/>
<path d="M95.912 51.846C94.7952 50.9691 93.258 50.3595 91.5451 50.1144C91.1549 48.986 90.4796 48.0132 89.4892 47.2058C89.4592 47.1766 89.4292 47.1474 89.3992 47.128C86.0978 44.5403 80.6954 44.5501 77.0489 45.8925C73.9275 47.0501 71.2714 49.4919 72.667 52.9745C69.4706 53.4803 68 55.2897 68 56.924C68 58.7528 69.8458 60.8054 73.9576 61H89.5342C91.6651 61 93.706 60.4844 95.2817 59.5505C99.0483 57.3909 98.5531 53.8694 95.912 51.846Z" fill="#C1C1C1"/>
</svg>
