<svg width="14" height="15" viewBox="0 0 14 15" fill="none" xmlns="http://www.w3.org/2000/svg">
<path d="M2.2 0.309998H11.7875C12.5875 0.309998 13.2375 0.959998 13.2375 1.76V3.36C13.2375 3.9475 12.875 4.6725 12.5125 5.035L9.3875 7.7975C8.95 8.16 8.6625 8.885 8.6625 9.4725V12.5975C8.6625 13.035 8.375 13.61 8.0125 13.835L7 14.4725C6.05 15.06 4.75 14.3975 4.75 13.235V9.385C4.75 8.8725 4.4625 8.2225 4.1625 7.86L1.4 4.9475C1.0375 4.5975 0.75 3.935 0.75 3.4975V1.835C0.75 0.959998 1.4 0.309998 2.2 0.309998Z" fill="#308ECC"/>
</svg>
