<svg width="18" height="23" viewBox="0 0 18 23" fill="none" xmlns="http://www.w3.org/2000/svg">
<path opacity="0.4" d="M17.621 7.45C16.571 2.83 12.5409 0.75 9.00095 0.75H8.99095C5.46095 0.75 1.42095 2.82 0.37095 7.44C-0.79905 12.6 2.36095 16.97 5.22095 19.72C6.23467 20.7012 7.58015 22.4998 8.99095 22.5C10.3509 22.5 11.7209 20.74 12.7709 19.72C15.6309 16.97 18.791 12.61 17.621 7.45Z" fill="#27AE60"/>
<path d="M9.00205 12.46C9.41571 12.46 9.82533 12.3785 10.2075 12.2202C10.5897 12.0619 10.9369 11.8299 11.2294 11.5374C11.5219 11.2449 11.754 10.8976 11.9123 10.5155C12.0706 10.1333 12.1521 9.72367 12.1521 9.31C12.1521 8.89634 12.0706 8.48673 11.9123 8.10455C11.754 7.72238 11.5219 7.37512 11.2294 7.08262C10.9369 6.79011 10.5897 6.55809 10.2075 6.39978C9.82533 6.24148 9.41571 6.16 9.00205 6.16C8.16662 6.16 7.3654 6.49188 6.77466 7.08262C6.18392 7.67336 5.85205 8.47457 5.85205 9.31C5.85205 10.1454 6.18392 10.9467 6.77466 11.5374C7.3654 12.1281 8.16662 12.46 9.00205 12.46Z" fill="#27AE60"/>
</svg>
