<svg width="141" height="122" viewBox="0 0 141 122" fill="none" xmlns="http://www.w3.org/2000/svg">
<g clip-path="url(#clip0_135_682)">
<path d="M0 120.764C0 120.943 0.142441 121.086 0.319817 121.086H140.68C140.858 121.086 141 120.943 141 120.764C141 120.586 140.858 120.443 140.68 120.443H0.319817C0.142439 120.443 0 120.586 0 120.764Z" fill="#3F3C57"/>
<path d="M45.7955 12.9656L47.3219 19.9586L44.0752 29.6922L38.8445 19.2342L39.5703 13.1671L45.7955 12.9656Z" fill="#FDB4B4"/>
<path d="M47.6055 19.5964H38.574V30.5524H47.6055V19.5964Z" fill="#16A085"/>
<path d="M43.8916 16.488C47.298 16.488 50.0594 13.7155 50.0594 10.2954C50.0594 6.8754 47.298 4.10291 43.8916 4.10291C40.4852 4.10291 37.7237 6.8754 37.7237 10.2954C37.7237 13.7155 40.4852 16.488 43.8916 16.488Z" fill="#FDB4B4"/>
<path d="M38.5227 14.9003C38.5227 14.9003 33.9252 6.37542 38.0704 2.27304C42.2156 -1.82934 45.5432 0.873874 45.5432 0.873874L47.4434 0.796772C47.4434 0.796772 47.8397 2.29816 48.4787 1.4854C49.1177 0.67263 50.2725 3.63262 50.2725 3.63262C52.4157 7.50794 44.9859 8.37608 44.9859 8.37608C44.9859 8.37608 45.5224 10.0919 44.9771 10.4513C44.4318 10.8106 42.9748 12.1624 42.9748 12.1624L41.6706 13.1513L40.8956 11.9658C40.8956 11.9658 40.0861 11.3242 39.6771 11.5937C39.2681 11.8632 39.8307 15.4092 39.8307 15.4092L38.5227 14.9003Z" fill="#363648"/>
<path d="M31.1235 77.6162L28.7654 112.932L34.5624 113.13L42.2264 77.9122L31.1235 77.6162Z" fill="#363648"/>
<path d="M45.174 77.4189L42.8159 112.735L48.6129 112.932L56.2769 77.7149L45.174 77.4189Z" fill="#363648"/>
<path d="M29.7035 85.685L32.7896 47.2207L28.057 27.1914C27.649 24.2141 29.5175 21.3969 32.4013 20.6287L37.0322 19.3951L39.0819 17.3372L43.744 27.6739L46.6557 17.345L48.9266 19.0032L55.6615 21.9864L55.6584 22.0563L54.5781 46.2515L56.9896 85.3425L56.8827 85.3439L29.7035 85.685Z" fill="#E8E9EA"/>
<path d="M48.2407 112.531L49.9193 117.562C49.9193 117.562 56.4862 118.459 56.5884 120.5C56.6906 122.541 47.6636 121.359 42.3778 121.626C37.092 121.893 41.492 116.146 41.492 116.146L42.0553 112.843L48.2407 112.531Z" fill="#363648"/>
<path d="M34.5327 112.169L36.2113 117.2C36.2113 117.2 42.7782 118.096 42.8804 120.138C42.9826 122.179 33.9556 120.997 28.6698 121.264C23.384 121.531 27.784 115.784 27.784 115.784L28.3473 112.481L34.5327 112.169Z" fill="#363648"/>
<path d="M26.3433 65.257C26.2721 64.265 26.4386 63.2704 26.8289 62.3563L25.5761 52.0384L30.4836 51.5835L31.2258 62.0988C31.719 62.9609 31.9994 63.9291 32.0435 64.9223C32.1878 67.4068 31.0287 69.4947 29.4545 69.5869C27.8802 69.6792 26.4872 67.7406 26.3433 65.257Z" fill="#FDB4B4"/>
<path d="M57.4256 66.7715C57.3652 65.7789 57.5425 64.7861 57.9427 63.8763L56.802 53.5453L61.7141 53.1442L62.3421 63.667C62.8259 64.5344 63.0958 65.5056 63.1291 66.4993C63.2464 68.9852 62.0647 71.0603 60.4896 71.1353C58.9144 71.2103 57.5425 69.2565 57.4256 66.7715Z" fill="#FDB4B4"/>
<path d="M25.556 61.1191L25.5394 61.0301L22.9818 47.2525L26.0038 24.8171C26.2735 22.8141 28.0549 21.3712 30.0637 21.5324C31.1128 21.6168 32.0541 22.1163 32.7144 22.9393C33.3745 23.7623 33.6602 24.7921 33.5186 25.8392L31.2441 42.6655L32.6762 60.6628L25.556 61.1191Z" fill="#E8E9EA"/>
<path d="M55.9099 60.7958L50.7678 26.3343C50.5005 25.3239 50.657 24.2664 51.2106 23.3678C51.7642 22.4691 52.6367 21.8564 53.6674 21.6424C55.6393 21.2329 57.5864 22.4431 58.101 24.397L63.041 60.363L55.9099 60.7958Z" fill="#E8E9EA"/>
<path d="M43.8949 30.824C44.2435 30.824 44.5262 30.5403 44.5262 30.1902C44.5262 29.8402 44.2435 29.5564 43.8949 29.5564C43.5462 29.5564 43.2636 29.8402 43.2636 30.1902C43.2636 30.5403 43.5462 30.824 43.8949 30.824Z" fill="#D6D7D8"/>
<path d="M43.8949 35.6229C44.2435 35.6229 44.5262 35.3391 44.5262 34.989C44.5262 34.639 44.2435 34.3552 43.8949 34.3552C43.5462 34.3552 43.2636 34.639 43.2636 34.989C43.2636 35.3391 43.5462 35.6229 43.8949 35.6229Z" fill="#D6D7D8"/>
<path d="M43.8949 40.4218C44.2435 40.4218 44.5262 40.138 44.5262 39.788C44.5262 39.4379 44.2435 39.1542 43.8949 39.1542C43.5462 39.1542 43.2636 39.4379 43.2636 39.788C43.2636 40.138 43.5462 40.4218 43.8949 40.4218Z" fill="#D6D7D8"/>
<path d="M43.8949 45.2208C44.2435 45.2208 44.5262 44.937 44.5262 44.5869C44.5262 44.2369 44.2435 43.9531 43.8949 43.9531C43.5462 43.9531 43.2636 44.2369 43.2636 44.5869C43.2636 44.937 43.5462 45.2208 43.8949 45.2208Z" fill="#D6D7D8"/>
<path d="M43.8949 50.0196C44.2435 50.0196 44.5262 49.7358 44.5262 49.3858C44.5262 49.0357 44.2435 48.752 43.8949 48.752C43.5462 48.752 43.2636 49.0357 43.2636 49.3858C43.2636 49.7358 43.5462 50.0196 43.8949 50.0196Z" fill="#D6D7D8"/>
<path d="M43.8949 54.8185C44.2435 54.8185 44.5262 54.5348 44.5262 54.1847C44.5262 53.8347 44.2435 53.5509 43.8949 53.5509C43.5462 53.5509 43.2636 53.8347 43.2636 54.1847C43.2636 54.5348 43.5462 54.8185 43.8949 54.8185Z" fill="#D6D7D8"/>
<path d="M43.8949 59.6175C44.2435 59.6175 44.5262 59.3337 44.5262 58.9837C44.5262 58.6336 44.2435 58.3499 43.8949 58.3499C43.5462 58.3499 43.2636 58.6336 43.2636 58.9837C43.2636 59.3337 43.5462 59.6175 43.8949 59.6175Z" fill="#D6D7D8"/>
<path d="M43.8949 64.4163C44.2435 64.4163 44.5262 64.1325 44.5262 63.7825C44.5262 63.4325 44.2435 63.1487 43.8949 63.1487C43.5462 63.1487 43.2636 63.4325 43.2636 63.7825C43.2636 64.1325 43.5462 64.4163 43.8949 64.4163Z" fill="#D6D7D8"/>
<path d="M43.8956 68.1285L31.9509 66.5304L31.7209 66.4997L25.6162 52.3674L21.9807 43.9534H31.4501L43.8956 68.1285Z" fill="#16A085"/>
<path d="M91.7876 14.503L99.3818 10.326V22.2602H90.599L91.7876 14.503Z" fill="#363648"/>
<path d="M101.01 17.1637L101.711 23.0227L96.6596 33.1218L93.5244 23.7222L94.9984 16.9691L101.01 17.1637Z" fill="#FDB4B4"/>
<path d="M101.972 23.3724H93.2505V33.9525H101.972V23.3724Z" fill="#16A085"/>
<path d="M109.167 79.4014L111.444 113.506L105.846 113.696L98.4451 79.6872L109.167 79.4014Z" fill="#363648"/>
<path d="M95.5985 79.2108L97.8758 113.315L92.2776 113.506L84.8767 79.4966L95.5985 79.2108Z" fill="#363648"/>
<path d="M115.081 86.6347L114.948 86.6343L79.2852 86.5174L79.3172 86.3906L88.486 49.9181L86.1892 31.5118C85.7541 28.024 87.6137 24.7273 90.8168 23.3085L91.9731 22.7964L94.1699 21.1925L96.9801 31.1625L101.48 21.1847L103.463 23.1748L107.934 24.3658C110.721 25.1081 112.526 27.8303 112.133 30.6979L112.129 30.7178L105.301 50.2782L115.081 86.6347Z" fill="#E8E9EA"/>
<path d="M92.6371 113.118L98.6103 113.42L99.1542 116.609C99.1542 116.609 103.403 122.159 98.2988 121.901C93.1944 121.643 84.4772 122.784 84.5758 120.813C84.6745 118.842 91.0161 117.977 91.0161 117.977L92.6371 113.118Z" fill="#363648"/>
<path d="M105.875 112.768L111.848 113.07L112.392 116.259C112.392 116.259 116.641 121.809 111.536 121.551C106.432 121.294 97.7148 122.435 97.8135 120.464C97.9122 118.492 104.254 117.627 104.254 117.627L105.875 112.768Z" fill="#363648"/>
<path d="M111.345 67.1164C111.206 69.5148 109.86 71.3868 108.34 71.2978C106.82 71.2087 105.701 69.1924 105.84 66.7932C105.883 65.8341 106.153 64.8991 106.63 64.0666L107.346 53.9121L112.085 54.3514L110.876 64.3153C111.253 65.198 111.413 66.1585 111.345 67.1164Z" fill="#FDB4B4"/>
<path d="M86.9913 66.2045C86.8015 68.5993 85.4169 70.4422 83.8989 70.3207C82.3809 70.1991 81.3046 68.1594 81.4948 65.7637C81.5577 64.8057 81.8482 63.8768 82.342 63.0546L83.2739 52.9177L88.0026 53.4582L86.5818 63.394C86.9399 64.2845 87.0803 65.2483 86.9913 66.2045Z" fill="#FDB4B4"/>
<path d="M112.108 63.1243L105.225 62.6832L105.234 62.5797L106.608 45.3002L104.412 29.0518C104.275 28.0397 104.551 27.0442 105.189 26.2487C105.828 25.4532 106.737 24.9703 107.752 24.8888C109.693 24.7351 111.415 26.1277 111.676 28.0637L114.594 49.7299L114.591 49.746L112.108 63.1243Z" fill="#E8E9EA"/>
<path d="M88.1372 62.4624L81.2437 62.0439L81.2588 61.9347L86.0123 27.3201C86.5123 25.419 88.3952 24.2497 90.3004 24.6452C91.2967 24.8521 92.1399 25.4444 92.6751 26.3131C93.2102 27.1817 93.3615 28.2038 93.1009 29.1911L88.1372 62.4624Z" fill="#E8E9EA"/>
<path d="M96.8338 34.2147C97.1705 34.2147 97.4434 33.9407 97.4434 33.6027C97.4434 33.2646 97.1705 32.9906 96.8338 32.9906C96.4971 32.9906 96.2242 33.2646 96.2242 33.6027C96.2242 33.9407 96.4971 34.2147 96.8338 34.2147Z" fill="#D6D7D8"/>
<path d="M96.8338 38.849C97.1705 38.849 97.4434 38.575 97.4434 38.2369C97.4434 37.8989 97.1705 37.6249 96.8338 37.6249C96.4971 37.6249 96.2242 37.8989 96.2242 38.2369C96.2242 38.575 96.4971 38.849 96.8338 38.849Z" fill="#D6D7D8"/>
<path d="M96.8338 43.4832C97.1705 43.4832 97.4434 43.2091 97.4434 42.8711C97.4434 42.5331 97.1705 42.259 96.8338 42.259C96.4971 42.259 96.2242 42.5331 96.2242 42.8711C96.2242 43.2091 96.4971 43.4832 96.8338 43.4832Z" fill="#D6D7D8"/>
<path d="M96.8338 48.1174C97.1705 48.1174 97.4434 47.8434 97.4434 47.5054C97.4434 47.1673 97.1705 46.8933 96.8338 46.8933C96.4971 46.8933 96.2242 47.1673 96.2242 47.5054C96.2242 47.8434 96.4971 48.1174 96.8338 48.1174Z" fill="#D6D7D8"/>
<path d="M96.8338 52.7517C97.1705 52.7517 97.4434 52.4777 97.4434 52.1397C97.4434 51.8016 97.1705 51.5276 96.8338 51.5276C96.4971 51.5276 96.2242 51.8016 96.2242 52.1397C96.2242 52.4777 96.4971 52.7517 96.8338 52.7517Z" fill="#D6D7D8"/>
<path d="M96.8338 57.386C97.1705 57.386 97.4434 57.112 97.4434 56.7739C97.4434 56.4359 97.1705 56.1619 96.8338 56.1619C96.4971 56.1619 96.2242 56.4359 96.2242 56.7739C96.2242 57.112 96.4971 57.386 96.8338 57.386Z" fill="#D6D7D8"/>
<path d="M96.8338 62.0202C97.1705 62.0202 97.4434 61.7461 97.4434 61.4081C97.4434 61.0701 97.1705 60.796 96.8338 60.796C96.4971 60.796 96.2242 61.0701 96.2242 61.4081C96.2242 61.7461 96.4971 62.0202 96.8338 62.0202Z" fill="#D6D7D8"/>
<path d="M96.8338 66.6544C97.1705 66.6544 97.4434 66.3804 97.4434 66.0424C97.4434 65.7043 97.1705 65.4303 96.8338 65.4303C96.4971 65.4303 96.2242 65.7043 96.2242 66.0424C96.2242 66.3804 96.4971 66.6544 96.8338 66.6544Z" fill="#D6D7D8"/>
<path d="M97.7593 20.1538C100.908 20.1538 103.461 17.5907 103.461 14.4288C103.461 11.267 100.908 8.70386 97.7593 8.70386C94.61 8.70386 92.0571 11.267 92.0571 14.4288C92.0571 17.5907 94.61 20.1538 97.7593 20.1538Z" fill="#FDB4B4"/>
<path d="M100.748 7.74567C101.021 8.30361 100.587 9.00054 100.014 9.23512C99.4405 9.46969 98.7926 9.37465 98.1811 9.277C97.5695 9.17936 96.9207 9.08677 96.3489 9.3255C95.6091 9.63439 95.192 10.4092 94.8327 11.1283C94.1618 12.4706 93.4909 13.8129 92.82 15.1552C92.4922 15.811 92.157 16.4963 92.1507 17.23C92.1391 18.5769 93.2033 19.6532 93.7758 20.8712C94.473 22.3543 94.4155 24.1717 93.626 25.6074C92.8366 27.043 91.3354 28.0602 89.714 28.258C89.2873 28.3101 88.8358 28.3044 88.4523 28.1098C88.0687 27.9153 87.776 27.4903 87.847 27.0648C87.9859 26.2325 89.2526 26.038 89.4853 25.2271C89.6067 24.8037 89.3916 24.3517 89.1017 24.021C88.8117 23.6904 88.4451 23.4325 88.1685 23.0904C87.5308 22.3018 87.4883 21.0844 88.0695 20.2529C88.411 19.7642 88.9393 19.4011 89.16 18.8468C89.3482 18.3743 89.2799 17.8432 89.2086 17.3394C89.117 16.6921 89.0255 16.0447 88.9339 15.3973C88.8271 14.642 88.7219 13.8597 88.933 13.1269C89.4168 11.4475 91.3055 10.6588 92.4131 9.30989C92.9277 8.68305 93.274 7.92919 93.802 7.31364C94.6881 6.28066 96.0831 5.71082 97.4357 5.82928C98.7884 5.94774 100.064 6.75145 100.759 7.92285" fill="#363648"/>
<path d="M99.8474 7.85156C99.5688 7.95159 99.4654 8.31589 99.5456 8.60182C99.6258 8.88774 99.8358 9.11493 100.028 9.34076C102.202 11.8949 102.707 15.7583 101.264 18.7893C100.88 19.5956 100.368 20.3543 100.161 21.2234C100.011 21.8558 100.019 22.5494 99.6692 23.0969C99.3135 23.6543 98.6085 24.0277 98.5388 24.686C98.4941 25.1084 98.7505 25.5188 99.0943 25.7664C99.4381 26.0141 99.8581 26.1274 100.271 26.2198C101.344 26.46 102.442 26.5911 103.542 26.6105C103.9 26.6168 104.27 26.609 104.599 26.4656C104.928 26.3222 105.209 26.0112 105.212 25.6512C105.215 25.3683 105.053 25.1073 105.032 24.8252C104.97 23.9797 106.103 23.5299 106.324 22.7117C106.469 22.1737 106.183 21.6201 105.878 21.1542C105.574 20.6883 105.226 20.199 105.234 19.6417C105.241 19.1082 105.574 18.6384 105.704 18.1209C105.883 17.4052 105.663 16.6565 105.444 15.9518C105.259 15.3527 105.073 14.7536 104.887 14.1545C104.69 13.5176 104.492 12.8807 104.295 12.2439C103.95 11.132 103.589 9.98795 102.843 9.09619C102.097 8.20443 100.861 7.61995 99.7594 7.98404" fill="#363648"/>
<path d="M103.733 30.036L103.342 29.9217C104.156 27.1186 102.401 21.8878 102.383 21.8353L102.768 21.7034C102.843 21.9228 104.583 27.1102 103.733 30.036Z" fill="#3F3C57"/>
<path d="M103.538 33.2556C104.477 33.2556 105.238 32.4912 105.238 31.5483C105.238 30.6053 104.477 29.8409 103.538 29.8409C102.598 29.8409 101.837 30.6053 101.837 31.5483C101.837 32.4912 102.598 33.2556 103.538 33.2556Z" fill="#3F3C57"/>
<path d="M92.3639 37.5928H91.3326C91.2201 37.5928 91.1291 37.5013 91.1291 37.3884C91.1291 37.2755 91.2201 37.184 91.3326 37.184H92.3639C92.6482 37.184 92.9152 37.0729 93.1159 36.8709C93.3165 36.669 93.4268 36.4007 93.4262 36.1155L93.4137 29.7377C93.4137 28.3522 92.2914 27.2254 90.9118 27.2254C89.5322 27.2254 88.4097 28.3522 88.4097 29.7373L88.4222 35.7069C88.4234 36.2893 88.8963 36.7667 89.4764 36.7712L90.1842 36.7766C90.2966 36.7775 90.387 36.8696 90.3862 36.9826C90.3854 37.0948 90.2944 37.1853 90.1827 37.1853H90.1811L89.4732 37.1799C88.6709 37.1738 88.0167 36.5132 88.0151 35.7077L88.0026 29.7377C88.0026 28.1269 89.3076 26.8167 90.9118 26.8167C92.5158 26.8167 93.8208 28.1269 93.8208 29.7373L93.8334 36.1147C93.8342 36.5093 93.6817 36.8804 93.404 37.1596C93.1265 37.4389 92.7569 37.5928 92.3639 37.5928Z" fill="#3F3C57"/>
<path d="M90.1827 37.7053C90.5812 37.7053 90.9042 37.381 90.9042 36.981C90.9042 36.5809 90.5812 36.2566 90.1827 36.2566C89.7843 36.2566 89.4612 36.5809 89.4612 36.981C89.4612 37.381 89.7843 37.7053 90.1827 37.7053Z" fill="#3F3C57"/>
<path d="M91.3326 38.1128C91.7311 38.1128 92.0541 37.7885 92.0541 37.3884C92.0541 36.9884 91.7311 36.6641 91.3326 36.6641C90.9341 36.6641 90.6111 36.9884 90.6111 37.3884C90.6111 37.7885 90.9341 38.1128 91.3326 38.1128Z" fill="#3F3C57"/>
<path d="M49.6824 26.9725L49.2916 26.8582C50.1059 24.0552 48.3699 18.7433 48.3522 18.6908L48.8407 19.0605C48.9153 19.28 50.5325 24.0468 49.6824 26.9725Z" fill="#3F3C57"/>
<path d="M35.9444 27.4705L36.3352 27.3561C35.5209 24.5531 37.2766 19.3223 37.2943 19.2698L36.8763 19.5509C36.8017 19.7704 35.0944 24.5447 35.9444 27.4705Z" fill="#3F3C57"/>
<path d="M49.4871 30.1921C50.4262 30.1921 51.1876 29.4277 51.1876 28.4848C51.1876 27.5419 50.4262 26.7775 49.4871 26.7775C48.5479 26.7775 47.7865 27.5419 47.7865 28.4848C47.7865 29.4277 48.5479 30.1921 49.4871 30.1921Z" fill="#3F3C57"/>
<path d="M37.7573 37.9701H36.726C36.6135 37.9701 36.5225 37.8786 36.5225 37.7657C36.5225 37.6529 36.6135 37.5614 36.726 37.5614H37.7573C38.0416 37.5614 38.3086 37.4502 38.5093 37.2482C38.7099 37.0463 38.8202 36.778 38.8196 36.4928L38.8071 30.1151C38.8071 28.7296 37.6848 27.6027 36.3052 27.6027C34.9256 27.6027 33.8031 28.7296 33.8031 30.1147L33.8156 36.0843C33.8168 36.6666 34.2897 37.144 34.8698 37.1485L35.5776 37.1539C35.69 37.1548 35.7804 37.2469 35.7796 37.3599C35.7788 37.4721 35.6878 37.5627 35.5761 37.5627H35.5745L34.8666 37.5573C34.0643 37.5511 33.4101 36.8906 33.4085 36.0851L33.396 30.1151C33.396 28.5042 34.701 27.194 36.3052 27.194C37.9092 27.194 39.2142 28.5042 39.2142 30.1147L39.2268 36.492C39.2276 36.8866 39.0751 37.2577 38.7974 37.5369C38.5199 37.8162 38.1503 37.9701 37.7573 37.9701Z" fill="#3F3C57"/>
<path d="M35.5761 38.0826C35.9746 38.0826 36.2976 37.7583 36.2976 37.3583C36.2976 36.9582 35.9746 36.6339 35.5761 36.6339C35.1777 36.6339 34.8546 36.9582 34.8546 37.3583C34.8546 37.7583 35.1777 38.0826 35.5761 38.0826Z" fill="#3F3C57"/>
<path d="M36.726 38.4901C37.1244 38.4901 37.4474 38.1658 37.4474 37.7657C37.4474 37.3657 37.1244 37.0414 36.726 37.0414C36.3275 37.0414 36.0045 37.3657 36.0045 37.7657C36.0045 38.1658 36.3275 38.4901 36.726 38.4901Z" fill="#3F3C57"/>
</g>
<defs>
<clipPath id="clip0_135_682">
<rect width="141" height="122" fill="white"/>
</clipPath>
</defs>
</svg>
