<svg width="96" height="86" viewBox="0 0 96 86" fill="none" xmlns="http://www.w3.org/2000/svg">
<circle cx="61.0682" cy="33.6137" r="23.0682" fill="#DB992F"/>
<ellipse cx="72.9318" cy="23.7273" rx="23.0682" ry="23.7273" fill="#2A2A2A"/>
<path d="M52.7 53.9395C50.5915 51.3853 47.6892 49.61 44.455 48.8961C43.7183 45.6095 42.4433 42.7761 40.5733 40.4245C40.5167 40.3395 40.46 40.2545 40.4033 40.1978C34.17 32.6611 23.97 32.6895 17.085 36.5995C11.1917 39.9711 6.17667 47.0828 8.81167 57.2261C2.77667 58.6995 0 63.9695 0 68.7295C0 74.0561 3.485 80.0345 11.2483 80.6011H40.6583C44.6817 80.6011 48.535 79.0995 51.51 76.3795C58.6217 70.0895 57.6867 59.8328 52.7 53.9395Z" fill="#555555"/>
<path d="M65.4656 64.0672C63.7666 62.009 61.4279 60.5785 58.8218 60.0033C58.2282 57.3549 57.2008 55.0718 55.694 53.1768C55.6483 53.1083 55.6026 53.0398 55.557 52.9942C50.5342 46.9211 42.315 46.944 36.7671 50.0946C32.0182 52.8115 27.9772 58.5421 30.1004 66.7156C25.2374 67.9028 23 72.1494 23 75.985C23 80.2772 25.8082 85.0945 32.0639 85.5511H55.7624C59.0044 85.5511 62.1095 84.3411 64.5067 82.1493C70.2373 77.0808 69.4839 68.816 65.4656 64.0672Z" fill="#868686"/>
</svg>
