<svg width="123" height="110" viewBox="0 0 123 110" fill="none" xmlns="http://www.w3.org/2000/svg">
<path d="M22.6059 101.456C22.6059 101.456 14.9883 95.6868 13.5493 88.3489C12.9657 85.2669 11.4004 82.4576 9.08811 80.3422C7.98196 79.347 6.78725 78.4554 5.51891 77.6783" stroke="#535461" stroke-width="2" stroke-miterlimit="10"/>
<path d="M4.58676 73.0555C5.25434 73.9601 5.55628 77.7935 5.55628 77.7935C5.55628 77.7935 1.98708 76.3853 1.31811 75.4821C0.99688 75.0479 0.860993 74.5037 0.940344 73.9691C1.0197 73.4345 1.30778 72.9535 1.74123 72.6317C2.17468 72.3099 2.71799 72.1738 3.25163 72.2532C3.78527 72.3327 4.26553 72.6213 4.58676 73.0555Z" fill="#FF7723"/>
<path d="M10.9883 76.0634C11.0576 77.1858 9.23352 80.5683 9.23352 80.5683C9.23352 80.5683 6.99947 77.4411 6.92884 76.3187C6.90197 75.7836 7.08667 75.2595 7.44292 74.8598C7.79916 74.4602 8.29825 74.2173 8.83205 74.1837C9.36585 74.1501 9.89136 74.3286 10.2947 74.6804C10.6981 75.0323 10.9468 75.5292 10.987 76.0634H10.9883Z" fill="#FF7723"/>
<path d="M17.1933 84.7097C16.6891 85.7142 13.408 87.712 13.408 87.712C13.408 87.712 13.0576 83.8828 13.5617 82.8783C13.8099 82.406 14.2333 82.0501 14.7408 81.8872C15.2483 81.7244 15.7993 81.7677 16.2752 82.0077C16.7512 82.2477 17.1141 82.6653 17.2858 83.1707C17.4575 83.676 17.4242 84.2287 17.1933 84.7097Z" fill="#FF7723"/>
<path d="M20.4189 92.3072C20.0907 93.3825 17.1946 95.9062 17.1946 95.9062C17.1946 95.9062 16.2015 92.1921 16.5298 91.1155C16.6875 90.5988 17.0437 90.1662 17.52 89.9126C17.9962 89.659 18.5535 89.6054 19.0692 89.7634C19.5849 89.9215 20.0169 90.2783 20.27 90.7553C20.5231 91.2324 20.5767 91.7906 20.4189 92.3072Z" fill="#FF7723"/>
<path d="M5.93168 83.2877C7.03969 83.4375 10.5424 81.8531 10.5424 81.8531C10.5424 81.8531 7.58678 79.4002 6.47322 79.2503C5.93875 79.1784 5.39765 79.3221 4.96894 79.6498C4.54024 79.9775 4.25905 80.4624 4.18724 80.9978C4.11543 81.5331 4.25887 82.0752 4.58601 82.5046C4.91316 82.9341 5.39721 83.2157 5.93168 83.2877Z" fill="#FF7723"/>
<path d="M9.81656 92.1268C10.9246 91.9368 13.7874 89.377 13.7874 89.377C13.7874 89.377 10.2334 87.923 9.12682 88.1131C8.86186 88.1566 8.60814 88.2522 8.38028 88.3945C8.15243 88.5367 7.95495 88.7228 7.79926 88.9419C7.64357 89.161 7.53274 89.4088 7.47317 89.6711C7.41361 89.9333 7.40648 90.2048 7.4522 90.4698C7.49793 90.7348 7.5956 90.9882 7.73958 91.2152C7.88356 91.4422 8.071 91.6384 8.29108 91.7924C8.51115 91.9465 8.75951 92.0554 9.02181 92.1127C9.28412 92.1701 9.55517 92.1749 9.81933 92.1268H9.81656Z" fill="#FF7723"/>
<path d="M14.7681 100.2C15.8913 100.2 19.1461 98.162 19.1461 98.162C19.1461 98.162 15.8899 96.1267 14.7667 96.1267C14.2274 96.1267 13.7103 96.3413 13.329 96.7232C12.9477 97.1052 12.7335 97.6232 12.7335 98.1634C12.7335 98.7036 12.9477 99.2216 13.329 99.6036C13.7103 99.9855 14.2274 100.2 14.7667 100.2H14.7681Z" fill="#FF7723"/>
<path d="M96.6077 51.5605C96.6077 51.5605 101.303 43.2292 108.38 40.829C111.352 39.8403 113.924 37.913 115.71 35.3362C116.548 34.1043 117.27 32.7979 117.869 31.4335" stroke="#535461" stroke-width="2" stroke-miterlimit="10"/>
<path d="M122.312 29.9074C121.506 30.6899 117.754 31.5001 117.754 31.5001C117.754 31.5001 118.675 27.768 119.481 26.9841C119.87 26.6192 120.387 26.422 120.92 26.4348C121.453 26.4476 121.959 26.6695 122.33 27.0528C122.701 27.436 122.907 27.9499 122.904 28.4838C122.901 29.0177 122.688 29.5289 122.312 29.9074Z" fill="#FF7723"/>
<path d="M120.19 36.6543C119.082 36.8735 115.499 35.5111 115.499 35.5111C115.499 35.5111 118.297 32.875 119.398 32.6599C119.663 32.6012 119.936 32.5959 120.202 32.6444C120.469 32.693 120.723 32.7943 120.95 32.9426C121.177 33.0908 121.372 33.283 121.523 33.5077C121.675 33.7325 121.78 33.9853 121.833 34.2514C121.886 34.5175 121.885 34.7914 121.831 35.0572C121.776 35.3229 121.669 35.5751 121.516 35.799C121.363 36.0228 121.167 36.2138 120.94 36.3606C120.712 36.5075 120.457 36.6074 120.19 36.6543Z" fill="#FF7723"/>
<path d="M112.468 43.9631C111.407 43.5955 108.995 40.6042 108.995 40.6042C108.995 40.6042 112.735 39.7468 113.799 40.1145C114.054 40.1994 114.29 40.3343 114.493 40.5114C114.697 40.6885 114.862 40.9043 114.982 41.1461C115.101 41.388 115.171 41.6512 115.188 41.9204C115.205 42.1896 115.168 42.4594 115.08 42.7143C114.992 42.9692 114.854 43.2039 114.674 43.405C114.495 43.6061 114.277 43.7695 114.034 43.8857C113.791 44.0018 113.528 44.0685 113.259 44.0818C112.99 44.0951 112.721 44.0548 112.468 43.9631Z" fill="#FF7723"/>
<path d="M105.371 48.1752C104.263 47.9921 101.387 45.4462 101.387 45.4462C101.387 45.4462 104.932 43.9672 106.038 44.1503C106.571 44.2381 107.047 44.5342 107.362 44.9736C107.676 45.4129 107.804 45.9594 107.716 46.493C107.629 47.0265 107.333 47.5034 106.895 47.8186C106.456 48.1338 105.91 48.2616 105.378 48.1738L105.371 48.1752Z" fill="#FF7723"/>
<path d="M112.371 32.5933C112.369 33.7185 114.407 36.9831 114.407 36.9831C114.407 36.9831 116.441 33.7227 116.441 32.5989C116.448 32.327 116.401 32.0565 116.302 31.8033C116.203 31.5501 116.054 31.3193 115.865 31.1245C115.676 30.9297 115.449 30.7749 115.199 30.6692C114.949 30.5635 114.68 30.509 114.409 30.509C114.137 30.509 113.868 30.5635 113.618 30.6692C113.368 30.7749 113.142 30.9297 112.952 31.1245C112.763 31.3193 112.614 31.5501 112.515 31.8033C112.416 32.0565 112.369 32.327 112.376 32.5989L112.371 32.5933Z" fill="#FF7723"/>
<path d="M104.139 37.624C104.475 38.6978 107.389 41.2021 107.389 41.2021C107.389 41.2021 108.358 37.4811 108.02 36.4072C107.845 35.9097 107.484 35.4997 107.013 35.2636C106.542 35.0275 105.998 34.9836 105.495 35.1413C104.993 35.299 104.571 35.6459 104.318 36.109C104.066 36.5721 104.003 37.1152 104.142 37.624H104.139Z" fill="#FF7723"/>
<path d="M96.8168 43.6136C96.9664 44.7235 99.4151 47.6884 99.4151 47.6884C99.4151 47.6884 100.995 44.1852 100.846 43.0711C100.816 42.8012 100.733 42.5399 100.601 42.3027C100.469 42.0654 100.291 41.8571 100.077 41.6897C99.8639 41.5224 99.6191 41.3996 99.3575 41.3285C99.0959 41.2573 98.8227 41.2393 98.554 41.2755C98.2853 41.3117 98.0266 41.4013 97.793 41.5391C97.5594 41.6769 97.3557 41.8602 97.1938 42.078C97.0319 42.2959 96.9152 42.5439 96.8505 42.8076C96.7857 43.0713 96.7743 43.3454 96.8168 43.6136Z" fill="#FF7723"/>
<path opacity="0.25" d="M122.312 29.9074C121.506 30.6899 117.754 31.5001 117.754 31.5001C117.754 31.5001 118.675 27.768 119.481 26.9841C119.87 26.6192 120.387 26.422 120.92 26.4348C121.453 26.4476 121.959 26.6695 122.33 27.0528C122.701 27.436 122.907 27.9499 122.904 28.4838C122.901 29.0177 122.688 29.5289 122.312 29.9074Z" fill="black"/>
<path opacity="0.25" d="M120.19 36.6543C119.082 36.8735 115.499 35.5111 115.499 35.5111C115.499 35.5111 118.297 32.875 119.398 32.6599C119.663 32.6012 119.936 32.5959 120.202 32.6444C120.469 32.693 120.723 32.7943 120.95 32.9426C121.177 33.0908 121.372 33.283 121.523 33.5077C121.675 33.7325 121.78 33.9853 121.833 34.2514C121.886 34.5175 121.885 34.7914 121.831 35.0572C121.776 35.3229 121.669 35.5751 121.516 35.799C121.363 36.0228 121.167 36.2138 120.94 36.3606C120.712 36.5075 120.457 36.6074 120.19 36.6543Z" fill="black"/>
<path opacity="0.25" d="M112.468 43.9631C111.407 43.5955 108.995 40.6042 108.995 40.6042C108.995 40.6042 112.735 39.7468 113.799 40.1145C114.054 40.1994 114.29 40.3343 114.493 40.5114C114.697 40.6885 114.862 40.9043 114.982 41.1461C115.101 41.388 115.171 41.6512 115.188 41.9204C115.205 42.1896 115.168 42.4594 115.08 42.7143C114.992 42.9692 114.854 43.2039 114.674 43.405C114.495 43.6061 114.277 43.7695 114.034 43.8857C113.791 44.0018 113.528 44.0685 113.259 44.0818C112.99 44.0951 112.721 44.0548 112.468 43.9631Z" fill="black"/>
<path opacity="0.25" d="M105.371 48.1752C104.263 47.9921 101.387 45.4462 101.387 45.4462C101.387 45.4462 104.932 43.9672 106.038 44.1503C106.571 44.2381 107.047 44.5342 107.362 44.9736C107.676 45.4129 107.804 45.9594 107.716 46.493C107.629 47.0265 107.333 47.5034 106.895 47.8186C106.456 48.1338 105.91 48.2616 105.378 48.1738L105.371 48.1752Z" fill="black"/>
<path opacity="0.25" d="M112.371 32.5933C112.369 33.7185 114.407 36.9831 114.407 36.9831C114.407 36.9831 116.441 33.7227 116.441 32.5989C116.448 32.327 116.401 32.0565 116.302 31.8033C116.203 31.5501 116.054 31.3193 115.865 31.1245C115.676 30.9297 115.449 30.7749 115.199 30.6692C114.949 30.5635 114.68 30.509 114.409 30.509C114.137 30.509 113.868 30.5635 113.618 30.6692C113.368 30.7749 113.142 30.9297 112.952 31.1245C112.763 31.3193 112.614 31.5501 112.515 31.8033C112.416 32.0565 112.369 32.327 112.376 32.5989L112.371 32.5933Z" fill="black"/>
<path opacity="0.25" d="M104.139 37.624C104.475 38.6978 107.389 41.2021 107.389 41.2021C107.389 41.2021 108.358 37.4811 108.02 36.4072C107.845 35.9097 107.484 35.4997 107.013 35.2636C106.542 35.0275 105.998 34.9836 105.495 35.1413C104.993 35.299 104.571 35.6459 104.318 36.109C104.066 36.5721 104.003 37.1152 104.142 37.624H104.139Z" fill="black"/>
<path opacity="0.25" d="M96.8168 43.6136C96.9664 44.7235 99.4151 47.6884 99.4151 47.6884C99.4151 47.6884 100.995 44.1852 100.846 43.0711C100.816 42.8012 100.733 42.5399 100.601 42.3027C100.469 42.0654 100.291 41.8571 100.077 41.6897C99.8639 41.5224 99.6191 41.3996 99.3575 41.3285C99.0959 41.2573 98.8227 41.2393 98.554 41.2755C98.2853 41.3117 98.0266 41.4013 97.793 41.5391C97.5594 41.6769 97.3557 41.8602 97.1938 42.078C97.0319 42.2959 96.9152 42.5439 96.8505 42.8076C96.7857 43.0713 96.7743 43.3454 96.8168 43.6136Z" fill="black"/>
<path d="M96.8778 51.3954C96.8778 51.3954 97.8002 41.8723 103.293 36.8083C105.61 34.6978 107.182 31.8919 107.772 28.8113C108.041 27.3468 108.175 25.8606 108.173 24.3716" stroke="#535461" stroke-width="2" stroke-miterlimit="10"/>
<path d="M111.616 21.1583C111.2 22.2017 108.092 24.4659 108.092 24.4659C108.092 24.4659 107.425 20.6797 107.844 19.6364C108.046 19.1354 108.439 18.7353 108.935 18.5242C109.432 18.313 109.992 18.3081 110.492 18.5105C110.992 18.7129 111.391 19.106 111.602 19.6033C111.813 20.1007 111.818 20.6615 111.616 21.1625V21.1583Z" fill="#FF7723"/>
<path d="M112.407 28.1953C111.488 28.8418 107.656 29.0541 107.656 29.0541C107.656 29.0541 109.149 25.5106 110.067 24.8641C110.285 24.7008 110.533 24.583 110.797 24.5176C111.061 24.4522 111.336 24.4405 111.605 24.4832C111.873 24.526 112.131 24.6223 112.361 24.7665C112.592 24.9106 112.792 25.0997 112.948 25.3226C113.105 25.5454 113.215 25.7974 113.273 26.0637C113.33 26.33 113.334 26.6052 113.283 26.8729C113.233 27.1407 113.129 27.3955 112.979 27.6224C112.828 27.8493 112.634 28.0437 112.407 28.1939V28.1953Z" fill="#FF7723"/>
<path d="M108.299 38.0154C107.179 38.1097 103.764 36.3505 103.764 36.3505C103.764 36.3505 106.839 34.0474 107.958 33.9531C108.495 33.9078 109.029 34.0783 109.441 34.4269C109.853 34.7756 110.109 35.2739 110.155 35.8122C110.2 36.3505 110.03 36.8848 109.681 37.2975C109.333 37.7101 108.836 37.9674 108.299 38.0126V38.0154Z" fill="#FF7723"/>
<path d="M103.519 44.7428C102.432 45.0203 98.7697 43.8729 98.7697 43.8729C98.7697 43.8729 101.411 41.0829 102.498 40.7998C103.02 40.6642 103.575 40.7419 104.039 41.0158C104.504 41.2896 104.841 41.7372 104.977 42.2601C105.112 42.783 105.034 43.3383 104.761 43.8039C104.488 44.2695 104.041 44.6072 103.519 44.7428Z" fill="#FF7723"/>
<path d="M103.616 27.6569C104.07 28.6849 107.247 30.8479 107.247 30.8479C107.247 30.8479 107.788 27.0409 107.333 26.0128C107.107 25.5318 106.702 25.1586 106.204 24.9729C105.707 24.7871 105.157 24.8037 104.671 25.0189C104.186 25.2341 103.804 25.631 103.607 26.1247C103.409 26.6184 103.413 27.1698 103.616 27.661V27.6569Z" fill="#FF7723"/>
<path d="M98.1256 35.5956C98.8666 36.4405 102.542 37.5476 102.542 37.5476C102.542 37.5476 101.922 33.7531 101.181 32.9082C101.006 32.7029 100.792 32.5345 100.552 32.4128C100.311 32.291 100.049 32.2184 99.7805 32.199C99.5118 32.1796 99.2419 32.2139 98.9865 32.2999C98.7312 32.3859 98.4954 32.5219 98.293 32.7C98.0906 32.878 97.9255 33.0946 97.8073 33.3371C97.6892 33.5797 97.6203 33.8433 97.6047 34.1127C97.5892 34.3821 97.6272 34.6519 97.7166 34.9065C97.806 35.1611 97.9451 35.3953 98.1256 35.5956Z" fill="#FF7723"/>
<path d="M93.8473 44.0477C94.4346 45.005 97.8708 46.7184 97.8708 46.7184C97.8708 46.7184 97.8999 42.8739 97.3168 41.9153C97.0265 41.4726 96.5756 41.1606 96.0595 41.0454C95.5435 40.9303 95.0029 41.021 94.5525 41.2984C94.1022 41.5758 93.7773 42.018 93.647 42.5312C93.5166 43.0445 93.591 43.5884 93.8543 44.0477H93.8473Z" fill="#FF7723"/>
<path d="M89.8141 14.1006C90.044 13.2557 90.321 12.4066 90.5149 11.5505C90.2822 12.4066 90.0038 13.2584 89.8141 14.1006Z" fill="url(#paint0_linear_135_748)"/>
<path d="M88.7837 22.2392C88.7643 22.2059 88.7505 22.1726 88.7352 22.142C88.7352 22.1282 88.7214 22.1171 88.7158 22.1032C88.6856 22.1175 88.6547 22.13 88.623 22.1407C88.5621 22.1642 88.4998 22.1864 88.4361 22.2045C88.3723 22.2225 88.346 22.2322 88.2975 22.2433C88.2574 22.2572 88.2161 22.2679 88.1743 22.2752L88.1854 22.3002C88.2366 22.2891 88.2865 22.2794 88.3377 22.2655L88.3516 22.4376C88.4097 22.4376 88.4638 22.4292 88.5164 22.4292C88.5413 22.4279 88.5663 22.4279 88.5912 22.4292C88.6992 22.4292 88.7934 22.4292 88.8682 22.4292C88.8391 22.3668 88.8086 22.3016 88.7837 22.2392ZM116.9 67.0703C116.249 66.1921 114.95 56.7661 114.95 56.7661C114.95 56.7661 112.394 50.0635 113.091 47.3886C113.788 44.7137 111.188 37.8696 111.188 37.8696C111.188 37.8696 109.47 37.1218 109.378 36.0119C109.378 36.0119 102.365 33.7921 102.037 32.1272C101.771 30.762 97.4221 29.7825 95.8598 29.4731C95.3833 27.5474 94.9041 25.7507 94.5509 24.7698C94.4554 24.4646 94.3653 24.2009 94.2822 23.9928C93.6853 22.4667 91.8404 22.328 90.5025 22.45C90.4445 22.1899 90.3368 21.9435 90.1853 21.7244C90.1632 21.6491 90.1194 21.582 90.0593 21.5316C90.0306 21.5071 90 21.4848 89.9679 21.465C89.9437 21.42 89.9118 21.3796 89.8737 21.3457C89.8357 21.3114 89.7939 21.2816 89.749 21.2569C89.7169 21.2394 89.6835 21.2241 89.6493 21.2111C89.5691 21.1805 89.486 21.1577 89.4014 21.1431C89.3028 21.1228 89.2028 21.1098 89.1022 21.1043C89.3467 20.9971 89.5647 20.8375 89.7407 20.6367C89.8605 20.4957 89.9497 20.3313 90.0025 20.1539C90.0464 20.0064 90.066 19.8527 90.0607 19.6988C90.0247 19.7622 89.983 19.8221 89.936 19.8778C89.9942 19.2632 89.6701 18.6388 89.4845 18.027C89.2596 17.2305 89.218 16.3932 89.3626 15.5782C89.5482 14.349 90.0081 13.1059 90.3197 11.8544C90.3205 11.8475 90.3205 11.8405 90.3197 11.8336C90.4831 11.2121 90.5843 10.5759 90.6216 9.93428C90.6756 8.63983 90.3446 7.34816 89.8128 6.16886C89.3405 5.12415 88.6438 4.09608 87.5773 3.67154C86.7851 3.35105 85.8973 3.40238 85.0441 3.34966C83.13 3.23034 81.3046 2.55606 79.4846 1.94283C77.6647 1.3296 75.7922 0.771863 73.8767 0.878693C71.9612 0.985524 69.9903 1.91092 69.1164 3.6091C68.8394 4.13909 68.6801 4.72874 68.3491 5.22682C67.7286 6.16609 66.6178 6.63642 65.6912 7.28434C64.7646 7.93225 63.9488 8.8521 63.6137 9.94954C63.4306 10.5408 63.4049 11.1697 63.5389 11.774C63.569 11.9104 63.6079 12.0448 63.6552 12.1763C63.7867 12.5429 63.9917 12.8786 64.2577 13.1628C64.4583 13.3728 64.6889 13.5518 64.9419 13.6941C65.2596 13.8706 65.5997 14.0031 65.953 14.0882C65.9405 14.1298 65.928 14.1742 65.9142 14.2172C65.892 14.2879 65.8726 14.3559 65.8519 14.4322C65.8062 14.6029 65.7632 14.7763 65.7272 14.9511C65.7258 14.9636 65.7258 14.9761 65.7272 14.9886C65.5571 15.7777 65.4717 16.5828 65.4724 17.3902C65.4721 17.772 65.4915 18.1536 65.5305 18.5334C66.0845 24.1635 70.7244 28.6046 76.457 28.8931C76.6537 28.9029 76.8517 28.9084 77.0525 28.9084C77.144 28.9084 77.234 28.9084 77.3295 28.9084C77.4196 29.0277 77.5082 29.1498 77.5927 29.2691C77.6772 29.3884 77.7548 29.5105 77.8282 29.6299L77.6273 29.4217L77.4265 29.2372C77.3721 29.3121 77.3114 29.3822 77.2451 29.4467C77.1141 29.4006 76.9804 29.3626 76.8448 29.333C76.27 29.2053 75.3947 29.1581 74.2423 29.5064C73.1828 29.8241 71.8878 30.4776 70.3726 31.7193L62.989 36.159L58.9946 38.5925L57.5556 42.1165C57.5556 42.1165 56.4739 46.3037 55.2703 51.1013C55.2232 51.1152 55.1775 51.1291 55.1318 51.1457C55.0343 51.1346 54.9363 51.129 54.8382 51.1291C54.1398 51.1274 53.4681 51.3969 52.9639 51.881C52.4598 52.365 52.1625 53.0259 52.1346 53.7249C49.7413 56.6384 49.6055 59.552 50.1679 60.8894C50.2188 61.0147 50.2829 61.1343 50.359 61.246C50.7274 61.7788 51.4158 63.1523 52.1138 64.616C52.0958 64.7367 52.0847 64.838 52.0792 64.9143C52.0779 64.9393 52.0779 64.9643 52.0792 64.9892C52.0792 64.9892 52.4947 71.2755 51.1097 73.0778C50.8064 73.4704 50.8521 73.9865 51.1097 74.5581C52.0376 76.6143 55.7066 79.3599 55.7066 79.3599C55.7066 79.3599 60.1068 79.3364 62.5583 79.0686C62.5514 79.3156 62.5458 79.5611 62.5403 79.8011C62.4849 82.2263 62.4849 84.2589 62.4849 84.2589L62.3935 86.802C62.3935 86.802 61.5625 92.1615 61.1469 93.6391C60.8852 94.5659 61.1871 103.147 61.4503 109.455H104.804C105.314 105.723 104.595 94.3841 104.595 94.3841C104.595 94.3841 103.912 91.4526 103.887 88.897C103.886 88.8941 103.885 88.8911 103.885 88.8879C103.885 88.8848 103.886 88.8817 103.887 88.8789C103.887 88.6555 103.887 88.4377 103.896 88.2241L104.21 88.213L104.775 88.1935H104.826C104.826 88.1935 104.84 88.1408 104.872 88.0548C104.947 87.8405 105.049 87.6368 105.175 87.4485C105.416 87.0919 105.793 86.7423 106.36 86.7187C106.673 86.7062 107.157 86.4523 107.704 86.0778C107.708 86.0786 107.712 86.0786 107.716 86.0778C109.188 85.0802 111.134 83.2391 111.606 82.9367C112.256 82.5204 115.366 79.7456 115.366 79.7456C115.366 79.7456 115.83 79.1574 116.325 78.4484L116.343 78.4234C116.958 77.5355 117.612 76.4741 117.451 76.1398C117.174 75.5404 117.636 74.1072 117.636 74.1072C119.081 71.4587 117.551 67.9485 116.9 67.0703ZM90.1175 24.3966C90.1307 24.438 90.1391 24.4808 90.1424 24.5242C90.1078 24.4784 90.0731 24.4299 90.0385 24.3855L90.0053 24.3411L89.9817 24.3078L90.0344 24.2356C90.0344 24.2356 90.0344 24.2356 90.0344 24.2453C90.0709 24.2903 90.0991 24.3416 90.1175 24.3966ZM89.6521 23.1673C89.5011 23.1979 89.382 23.2256 89.3045 23.2464C89.2061 23.0716 89.1119 22.8968 89.0275 22.7192C89.2495 22.8482 89.4587 22.9983 89.6521 23.1673ZM89.3917 23.3865C89.3913 23.3838 89.3913 23.381 89.3917 23.3782L89.4028 23.3865C89.4596 23.424 89.515 23.4601 89.5662 23.4975C89.6119 23.5308 89.6535 23.5627 89.695 23.596C89.6673 23.6446 89.6369 23.6945 89.6064 23.7348C89.5579 23.6585 89.5122 23.5849 89.4679 23.5086C89.4402 23.4781 89.4153 23.4365 89.3917 23.3865ZM88.5607 21.6745C88.8283 21.648 89.0978 21.648 89.3654 21.6745C89.4028 21.6745 89.436 21.6814 89.4693 21.687C89.5444 21.6986 89.6181 21.7177 89.6895 21.7439C89.8532 21.9732 89.9539 22.2416 89.9817 22.5222L89.9069 22.5333L89.8335 22.5472C89.695 22.5707 89.5565 22.5943 89.4485 22.6165L89.31 22.6457C89.1258 22.6859 89.0191 22.7164 89.015 22.7178C88.997 22.6804 88.979 22.6457 88.9596 22.6096C88.9291 22.5499 88.8973 22.4889 88.8696 22.4292C88.8419 22.3696 88.8059 22.3016 88.7768 22.2392C88.7574 22.2059 88.7435 22.1726 88.7283 22.142C88.7283 22.1282 88.7144 22.1171 88.7089 22.1032C88.7008 22.0885 88.6939 22.0732 88.6881 22.0574C88.6036 21.8854 88.5261 21.7133 88.4513 21.5441C88.443 21.5274 88.4361 21.5094 88.4291 21.4927L88.5344 21.4858V21.5219L88.5607 21.6745ZM55.5154 107.741C55.5044 105.675 55.3548 103.44 54.9393 101.342C54.762 100.45 54.5792 99.5578 54.3936 98.6809C54.3465 98.4617 54.3008 98.2453 54.2551 98.0288L53.8285 98.0857H53.7897C52.6263 92.5902 51.4102 87.7482 51.4102 87.7482C51.4102 87.7482 48.9948 78.5095 49.2745 77.7728C49.3105 77.677 49.2648 77.419 49.1623 77.0402C48.5779 74.9397 46.1374 69.1514 45.2843 67.173C45.2843 67.1647 45.2773 67.155 45.2746 67.148C45.1361 66.8164 45.0364 66.5931 45.0059 66.5279L45.2067 63.5755L45.2178 63.3979L45.2441 63.0205L45.233 63.0108L45.2441 62.836C45.2441 62.836 43.1361 61.1045 39.5655 59.8544C39.427 59.8045 39.2802 59.7559 39.1348 59.7088C39.3134 58.5142 39.5503 57.1657 39.8591 55.8518C39.8882 55.72 39.9201 55.5923 39.9533 55.4633C39.9824 55.3343 40.0156 55.2094 40.0489 55.0832C40.1015 54.8778 40.1583 54.6753 40.2165 54.4755C40.409 54.4144 40.5987 54.3465 40.7857 54.2743L40.8577 54.2466C43.1612 53.3487 45.0618 51.6452 46.2077 49.4515C47.3536 47.2578 47.6672 44.7224 47.0903 42.3149C46.7614 40.9495 46.1541 39.667 45.3064 38.5481C45.2427 38.4621 45.1749 38.376 45.107 38.2914C45.0391 38.2068 44.9574 38.1124 44.8812 38.0264C45.2815 37.1149 45.7538 36.2478 45.7926 35.3612C45.7995 35.2489 45.7995 35.1364 45.7926 35.0241V35.0102C45.7413 34.44 45.4893 33.8628 44.902 33.2565C44.0447 32.3672 42.8245 31.9163 41.6043 31.6999C40.3841 31.4834 39.1403 31.4779 37.9132 31.3322C35.8786 31.088 33.8966 30.4595 31.862 30.2667C29.3559 30.0342 26.8328 30.4648 24.5449 31.5153C23.0311 32.209 21.4979 33.4216 21.4065 35.0851C21.3317 36.46 22.2874 37.7781 22.0464 39.1363C21.8068 40.471 20.4494 41.5213 20.5685 42.8712C20.6142 43.3984 20.8843 43.8702 21.2223 44.2906C21.3386 44.4293 21.4619 44.568 21.5893 44.7068C22.0824 45.2298 22.6253 45.7321 22.9009 46.3911C22.912 46.4188 22.9231 46.4466 22.9328 46.4743C23.1668 47.125 23.0616 47.9477 22.4826 48.321C22.4858 48.3234 22.4883 48.3268 22.4896 48.3307C22.4979 48.3418 22.5062 48.3501 22.5131 48.3612C22.514 48.359 22.514 48.3565 22.5131 48.3543C22.7184 48.598 22.9951 48.7708 23.304 48.8482L23.4217 48.8842C23.3261 48.9883 23.2361 49.0965 23.1447 49.2103L23.0851 49.2894C22.9325 49.4949 22.7937 49.7105 22.6696 49.9345C22.599 50.0594 22.5311 50.1842 22.4743 50.3091C22.2845 50.6897 22.147 51.0944 22.0658 51.512C21.9176 52.4304 22.1267 53.3878 21.9023 54.2868C21.6253 55.3967 20.7486 56.2486 20.2541 57.2794C19.3179 59.2218 19.8483 61.5013 20.0367 63.6462C20.2929 66.5598 19.8774 69.4858 19.4633 72.3799C19.2435 73.919 19.0238 75.4595 18.804 77.0014C18.25 80.8713 17.696 84.7412 17.142 88.6112C16.9398 90.0291 16.7002 91.5247 15.757 92.6194H15.7667C15.7667 92.6194 15.7667 92.6277 15.757 92.6305C16.0401 92.7544 16.3412 92.8322 16.6489 92.8608C17.8802 92.9842 19.1849 92.3877 20.2929 91.7356C21.1704 91.2277 22.0014 90.6432 22.7763 89.9888C22.6627 90.4051 22.5408 90.8587 22.4106 91.3471C22.4111 91.3517 22.4111 91.3564 22.4106 91.361C20.8469 97.3268 18.3317 108.264 18.3317 108.264C18.3317 108.264 18.1032 108.74 17.8068 109.449H56.8644C56.4074 108.894 55.9822 108.362 55.6498 107.934L55.5154 107.741ZM26.5962 52.5775C26.6059 52.5609 26.6128 52.5456 26.6225 52.5303C26.6225 52.5747 26.6225 52.6177 26.6225 52.6594C26.6225 52.701 26.6225 52.7384 26.6225 52.7773C26.6225 52.8161 26.6225 52.812 26.6225 52.8314C26.6225 52.8883 26.61 52.9452 26.6003 53.0021C26.6003 53.0021 26.6003 53.009 26.6003 53.0145L26.7388 53.0659L26.8995 53.1325C27.8487 53.508 28.8099 53.8479 29.7831 54.1522C29.8828 54.1841 29.9839 54.2146 30.085 54.2438L30.1058 54.4158C30.1307 54.592 30.1543 54.771 30.1764 54.95C30.1764 54.95 30.1764 54.9583 30.1764 54.9638C30.2388 55.4591 30.2997 55.9531 30.3537 56.4359C30.3537 56.4359 27.8108 55.4647 27.8427 56.9395C27.8412 56.9658 27.8412 56.9922 27.8427 57.0186C27.8399 57.0537 27.8399 57.0889 27.8427 57.124C27.8662 58.2728 28.2249 58.954 28.297 59.3036C28.2927 59.3181 28.2851 59.3314 28.2748 59.3425C28.2134 59.4764 28.1922 59.6254 28.2139 59.7712C28.2115 60.0194 28.2309 60.2673 28.272 60.5121C28.1972 60.5579 28.1238 60.6036 28.0504 60.6508C27.995 60.6855 27.9424 60.7243 27.8884 60.7632C27.5486 59.5826 27.1041 58.4348 26.5601 57.3335C26.1793 56.5483 25.7513 55.7297 25.7555 54.8681C25.7555 54.8126 25.7555 54.7557 25.7624 54.6988C25.7778 54.4491 25.8253 54.2025 25.9037 53.9649C25.9355 53.8747 25.9701 53.7859 26.0089 53.6985C26.0994 53.4908 26.2007 53.288 26.3122 53.0909C26.3843 52.9604 26.4604 52.8314 26.5338 52.701C26.5574 52.6621 26.5795 52.6219 26.6017 52.5831L26.5962 52.5775ZM88.7837 22.2392C88.7643 22.2059 88.7505 22.1726 88.7352 22.142C88.7352 22.1282 88.7214 22.1171 88.7158 22.1032C88.6856 22.1175 88.6547 22.13 88.623 22.1407C88.5621 22.1642 88.4998 22.1864 88.4361 22.2045C88.3723 22.2225 88.346 22.2322 88.2975 22.2433L88.1743 22.2752L88.1854 22.3002C88.2366 22.2891 88.2865 22.2794 88.3377 22.2655L88.3516 22.4376C88.4097 22.4376 88.4638 22.4292 88.5164 22.4292H88.5912C88.6992 22.4292 88.7934 22.4292 88.8682 22.4292C88.8391 22.3668 88.8086 22.3016 88.7837 22.2392Z" fill="url(#paint1_linear_135_748)"/>
<path d="M58.521 42.6173L57.69 42.985C57.69 42.985 52.2731 64.0652 52.2731 65.7689C52.2731 67.4727 63.7591 76.9528 63.7591 76.9528L65.5514 64.8352C65.5514 64.8352 62.978 37.0469 58.521 42.6173Z" fill="#E8F5FF"/>
<path d="M83.7159 35.912L78.9168 33.4036C78.6479 32.2557 78.171 31.167 77.5096 30.1917C76.8074 29.1761 75.8739 28.1786 74.7104 27.6583C71.77 26.3375 87.1479 19.4047 87.1479 19.4047C87.3902 20.2375 87.6754 21.0572 88.0025 21.8604C88.7947 23.8194 90.1091 26.3528 91.803 27.0742C94.6825 28.3021 83.7159 35.912 83.7159 35.912Z" fill="#FFC1C7"/>
<path opacity="0.1" d="M88.0025 21.8604C87.3454 24.1752 85.979 26.2249 84.0962 27.7198C82.2135 29.2147 79.9094 30.0794 77.5096 30.1917C76.8074 29.1761 75.8739 28.1786 74.7104 27.6583C71.77 26.3375 87.1479 19.4047 87.1479 19.4047C87.3902 20.2375 87.6754 21.0572 88.0025 21.8604Z" fill="black"/>
<path d="M88.4346 18.36C88.4352 20.6303 87.7636 22.8498 86.5048 24.7377C85.246 26.6257 83.4566 28.0972 81.3629 28.9664C79.2691 29.8355 76.9651 30.0631 74.7421 29.6204C72.5192 29.1778 70.4773 28.0847 68.8746 26.4794C67.2719 24.8742 66.1805 22.8288 65.7383 20.6022C65.2961 18.3755 65.523 16.0675 66.3904 13.97C67.2578 11.8725 68.7266 10.0798 70.6112 8.81867C72.4957 7.5575 74.7113 6.88449 76.9777 6.88477C78.4841 6.87779 79.9769 7.16983 81.37 7.74402C82.7631 8.31822 84.0288 9.16319 85.094 10.2301C86.1593 11.2971 87.003 12.5649 87.5763 13.9603C88.1497 15.3557 88.4414 16.851 88.4346 18.36Z" fill="#FFC1C7"/>
<path d="M90.0883 34.4386L86.9637 41.7419L84.2075 46.5895H75.3849L72.8115 39.9618L73.8545 33.0886H80.5926L84.943 32.8431L86.4125 32.3519L87.3598 32.8902L90.0883 34.4386Z" fill="#FF7723"/>
<path opacity="0.1" d="M89.0122 24.7032C89.0122 24.7032 90.9609 25.1194 89.2158 26.5526C87.4707 27.9858 81.45 32.5434 81.45 32.5434C81.45 32.5434 83.5649 34.4303 83.1272 36.6404L90.1341 32.7279L91.3806 26.468C91.3806 26.468 91.5205 24.5867 89.0122 24.7032Z" fill="black"/>
<path opacity="0.1" d="M82.828 32.5433L78.371 33.28C78.371 33.28 79.2907 36.6861 78.8309 37.6531C78.817 37.6832 78.8054 37.7143 78.7962 37.7461L76.9777 42.67L78.3405 46.5367L83.0579 40.0922L81.4499 37.6531C81.4499 37.6531 83.1494 35.3972 84.1604 34.6147C85.1715 33.8322 82.828 32.5433 82.828 32.5433Z" fill="black"/>
<path d="M82.828 32.3534L78.371 33.0887C78.371 33.0887 79.2907 36.4948 78.8309 37.4618C78.817 37.4919 78.8054 37.5229 78.7962 37.5548L76.9777 42.4787L78.3405 46.3454L83.0579 39.8967L81.4499 37.4577C81.4499 37.4577 83.1494 35.2017 84.1604 34.4192C85.1715 33.6367 82.828 32.3534 82.828 32.3534Z" fill="#DCE6F2"/>
<path d="M89.1992 24.3355C89.1992 24.3355 91.1479 24.7517 89.4014 26.1849C87.6549 27.6181 81.45 32.5434 81.45 32.5434C81.45 32.5434 83.7477 34.0626 83.3114 36.2714L90.3183 32.3603L91.5648 26.1003C91.5648 26.1003 91.7033 24.219 89.1992 24.3355Z" fill="#FF7723"/>
<path opacity="0.1" d="M77.8157 30.6261C77.8157 30.6261 78.2409 31.4225 80.1176 32.8584C80.1176 32.8584 76.993 34.5233 78.1883 36.8639L73.4086 35.6152L72.6731 33.3135L77.8157 30.6261Z" fill="black"/>
<path d="M77.6315 30.4429C77.6315 30.4429 78.0567 31.2392 79.9334 32.6752C79.9334 32.6752 76.8088 34.3318 78.004 36.6793L73.2257 35.4306L72.4903 33.1303L77.6315 30.4429Z" fill="#FF7723"/>
<path opacity="0.1" d="M90.0883 34.4386L86.9637 41.7419L84.2131 46.5895H75.3849L72.8115 39.9619L73.8531 33.0887H75.727C75.6965 34.6925 76.281 36.5766 76.2436 37.2772C76.1799 38.4288 77.9583 44.6416 77.9583 44.6416C77.9583 44.6416 81.6798 38.6119 83.1494 38.075C84.0732 37.7378 86.0302 34.9325 87.3584 32.8903L90.0883 34.4386Z" fill="black"/>
<path d="M102.397 72.8711L102.08 73.2706C102.08 73.2706 104.378 84.8235 103.742 87.4471C103.634 87.92 103.572 88.4023 103.558 88.8872V88.9081C103.445 91.5774 104.25 95.0418 104.25 95.0418C104.25 95.0418 104.893 105.253 104.527 109.453H61.5056C61.2535 103.243 60.982 95.1972 61.2286 94.3051C61.6441 92.833 62.4751 87.4929 62.4751 87.4929L62.5665 84.9623C62.5665 84.9623 62.5665 82.5163 62.6413 79.7914C62.6732 78.5664 62.7203 77.2802 62.7881 76.1398C62.8754 74.7052 62.9973 73.4968 63.1649 72.903C63.2681 72.4529 63.3274 71.9938 63.3421 71.5322C63.3421 71.4892 63.3421 71.4448 63.3504 71.4004C63.3504 71.2617 63.3643 71.1118 63.3698 70.9578C63.3698 70.9148 63.3698 70.8718 63.3698 70.8191C63.3961 69.9256 63.3864 68.8656 63.3574 67.7668C63.3574 67.7071 63.3574 67.6461 63.3574 67.5851C63.3338 66.7609 63.2992 65.9202 63.2604 65.121C63.1399 62.6237 62.9834 60.5121 62.9834 60.5121L57.6995 42.9753L59.1233 39.4624L63.0748 37.0372L70.3808 32.6183C73.9445 29.684 76.2907 30.0364 77.1854 30.3582C77.2723 30.3879 77.3574 30.4227 77.4403 30.4623C77.468 30.4762 77.4901 30.4873 77.5109 30.4998C77.5394 30.5133 77.5667 30.529 77.5926 30.5469C77.3476 30.665 77.1348 30.8406 76.9721 31.0589C76.7889 31.3072 76.6584 31.5905 76.5885 31.8913C76.5417 32.0778 76.5088 32.2674 76.4901 32.4588C76.4721 32.6599 76.4652 32.8681 76.4652 33.0776C76.4751 33.537 76.5144 33.9953 76.5829 34.4497C76.5829 34.458 76.5829 34.4691 76.5829 34.4802C76.6286 34.8049 76.6854 35.1226 76.7408 35.4209C76.7402 35.4259 76.7402 35.4311 76.7408 35.4361C76.8046 35.7844 76.8683 36.1063 76.9112 36.3837C76.9195 36.4337 76.9264 36.4795 76.9334 36.5225C76.9639 36.7058 76.9783 36.8915 76.9763 37.0774C76.9919 37.5263 77.0522 37.9725 77.1563 38.4093C77.1924 38.5925 77.2339 38.7881 77.2796 38.9921C77.3419 39.2695 77.4098 39.572 77.4832 39.88C77.5234 40.0493 77.5663 40.2241 77.6106 40.3975C77.6273 40.4669 77.6453 40.5362 77.6619 40.607L77.6896 40.7166C77.9846 41.8917 78.3045 43.0613 78.5012 43.7689C78.6175 44.1851 78.691 44.4418 78.691 44.4418C78.691 44.4418 80.7768 41.0634 82.4416 39.1405C82.4665 39.1128 82.4887 39.0864 82.5122 39.0614C82.677 38.8714 82.8391 38.6979 82.9942 38.5453C83.3335 38.2068 83.6383 37.9654 83.8834 37.8766C83.9357 37.8574 83.9862 37.8337 84.0344 37.8058C84.7158 37.4187 85.8155 36.0133 86.8446 34.5413C86.9457 34.4025 87.044 34.2513 87.1437 34.1084C87.3723 33.7782 87.5939 33.4466 87.803 33.1289C87.9637 32.8861 88.1174 32.6502 88.2628 32.4255C88.9554 31.3461 89.4429 30.5414 89.4429 30.5414L90.4041 30.4984L90.5717 30.49H90.6839L95.0481 30.2875C95.0481 30.2875 95.2364 30.3194 95.5467 30.3818C95.5633 30.3818 95.5799 30.3818 95.5979 30.3929C97.1464 30.7009 101.448 31.6763 101.711 33.029C102.033 34.6856 108.972 36.8957 108.972 36.8957C109.063 38.0056 110.763 38.7368 110.763 38.7368C110.763 38.7368 113.336 45.5489 112.648 48.2183C111.968 50.8544 114.418 57.3751 114.483 57.5583L114.013 58.1521L102.397 72.8711Z" fill="#E8F5FF"/>
<path opacity="0.1" d="M89.0108 24.2189C89.0108 24.2189 93.2587 23.0118 94.2241 25.4967C95.1894 27.9815 97.3487 38.0166 97.3487 38.0166C97.3487 38.0166 91.7421 39.0752 90.2726 38.0166C89.4106 37.3884 88.3438 37.1089 87.2851 37.2341L84.1148 39.3971L83.1785 39.1196C83.1785 39.1196 88.2505 31.5666 89.3529 28.9999C90.4554 26.4332 90.828 25.2858 89.0108 24.2189Z" fill="black"/>
<path d="M88.8266 23.664C88.8266 23.664 93.0773 22.4569 94.0468 24.9418C95.0163 27.4266 97.1714 37.4617 97.1714 37.4617C97.1714 37.4617 91.5662 38.5203 90.0953 37.4617C89.2339 36.8334 88.1674 36.5539 87.1092 36.6792L83.9361 38.8421L82.9999 38.5647C82.9999 38.5647 88.0718 31.0116 89.1743 28.4449C90.2768 25.8783 90.6438 24.7336 88.8266 23.664Z" fill="#E8F5FF"/>
<path opacity="0.1" d="M60.3132 63.6975C60.3132 63.6975 63.4835 64.48 64.0818 66.2753C64.6802 68.0706 61.7384 68.1164 61.7384 68.1164C61.7384 68.1164 59.9462 64.9406 60.3132 63.6975Z" fill="black"/>
<path opacity="0.1" d="M72.1219 76.9528C72.1219 76.9528 64.3575 92.8788 66.1497 94.398C67.9419 95.9172 72.1219 76.9528 72.1219 76.9528Z" fill="black"/>
<path opacity="0.1" d="M82.8281 65.2167C82.8281 65.2167 89.0316 80.6862 87.7906 83.0753C86.5496 85.4644 90.4554 83.0753 90.4554 83.0753L82.8281 65.2167Z" fill="black"/>
<path d="M91.4665 80.4977C91.4665 80.4977 70.5138 81.5105 76.6259 88.0465C82.738 94.5826 95.2808 88.324 95.2808 88.324L91.4665 80.4977Z" fill="#FFC1C7"/>
<path opacity="0.1" d="M88.4346 18.36C88.4365 19.8653 88.1414 21.3562 87.5662 22.7469C87.3737 22.7691 87.1812 22.783 86.9956 22.7913C86.7186 22.1823 86.8668 21.4788 86.8723 20.8087C86.8779 20.1386 86.6313 19.3506 85.9873 19.1702C84.7034 18.8081 83.817 21.2125 82.5511 20.7782C81.5815 20.448 81.835 18.9746 81.2768 18.1241C80.835 17.4512 79.95 17.2611 79.2616 16.8394C77.7977 15.9389 77.842 14.4988 77.1619 13.1364C76.45 11.7088 74.9459 12.1305 73.6398 12.9727C72.6481 13.6137 71.7922 14.4725 70.7313 14.983C69.813 15.427 68.7812 15.5879 67.7632 15.6115C67.1364 15.6358 66.5095 15.5695 65.9017 15.4145C66.6166 12.7221 68.2848 10.3821 70.595 8.83082C72.9052 7.27956 75.6998 6.62297 78.4577 6.9835C81.2156 7.34402 83.7484 8.69705 85.5838 10.7903C87.4193 12.8835 88.432 15.5739 88.4332 18.36H88.4346Z" fill="black"/>
<path d="M73.644 12.605C72.651 13.2459 71.7964 14.1034 70.7355 14.6167C69.8172 15.0593 68.7854 15.2202 67.7674 15.2438C66.5209 15.2715 65.1788 15.0523 64.327 14.1505C63.5444 13.3181 63.3575 12.0375 63.6885 10.9456C64.0195 9.85374 64.8131 8.94776 65.7452 8.29152C66.6774 7.63528 67.7591 7.1816 68.3768 6.24233C68.7036 5.74564 68.8615 5.16015 69.133 4.63155C70.0014 2.94031 71.9543 2.02462 73.8421 1.91085C75.7299 1.79709 77.601 2.36037 79.3988 2.97083C81.1966 3.58129 83.0082 4.25279 84.9056 4.37904C85.7505 4.43177 86.6286 4.37904 87.4125 4.69953C88.4665 5.12824 89.1577 6.15353 89.6286 7.19686C90.1563 8.37338 90.4845 9.65811 90.4291 10.9428C90.3128 13.6857 88.5039 16.3773 89.2989 19.0051C89.5095 19.7057 89.9042 20.4244 89.6937 21.125C89.3862 22.1475 88.069 22.3806 87.004 22.4292C86.727 21.8201 86.8752 21.1153 86.8807 20.4466C86.8862 19.7778 86.6397 18.9884 85.997 18.808C84.7117 18.4487 83.8253 20.8489 82.5622 20.416C81.5996 20.0845 81.8489 18.6124 81.2894 17.7619C80.8475 17.0877 79.9611 16.899 79.2741 16.4772C77.8102 15.5768 77.8545 14.1367 77.1744 12.7742C76.457 11.3396 74.9515 11.7614 73.644 12.605Z" fill="#4A3942"/>
<path d="M53.3271 65.4L52.2703 65.769C52.2703 65.769 52.6858 72.029 51.3008 73.8243C49.9158 75.6196 55.8492 80.0829 55.8492 80.0829C55.8492 80.0829 63.9821 80.0371 64.212 79.3892C64.4419 78.7412 63.7965 67.7905 63.7965 67.7905C63.7965 67.7905 59.4309 66.0867 59.7979 63.3716C59.7979 63.3716 58.4655 69.7689 56.4905 69.4928C54.5155 69.2167 52.2731 67.5643 53.3271 65.4Z" fill="#E8F5FF"/>
<path opacity="0.1" d="M56.852 71.4296C58.3918 71.4296 59.6401 70.286 59.6401 68.8754C59.6401 67.4647 58.3918 66.3212 56.852 66.3212C55.3122 66.3212 54.064 67.4647 54.064 68.8754C54.064 70.286 55.3122 71.4296 56.852 71.4296Z" fill="black"/>
<path d="M59.9004 65.5844C59.9004 65.5844 59.3464 48.647 54.5238 52.4208C49.7011 56.1945 49.654 60.7077 50.5723 62.041C51.4906 63.3743 54.4351 70.0491 54.4351 70.0491C54.8957 70.3165 55.413 70.4708 55.9446 70.4993C56.4762 70.5278 57.007 70.4298 57.4934 70.2132C57.9799 69.9966 58.4082 69.6677 58.7433 69.2533C59.0784 68.8389 59.3107 68.3509 59.4212 67.8293L59.9004 65.5844Z" fill="#FFC1C7"/>
<path opacity="0.1" d="M89.9845 22.6817C89.962 22.6073 89.9187 22.5408 89.8598 22.4902C89.6216 22.2724 89.1091 22.1961 88.3363 22.2627L88.3681 22.6289C89.3986 22.5402 89.6022 22.7455 89.6285 22.7802V22.8149L89.6604 22.8606C89.7889 23.0336 89.8799 23.2316 89.9276 23.4418C89.9753 23.652 89.9786 23.8699 89.9374 24.0816C89.7116 25.2123 88.3252 26.1127 88.3114 26.1224L88.2781 26.1419L88.2573 26.1738C87.659 27.0631 84.2754 29.5729 83.3904 30.2222L83.3128 30.1334C82.9167 30.4775 79.4347 33.5312 79.2464 34.7007C79.1245 35.4347 78.299 35.7191 77.9999 35.7982C77.6841 35.5582 76.6592 34.741 76.1259 33.8253C75.6259 32.9637 77.6384 31.2822 77.8156 30.6259L77.5386 30.3415C77.5096 30.447 74.9251 32.8666 75.6439 34.1028C76.2201 35.0948 77.2727 35.9439 77.6411 36.2241C77.5234 37.2952 76.7907 43.5843 75.6647 45.0744C74.2658 46.9265 73.09 56.261 73.2201 59.52C73.3351 62.4155 72.5803 67.8847 70.0595 70.2335C69.6231 70.658 69.0966 70.9783 68.5194 71.1705C67.9421 71.3627 67.329 71.4218 66.7258 71.3435H66.6953H66.6648C66.6288 71.3435 62.9724 71.7181 59.9004 69.1236C57.3866 67.0051 55.9628 63.5476 55.6664 58.8443H55.6054L55.5805 57.475C56.2621 57.3684 56.8759 57.0014 57.293 56.451C57.7101 55.9006 57.898 55.2096 57.8172 54.5234C57.7364 53.8371 57.3932 53.2089 56.8597 52.7708C56.3262 52.3327 55.644 52.1188 54.9564 52.174C54.2687 52.2292 53.6292 52.5492 53.1722 53.0668C52.7152 53.5844 52.4763 54.2594 52.5056 54.9498C52.5349 55.6402 52.8303 56.2923 53.3296 56.7691C53.8288 57.246 54.4932 57.5104 55.183 57.5069H55.2135L55.2384 58.8679L55.1165 58.8763C55.4212 63.7322 56.917 67.3242 59.5486 69.5426C61.5487 71.2029 64.1036 72.0405 66.6967 71.8859C66.8807 71.9061 67.0656 71.9163 67.2507 71.9165C68.4393 71.9226 69.5829 71.4619 70.4363 70.6331C73.0913 68.1566 73.8988 62.4863 73.7728 59.4923C73.6343 56.039 74.8683 47.0403 76.1065 45.4018C77.3198 43.7938 78.0553 37.5283 78.1841 36.3143C78.6231 36.1908 79.6162 35.801 79.7852 34.7882C79.907 34.0556 82.2325 31.7983 83.6632 30.5482L83.6203 30.4983C84.3903 29.935 86.7851 28.1591 87.972 27.0187C88.3404 26.6649 88.7061 26.3111 89.0884 25.974C89.5482 25.5661 90.1327 24.9182 90.2864 24.1523C90.3388 23.8995 90.3391 23.6386 90.2871 23.3857C90.2352 23.1328 90.1322 22.8932 89.9845 22.6817Z" fill="black"/>
<path d="M77.5941 36.1368C77.5359 36.0966 76.1564 35.1074 75.4653 33.917C74.7479 32.6808 77.3323 30.2625 77.36 30.1571L77.637 30.4415C77.4611 31.0964 75.4487 32.7793 75.9487 33.6395C76.5789 34.7258 77.9057 35.6762 77.9196 35.6859L77.5941 36.1368Z" fill="#353146"/>
<path d="M83.2103 30.4913L82.9942 30.193C83.0386 30.1611 87.3889 27.0089 88.0745 25.9892L88.0967 25.9587L88.1285 25.9379C88.1424 25.9281 89.5288 25.0291 89.7545 23.897C89.7962 23.6856 89.793 23.4678 89.7453 23.2578C89.6976 23.0477 89.6064 22.85 89.4775 22.6775L89.4457 22.6303V22.597C89.418 22.5609 89.2144 22.357 88.1839 22.4458L88.1521 22.0781C88.9263 22.0115 89.4374 22.0878 89.6756 22.3056C89.7349 22.3568 89.7786 22.4236 89.8016 22.4985C89.9514 22.7094 90.0564 22.9489 90.1103 23.202C90.1641 23.4552 90.1656 23.7168 90.1146 23.9705C89.9609 24.7378 89.3778 25.3857 88.9166 25.7922C88.5357 26.1293 88.1687 26.4859 87.8016 26.8369C86.4097 28.173 83.3626 30.3817 83.2103 30.4913Z" fill="#E8F5FF"/>
<path d="M55.4017 56.9919L55.0348 56.9987L55.0757 59.2334L55.4426 59.2267L55.4017 56.9919Z" fill="#E8F5FF"/>
<path d="M55.0044 57.3307C56.4845 57.3307 57.6844 56.1287 57.6844 54.6461C57.6844 53.1634 56.4845 51.9614 55.0044 51.9614C53.5242 51.9614 52.3243 53.1634 52.3243 54.6461C52.3243 56.1287 53.5242 57.3307 55.0044 57.3307Z" fill="#FF7723"/>
<path d="M55.0044 56.8757C56.2336 56.8757 57.2301 55.8775 57.2301 54.6462C57.2301 53.4148 56.2336 52.4166 55.0044 52.4166C53.7751 52.4166 52.7786 53.4148 52.7786 54.6462C52.7786 55.8775 53.7751 56.8757 55.0044 56.8757Z" fill="#E8F5FF"/>
<path d="M67.0762 71.7375C66.8911 71.7378 66.7062 71.7281 66.5222 71.7084C63.9293 71.8614 61.375 71.024 59.3741 69.3651C56.7425 67.1452 55.2495 63.5574 54.942 58.6973L55.496 58.6626C55.7924 63.3659 57.2162 66.8247 59.7314 68.9419C62.8034 71.5294 66.4585 71.1618 66.4945 71.1618H66.525H66.5554C67.1589 71.2397 67.7721 71.1804 68.3495 70.9882C68.9269 70.7961 69.4537 70.476 69.8906 70.0518C72.4099 67.703 73.1648 62.2338 73.0498 59.3383C72.9113 56.0765 74.0872 46.7421 75.4874 44.8913C76.7132 43.2694 77.4736 35.9592 77.4819 35.8856L77.5027 35.6775L77.7076 35.6414C77.7201 35.6414 78.9168 35.4139 79.0663 34.5177C79.2603 33.3495 82.7367 30.2958 83.1314 29.9503L83.4929 30.3665C82.0566 31.6152 79.7312 33.8739 79.6148 34.6078C79.4458 35.6234 78.4528 36.0119 78.0151 36.134C77.8766 37.3493 77.1467 43.6135 75.9376 45.2215C74.6994 46.86 73.4653 55.8587 73.6038 59.3119C73.7229 62.306 72.9238 67.9777 70.2687 70.4528C69.4137 71.2836 68.2673 71.745 67.0762 71.7375Z" fill="#353146"/>
<g opacity="0.1">
<path d="M89.6147 15.0801C89.8419 14.2393 90.1161 13.393 90.3072 12.5411C90.0787 13.3972 89.8031 14.2393 89.6147 15.0801Z" fill="black"/>
<path d="M87.2976 21.6869C87.0206 21.0778 87.1688 20.373 87.1743 19.7043C87.1799 19.0356 86.9333 18.2531 86.2907 18.0658C85.0054 17.7064 84.119 20.108 82.8558 19.6738C81.8863 19.3422 82.1425 17.8702 81.583 17.0197C81.1412 16.3454 80.2561 16.1567 79.5692 15.7349C78.1038 14.8345 78.1481 13.3944 77.4695 12.032C76.7562 10.6029 75.2534 11.0247 73.946 11.8682C72.9529 12.5092 72.0983 13.368 71.0374 13.88C70.1191 14.3226 69.0873 14.4835 68.0693 14.5071C66.8297 14.5362 65.4807 14.3156 64.6289 13.4138C63.9724 12.7201 63.7356 11.7031 63.8713 10.75C63.8478 10.8152 63.827 10.8804 63.8062 10.9456C63.4738 12.0375 63.6677 13.3209 64.4447 14.1505C65.2965 15.0523 66.6455 15.2715 67.8851 15.2438C68.9045 15.2202 69.9349 15.0593 70.8546 14.6167C71.9183 14.1034 72.7728 13.2459 73.7631 12.605C75.0706 11.7614 76.5747 11.3396 77.2866 12.7687C77.9653 14.1311 77.9224 15.5712 79.3863 16.4717C80.0788 16.8879 80.9583 17.0821 81.4015 17.7564C81.9556 18.6096 81.7104 20.0789 82.6744 20.4105C83.9361 20.8434 84.8225 18.4432 86.1078 18.8025C86.7505 18.9829 86.9984 19.7737 86.9915 20.441C86.9846 21.1084 86.8405 21.8145 87.1148 22.4236C88.1798 22.3751 89.497 22.1461 89.8059 21.1195C89.8484 20.9721 89.868 20.8191 89.864 20.6658C89.4139 21.4441 88.256 21.6439 87.2976 21.6869Z" fill="black"/>
</g>
<path opacity="0.1" d="M112.329 55.8726L113.937 57.5764C113.937 57.5764 115.224 66.9649 115.866 67.8431C116.509 68.7214 118.027 72.2148 116.602 74.8384C116.602 74.8384 116.142 76.2661 116.418 76.864C116.693 77.462 114.351 80.4546 114.351 80.4546C114.351 80.4546 111.272 83.2156 110.628 83.6304C109.984 84.0452 106.585 87.3584 105.437 87.4041C104.289 87.4499 103.914 88.8776 103.914 88.8776L97.4346 89.1079C97.4346 89.1079 93.8557 88.9206 93.0773 89.427C93.0773 89.427 93.4928 83.9495 89.4942 80.3589L94.5939 78.5178C94.5939 78.5178 96.5246 77.6854 97.1215 76.8155C97.4971 76.2822 98.0298 75.88 98.6451 75.6653C98.6451 75.6653 100.069 74.6525 100.115 74.1003C100.16 73.5481 101.856 72.8711 101.856 72.8711L100.896 64.6646L101.401 51.0403C101.401 51.0403 103.009 39.6247 106.41 40.2699C109.81 40.915 112.329 55.8726 112.329 55.8726Z" fill="black"/>
<path d="M112.883 55.8726L114.491 57.5764C114.491 57.5764 115.778 66.9649 116.42 67.8431C117.063 68.7214 118.581 72.2148 117.156 74.8384C117.156 74.8384 116.697 76.2661 116.973 76.864C117.249 77.462 114.905 80.4546 114.905 80.4546C114.905 80.4546 111.826 83.2156 111.182 83.6304C110.538 84.0452 107.139 87.3584 105.991 87.4041C104.843 87.4499 104.468 88.8776 104.468 88.8776L97.9886 89.1079C97.9886 89.1079 94.4069 88.9206 93.6313 89.427C93.6313 89.427 94.0468 83.9495 90.0482 80.3589L95.1479 78.5178C95.1479 78.5178 97.0786 77.6854 97.6756 76.8155C98.0511 76.2822 98.5838 75.88 99.1991 75.6653C99.1991 75.6653 100.623 74.6525 100.669 74.1003C100.714 73.5481 102.41 72.8711 102.41 72.8711L101.45 64.6646L101.955 51.0403C101.955 51.0403 103.563 39.6247 106.964 40.2699C110.364 40.915 112.883 55.8726 112.883 55.8726Z" fill="#E8F5FF"/>
<path opacity="0.1" d="M106.905 69.6356C106.905 69.6356 111.638 68.3869 112.879 69.9131C114.12 71.4392 106.905 69.6356 106.905 69.6356Z" fill="black"/>
<path opacity="0.1" d="M105.803 71.7291C107.411 72.8571 112.373 72.9029 112.373 72.9029L105.803 71.7291Z" fill="black"/>
<path opacity="0.1" d="M108.238 77.3676C108.376 77.4133 111.649 80.9124 113.023 79.8538C114.397 78.7952 108.238 77.3676 108.238 77.3676Z" fill="black"/>
<path opacity="0.1" d="M64.1607 48.0018C64.1607 48.0018 65.1219 54.6308 64.6483 57.3307C64.1746 60.0306 65.9031 63.3757 65.9031 63.3757L64.1607 48.0018Z" fill="black"/>
<path d="M42.8812 50.6976C41.7732 51.5675 40.9643 53.6264 40.3784 55.8892C39.3563 59.8364 39.0225 64.4135 39.0225 64.4135C39.0225 64.4135 30.1999 62.3878 30.8426 61.468C31.247 60.8895 30.7041 56.5302 30.2512 53.3697C29.9811 51.5023 29.7401 50.0524 29.7401 50.0524C29.7401 50.0524 45.9144 48.3029 42.8812 50.6976Z" fill="#FFCCD0"/>
<path opacity="0.1" d="M42.8812 50.513C41.7732 51.3843 40.9643 53.4418 40.3784 55.7047C38.6206 56.2394 36.7512 56.2876 34.9682 55.8443C33.1853 55.4009 31.5553 54.4826 30.2512 53.1866C29.9811 51.3177 29.7401 49.8679 29.7401 49.8679C29.7401 49.8679 45.9144 48.1198 42.8812 50.513Z" fill="black"/>
<path d="M47.6236 45.5545C47.6246 47.9676 46.7732 50.3033 45.2203 52.1481C43.6673 53.9929 41.513 55.2279 39.1384 55.6346C36.7639 56.0412 34.3223 55.5932 32.2457 54.37C30.1692 53.1467 28.5916 51.227 27.7922 48.9506C26.9928 46.6742 27.0231 44.1879 27.8777 41.9317C28.7324 39.6756 30.3563 37.795 32.462 36.6229C34.5677 35.4507 37.0195 35.0626 39.3834 35.5272C41.7474 35.9918 43.871 37.2791 45.3785 39.1613C46.8312 40.9744 47.6232 43.2296 47.6236 45.5545Z" fill="#FFCCD0"/>
<path opacity="0.1" d="M55.6678 109.453H52.7593L52.5141 104.307L52.2579 98.9806C52.2579 98.9806 52.9185 98.8821 53.9712 98.735L54.3964 98.6781H54.431C54.6609 99.7589 54.888 100.869 55.1069 101.977C55.4711 103.945 55.6607 105.942 55.6734 107.943C55.6734 108.082 55.6734 108.221 55.6734 108.351C55.6817 108.722 55.6734 109.092 55.6678 109.453Z" fill="black"/>
<path d="M55.1096 109.453H18.6337C18.7916 109.093 18.8968 108.875 18.8968 108.875C18.8968 108.875 21.8151 96.0864 23.2984 90.6755C23.2989 90.6709 23.2989 90.6663 23.2984 90.6617C23.4838 89.9266 23.7075 89.2019 23.9688 88.4904C23.9857 88.442 24.0075 88.3955 24.0339 88.3516C24.7679 87.1557 25.6876 85.8668 24.4009 84.0257C23.1142 82.1846 23.5699 74.0836 23.5699 74.0836C23.5699 74.0836 25.1322 67.1785 26.7859 63.4963C27.0369 62.9259 27.3931 62.4082 27.8358 61.9701C27.9797 61.8291 28.1334 61.6984 28.2956 61.5789C28.4189 61.486 28.5475 61.4003 28.6806 61.3222L28.707 61.3056C29.4016 60.911 30.1731 60.6711 30.9687 60.6022C31.5339 60.543 32.1043 60.5588 32.6653 60.6493C35.3468 61.0434 37.4935 61.7024 39.1999 62.453C43.8245 64.4883 45.2247 67.2159 45.2524 67.2728L45.2635 67.2964C45.4491 67.7306 48.1638 74.0794 49.1416 77.0415C49.395 77.8129 49.5335 78.3554 49.4781 78.5038C49.2011 79.2392 51.5917 88.4446 51.5917 88.4446C51.5917 88.4446 52.6997 92.8843 53.8077 98.0884C53.8562 98.3049 53.9019 98.5213 53.9462 98.7405C54.1443 99.6853 54.341 100.648 54.5307 101.61C54.8983 103.591 55.0879 105.602 55.0972 107.617C55.1175 108.245 55.1216 108.857 55.1096 109.453Z" fill="#FF7723"/>
<path opacity="0.1" d="M30.7512 57.4362C30.7512 57.4362 28.2346 56.465 28.2651 57.9385C28.2956 59.4119 28.8787 60.1167 28.6945 60.3317C28.5103 60.5468 28.7859 61.8357 28.7859 61.8357C28.7859 61.8357 32.1861 61.8357 33.7484 62.5405C35.3107 63.2453 41.0697 64.6577 41.8051 65.0878C42.5405 65.5179 45.2677 67.4463 45.2677 67.4463L45.5128 63.7947C45.5128 63.7947 42.6943 61.4625 38.0697 60.2665C33.4451 59.0706 30.7512 57.4362 30.7512 57.4362Z" fill="black"/>
<path d="M30.7512 57.2517C30.7512 57.2517 28.2346 56.2805 28.2651 57.7539C28.2956 59.2273 28.8787 59.9321 28.6945 60.1472C28.5103 60.3622 28.7859 61.6511 28.7859 61.6511C28.7859 61.6511 32.1861 61.6511 33.7484 62.3573C35.3107 63.0635 41.0697 64.4745 41.8051 64.9032C42.5405 65.3319 45.2677 67.2618 45.2677 67.2618L45.5156 63.6212C45.5156 63.6212 42.6971 61.289 38.0725 60.0931C33.4479 58.8971 30.7512 57.2517 30.7512 57.2517Z" fill="#FF7723"/>
<path opacity="0.1" d="M38.348 66.0394C38.348 66.0394 43.1568 71.2547 42.9116 72.699C42.6665 74.1433 38.348 66.0394 38.348 66.0394Z" fill="black"/>
<path opacity="0.1" d="M30.5365 84.879C30.5365 84.879 27.0116 88.1325 25.9729 88.317C24.9341 88.5015 26.7693 89.1148 27.9631 88.625C29.157 88.1353 31.7027 86.8464 31.7027 86.8464L30.5365 84.879Z" fill="black"/>
<path d="M56.5418 109.453H48.3217C47.1721 108.454 46.0848 107.528 45.3923 106.972C44.2843 106.081 43.4852 104.77 42.9755 103.716C42.8605 103.476 42.7608 103.251 42.6763 103.047C42.525 102.696 42.3919 102.337 42.2774 101.972L48.3646 98.3507C48.701 98.6373 49.0171 98.947 49.3106 99.2775L49.384 99.3621C49.7219 99.7617 50.0197 100.215 50.046 100.587C50.0765 101.02 51.2787 102.695 52.5072 104.303C53.7537 105.938 55.0307 107.502 55.1152 107.607C55.1152 107.607 55.3257 107.895 55.6692 108.336C55.9116 108.655 56.2107 109.038 56.5418 109.453Z" fill="#FFCCD0"/>
<path opacity="0.1" d="M45.3784 39.1614C45.0862 39.8218 44.8244 40.5071 44.7856 41.2425C44.6762 43.3652 44.8535 48.1115 42.5073 49.177C41.3452 49.7015 40.1015 48.5499 38.8273 48.5222C37.9104 48.5027 37.0697 49.0854 36.5101 49.8138C35.9506 50.5422 35.6029 51.4066 35.1971 52.2307C34.8277 52.9787 34.4022 53.6976 33.9243 54.3812C33.7814 54.5904 33.6241 54.7893 33.4534 54.9764C32.0227 54.3716 30.7488 53.4478 29.7286 52.2752C28.7083 51.1025 27.9688 49.7121 27.5663 48.2098C27.1638 46.7075 27.1089 45.133 27.4059 43.6062C27.7028 42.0795 28.3438 40.6408 29.2799 39.3998C30.216 38.1587 31.4225 37.1481 32.8076 36.4449C34.1927 35.7418 35.7197 35.3646 37.2723 35.3421C38.825 35.3197 40.3622 35.6525 41.767 36.3154C43.1718 36.9782 44.4069 37.9535 45.3784 39.1669V39.1614Z" fill="black"/>
<path d="M44.6014 40.8678C44.4906 42.9905 44.6693 47.7368 42.3217 48.8009C41.1597 49.3254 39.9159 48.1752 38.6417 48.1475C37.7248 48.1267 36.8855 48.7107 36.3245 49.4377C35.7636 50.1647 35.4187 51.0305 35.0115 51.856C34.642 52.604 34.2165 53.3228 33.7387 54.0065C33.4534 54.4116 33.1376 54.8181 32.6985 55.0456C31.934 55.4452 31.0074 55.2204 30.1875 54.9638C29.1238 54.628 28.0758 54.2497 27.0435 53.8289C27.0672 53.6728 27.0792 53.5151 27.0795 53.3572C27.049 53.4154 27.0158 53.4695 26.9826 53.5278L26.9175 53.6416C26.7997 53.8497 26.6848 54.0578 26.5795 54.2715C26.5394 54.3533 26.5006 54.438 26.4659 54.5226C26.3266 54.8375 26.2392 55.173 26.2069 55.516C26.1363 56.4414 26.592 57.3196 26.9964 58.152C28.5518 61.3722 29.513 65.1376 28.3426 68.5159C27.8357 69.9852 26.9576 71.2907 26.3164 72.7101C25.1954 75.2239 24.8654 78.0201 25.3704 80.7265C25.6903 82.408 26.3316 84.0729 26.1737 85.778C25.8967 88.7124 23.3704 90.8961 20.84 92.3973C19.473 93.2048 17.7999 93.9235 16.3484 93.2852C17.2735 92.2031 17.5118 90.7061 17.7112 89.2937C18.2569 85.4413 18.804 81.5871 19.3525 77.7311C19.5713 76.1966 19.7897 74.6621 20.0076 73.1277C20.4148 70.2446 20.8275 67.3297 20.5727 64.4286C20.3871 62.2907 19.8635 60.0209 20.7887 58.0854C21.2776 57.0601 22.1488 56.2111 22.4203 55.1067C22.6433 54.209 22.4355 53.2545 22.5823 52.3402C22.6627 51.9242 22.7987 51.521 22.9868 51.1415C23.2262 50.6265 23.5388 50.1489 23.9147 49.7236C23.5435 49.6153 23.1973 49.4669 22.9868 49.1561C23.5823 48.7676 23.6724 47.8922 23.4023 47.2346C23.1322 46.5769 22.592 46.0761 22.1059 45.5572C21.6197 45.0383 21.1516 44.4334 21.0907 43.7258C20.9729 42.3786 22.3164 41.3353 22.5533 40.0062C22.7929 38.6535 21.8455 37.3382 21.9217 35.9688C22.0103 34.3137 23.5283 33.1108 25.0269 32.4129C27.2884 31.3643 29.7865 30.9335 32.2678 31.1643C34.2872 31.3557 36.2414 31.9814 38.2553 32.2242C39.4699 32.363 40.7012 32.3768 41.9076 32.5905C43.1139 32.8042 44.323 33.2551 45.1721 34.1416C47.4103 36.4794 44.7289 38.4037 44.6014 40.8678Z" fill="#392921"/>
<path opacity="0.1" d="M42.7289 103.717C42.0225 103.411 40.7372 103.594 38.5309 102.921C36.3246 102.248 35.8994 99.2068 35.8994 99.2068V99.1971C35.873 99.1277 35.6681 98.6754 34.2803 97.091C32.747 95.3415 29.4327 86.5051 29.4327 86.5051C29.4327 86.5051 26.4937 83.3432 26.5865 82.1778C26.6793 81.0124 26.0643 77.9115 26.1253 74.443C26.1862 70.9745 32.7415 68.6742 32.7415 68.6742C45.3632 66.4336 42.391 81.0096 42.0544 82.114C41.7178 83.2184 43.4644 86.2013 43.4644 86.2013C43.2178 87.4999 44.4754 89.5102 44.4754 89.5102C44.4754 89.5102 44.7801 91.2889 44.8424 91.9646C44.8459 91.9958 44.8529 92.0265 44.8632 92.0561C45.0654 92.6929 46.7136 93.2701 47.384 93.6211C48.0889 93.9902 50.3562 97.2117 50.3562 97.2117C50.8451 99.5772 43.4325 104.028 42.7289 103.717Z" fill="black"/>
<path d="M43.0959 103.162C42.3909 102.854 41.1043 103.039 38.8993 102.364C36.6943 101.69 36.2678 98.6518 36.2678 98.6518V98.6421C36.2428 98.5713 36.0365 98.1204 34.6487 96.536C33.1154 94.7865 29.8011 85.9487 29.8011 85.9487C29.8011 85.9487 26.8621 82.7882 26.9535 81.6228C27.0449 80.4574 26.4327 77.3565 26.4937 73.8908C26.5546 70.4251 33.1058 68.1261 33.1058 68.1261C45.7275 65.8855 42.7552 80.4615 42.4186 81.5659C42.0821 82.6703 43.8286 85.6532 43.8286 85.6532C43.5821 86.9518 44.8397 88.9622 44.8397 88.9622C44.8397 88.9622 45.1444 90.7408 45.2081 91.4165C45.2104 91.4477 45.2169 91.4785 45.2275 91.508C45.4297 92.1449 47.0779 92.722 47.7496 93.073C48.4532 93.4407 50.7219 96.6636 50.7219 96.6636C51.2135 99.025 43.8009 103.476 43.0959 103.162Z" fill="#FF7723"/>
<path opacity="0.1" d="M33.355 75.736C33.355 75.736 38.8688 81.5631 40.3078 81.5631C41.7469 81.5631 33.355 75.736 33.355 75.736Z" fill="black"/>
<path d="M43.0959 103.162C42.3909 102.854 41.1042 103.039 38.8993 102.364C36.6943 101.69 36.2677 98.6517 36.2677 98.6517V98.642C37.7289 97.6708 41.4297 94.9279 42.8881 93.9248C43.9144 93.2214 44.7524 92.1878 45.2427 91.5024C45.4449 92.1393 47.0931 92.7164 47.7648 93.0674C48.4684 93.4351 50.7371 96.658 50.7371 96.658C51.2135 99.0249 43.8009 103.476 43.0959 103.162Z" fill="#FF7723"/>
<g opacity="0.1">
<path d="M22.995 49.171C23.0019 49.1821 23.0116 49.1918 23.0199 49.2028C23.0613 49.1503 23.1041 49.0978 23.1482 49.048C23.1012 49.0938 23.0499 49.135 22.995 49.171Z" fill="black"/>
<path d="M26.2083 55.5312C26.2665 54.7612 26.6778 54.0828 27.0628 53.4057C26.8108 53.3086 26.5587 53.2101 26.3094 53.1074C26.3331 52.9518 26.3452 52.7945 26.3454 52.6371C25.9562 53.3308 25.5324 54.0134 25.4728 54.7945C25.4022 55.7213 25.8579 56.5981 26.2623 57.4306C27.8191 60.6493 28.7789 64.4148 27.6085 67.7945C27.1002 69.2623 26.2235 70.5693 25.5823 71.9886C24.4617 74.5021 24.1322 77.2979 24.6377 80.0036C24.9548 81.6865 25.5975 83.35 25.4396 85.0552C25.1626 87.9895 22.6377 90.1733 20.1059 91.6731C19.0713 92.2863 17.8621 92.8482 16.7056 92.808C16.5986 92.9806 16.4792 93.1452 16.3483 93.3005C17.8012 93.9429 19.4729 93.22 20.8399 92.4098C23.3731 90.9114 25.9036 88.7332 26.1806 85.7933C26.3385 84.0881 25.6958 82.4246 25.3773 80.7417C24.8716 78.0362 25.2001 75.2406 26.3191 72.7267C26.9562 71.3088 27.8426 70.0004 28.3454 68.5326C29.5157 65.1529 28.5545 61.3874 26.9991 58.1687C26.5961 57.3307 26.1377 56.458 26.2083 55.5312Z" fill="black"/>
<path d="M45.1692 34.1584C45.033 34.0184 44.8867 33.8885 44.7316 33.7699C46.4102 35.9509 43.9864 37.8045 43.8659 40.152C43.7579 42.2747 43.9352 47.0224 41.5875 48.0851C40.4269 48.611 39.1818 47.4594 37.9089 47.4317C36.9907 47.4122 36.1513 47.9963 35.5904 48.7233C35.0295 49.4503 34.6846 50.3161 34.2788 51.1402C33.9086 51.8881 33.4826 52.6069 33.0046 53.2907C32.7276 53.6972 32.4035 54.1023 31.963 54.3312C31.2013 54.7294 30.2747 54.506 29.4534 54.248C28.6547 53.9964 27.8634 53.7189 27.0794 53.4155C27.0778 53.56 27.0658 53.7042 27.0434 53.847C28.0767 54.2688 29.1251 54.6471 30.1888 54.9819C31.0087 55.24 31.9353 55.4633 32.6985 55.0652C33.1375 54.8362 33.4561 54.4297 33.74 54.0232C34.2184 53.3404 34.6439 52.622 35.0128 51.8741C35.42 51.05 35.7635 50.1829 36.3258 49.4559C36.8882 48.7289 37.7261 48.1462 38.643 48.1656C39.9172 48.1933 41.1623 49.3449 42.323 48.8191C44.6706 47.7563 44.4919 43.0086 44.6014 40.8859C44.7288 38.4177 47.4102 36.4948 45.1692 34.1584Z" fill="black"/>
</g>
<path opacity="0.1" d="M26.9189 53.6429C26.8012 53.851 26.6862 54.0591 26.581 54.2728C26.5408 54.3546 26.502 54.4393 26.4674 54.5239C25.7416 53.7913 23.9743 52.0502 22.9882 51.5105C23.228 50.9956 23.5405 50.5181 23.9162 50.0925C23.9162 50.0925 26.2666 51.337 26.9189 53.6429Z" fill="black"/>
<path d="M26.984 53.5292C26.4397 51.061 23.9162 49.725 23.9162 49.725C23.5402 50.1503 23.2276 50.6279 22.9882 51.1429C24.0284 51.7131 25.9452 53.625 26.581 54.2729L26.984 53.5292Z" fill="#FF7723"/>
<defs>
<linearGradient id="paint0_linear_135_748" x1="90.1645" y1="14.1006" x2="90.1645" y2="11.5505" gradientUnits="userSpaceOnUse">
<stop stop-color="#808080" stop-opacity="0.25"/>
<stop offset="0.54" stop-color="#808080" stop-opacity="0.12"/>
<stop offset="1" stop-color="#808080" stop-opacity="0.1"/>
</linearGradient>
<linearGradient id="paint1_linear_135_748" x1="67.007" y1="109.453" x2="67.007" y2="0.863433" gradientUnits="userSpaceOnUse">
<stop stop-color="#808080" stop-opacity="0.25"/>
<stop offset="0.54" stop-color="#808080" stop-opacity="0.12"/>
<stop offset="1" stop-color="#808080" stop-opacity="0.1"/>
</linearGradient>
</defs>
</svg>
