<svg width="175" height="119" viewBox="0 0 175 119" fill="none" xmlns="http://www.w3.org/2000/svg">
<path d="M127 29.4174C127 41.0065 112.753 75.1838 104.584 93.8272C104.03 95.0922 103.22 96.146 102.239 96.8796C101.257 97.6132 100.139 98 99 98C97.8613 98 96.7432 97.6132 95.7614 96.8796C94.7797 96.146 93.9699 95.0922 93.4158 93.8272C85.2471 75.1838 71 41.0065 71 29.4174C71 13.1706 83.536 0 99 0C114.464 0 127 13.1706 127 29.4174Z" fill="#308ECC"/>
<path d="M99.5 38C105.851 38 111 32.8513 111 26.5C111 20.1487 105.851 15 99.5 15C93.1487 15 88 20.1487 88 26.5C88 32.8513 93.1487 38 99.5 38Z" fill="#2A2A2A"/>
<path d="M21.3776 53.4597C27.2384 53.4597 31.9896 48.725 31.9896 42.8844C31.9896 37.0438 27.2384 32.3091 21.3776 32.3091C15.5167 32.3091 10.7655 37.0438 10.7655 42.8844C10.7655 48.725 15.5167 53.4597 21.3776 53.4597Z" fill="#308ECC"/>
<path opacity="0.4" d="M19.2169 52.289C19.757 48.9722 17.4968 45.8471 14.1685 45.3089C10.8403 44.7707 7.70433 47.0231 7.16422 50.3398C6.62412 53.6566 8.88436 56.7817 12.2126 57.3199C15.5409 57.8581 18.6768 55.6057 19.2169 52.289Z" fill="#308ECC"/>
<path d="M156.027 82.6992C107.948 64.7386 49.3096 82.2486 15.4539 118.066C15.2615 118.267 15.069 118.471 14.8827 118.675H14.3665C14.5436 118.471 14.7269 118.267 14.9071 118.066C49.4654 79.5241 107.325 64.1633 156.027 82.6992Z" fill="#3F3D56"/>
<path d="M169.165 88.6566C164.916 86.3981 160.528 84.4084 156.027 82.6992C160.539 84.3802 164.929 86.3708 169.165 88.6566Z" fill="#3F3D56"/>
<path opacity="0.4" d="M142.852 70.7372C146.55 70.7372 149.548 67.7497 149.548 64.0643C149.548 60.379 146.55 57.3915 142.852 57.3915C139.154 57.3915 136.156 60.379 136.156 64.0643C136.156 67.7497 139.154 70.7372 142.852 70.7372Z" fill="#308ECC"/>
<path d="M143.598 115.391C144.115 117.297 145.888 118.477 145.888 118.477C145.888 118.477 146.821 116.567 146.304 114.661C145.786 112.755 144.014 111.574 144.014 111.574C144.014 111.574 143.08 113.484 143.598 115.391Z" fill="#3F3D56"/>
<path d="M144.358 114.981C145.778 116.358 145.951 118.476 145.951 118.476C145.951 118.476 143.823 118.36 142.403 116.983C140.983 115.605 140.809 113.488 140.809 113.488C140.809 113.488 142.938 113.604 144.358 114.981Z" fill="#308ECC"/>
<path d="M1.02639 88.8865V91.8272L0.879761 91.9855V88.8561C0.928637 88.8652 0.977525 88.8774 1.02639 88.8865Z" fill="#3F3D56"/>
<path d="M10.4289 118.065C10.3861 118.135 10.3403 118.205 10.2945 118.275H0.879761V89.0327L1.02639 88.8866L2.27578 90.3021V88.2321H6.24694V94.8014L10.2578 99.3402L10.2945 99.3828C10.3433 99.535 10.3892 99.6872 10.435 99.8394C10.4353 99.8418 10.4364 99.8439 10.438 99.8455C11.0396 101.764 11.5332 103.714 11.9165 105.687C12.7902 110.342 12.6588 114.61 10.4289 118.065Z" fill="#CCCCCC"/>
<path d="M4.18547 105.05H1.65784V107.149H4.18547V105.05Z" fill="#3F3D56"/>
<path d="M4.18547 108.829H1.65784V110.928H4.18547V108.829Z" fill="#3F3D56"/>
<path d="M82.0466 101.062L80.7828 98.963L92.5784 88.8875C101.299 84.7046 111.811 85.9115 122.91 88.8875V91.826L111.957 103.581L99.3187 106.1L82.0466 101.062Z" fill="#3F3D56"/>
<path d="M128.131 94.8002C130.226 92.4783 130.517 90.2705 128.131 88.2318H124.16V90.3031L122.91 88.8875L112.8 98.9631L111.114 100.642L109.008 109.039L112.8 118.274H132.178V99.3829L128.131 94.8002Z" fill="#CCCCCC"/>
<path d="M80.7829 98.963H112.8V118.274H80.7829C76.9095 114.098 78.9217 106.487 80.7829 98.963Z" fill="#F2F2F2"/>
<path d="M108.376 105.05H101.636V110.928H108.376V105.05Z" fill="#3F3D56"/>
<path d="M98.8976 104.84H92.9998V118.274H98.8976V104.84Z" fill="#CCCCCC"/>
<path d="M86.2594 106.94V104.841H83.7319V106.94H86.0486H86.2594Z" fill="#3F3D56"/>
<path d="M86.0486 108.619H83.7319V110.718H86.2594V108.619H86.0486Z" fill="#3F3D56"/>
<path d="M90.4721 104.84H87.9445V106.939H90.4721V104.84Z" fill="#3F3D56"/>
<path d="M90.4721 108.619H87.9445V110.718H90.4721V108.619Z" fill="#3F3D56"/>
<path d="M121.857 107.15V105.05H119.329V107.15H121.646H121.857Z" fill="#3F3D56"/>
<path d="M121.646 108.829H119.329V110.928H121.857V108.829H121.646Z" fill="#3F3D56"/>
<path d="M126.07 105.05H123.542V107.149H126.07V105.05Z" fill="#3F3D56"/>
<path d="M126.07 108.829H123.542V110.928H126.07V108.829Z" fill="#3F3D56"/>
<path d="M25.0385 65.798L22.9323 64.1185L34.7278 53.6232H64.638V62.8592L45.2597 75.8736L25.0385 65.798Z" fill="#3F3D56"/>
<path d="M70.0913 59.5105V53.8328H66.1201V55.2234L64.638 53.623L54.9487 64.1184L51.1574 66.6374L45.2786 109.439L54.1443 118.274H74.7486C77.9056 102.448 80.409 86.1906 74.7486 64.5382L70.0913 59.5105Z" fill="#CCCCCC"/>
<path d="M22.932 64.1185H54.9487V118.274H22.932C19.4285 97.2353 17.7174 77.7245 22.932 64.1185Z" fill="#F2F2F2"/>
<path d="M41.2574 105.05H35.3596V118.274H41.2574V105.05Z" fill="#CCCCCC"/>
<path d="M29.0406 108.829V106.73H26.5131V108.829H28.8301H29.0406Z" fill="#3F3D56"/>
<path d="M28.8301 110.508H26.5131V112.607H29.0406V110.508H28.8301Z" fill="#3F3D56"/>
<path d="M33.2532 106.729H30.7256V108.829H33.2532V106.729Z" fill="#3F3D56"/>
<path d="M46.1022 110.508H43.7852V112.607H46.3126V110.508H46.1022Z" fill="#3F3D56"/>
<path d="M50.5254 106.729H47.9978V108.829H50.5254V106.729Z" fill="#3F3D56"/>
<path d="M50.5254 110.508H47.9978V112.607H50.5254V110.508Z" fill="#3F3D56"/>
<path d="M64.006 66.8472V64.7483H61.4785V66.8472H63.7955H64.006Z" fill="#3F3D56"/>
<path d="M63.7955 68.5267H61.4785V70.6257H64.006V68.5267H63.7955Z" fill="#3F3D56"/>
<path d="M68.2188 64.7483H65.6912V66.8474H68.2188V64.7483Z" fill="#3F3D56"/>
<path d="M68.2188 68.5266H65.6912V70.6257H68.2188V68.5266Z" fill="#3F3D56"/>
<path d="M64.006 78.6023V76.5031H61.4785V78.6023H63.7955H64.006Z" fill="#3F3D56"/>
<path d="M63.7955 80.2815H61.4785V82.3804H64.006V80.2815H63.7955Z" fill="#3F3D56"/>
<path d="M68.2188 76.5029H65.6912V78.602H68.2188V76.5029Z" fill="#3F3D56"/>
<path d="M68.2188 80.2812H65.6912V82.3803H68.2188V80.2812Z" fill="#3F3D56"/>
<path d="M64.006 90.3571V88.2578H61.4785V90.3571H63.7955H64.006Z" fill="#3F3D56"/>
<path d="M63.7955 92.0361H61.4785V94.1351H64.006V92.0361H63.7955Z" fill="#3F3D56"/>
<path d="M68.2188 88.2578H65.6912V90.3569H68.2188V88.2578Z" fill="#3F3D56"/>
<path d="M68.2188 92.0361H65.6912V94.1352H68.2188V92.0361Z" fill="#3F3D56"/>
<path d="M64.006 102.112V100.012H61.4785V102.112H63.7955H64.006Z" fill="#3F3D56"/>
<path d="M63.7955 103.791H61.4785V105.89H64.006V103.791H63.7955Z" fill="#3F3D56"/>
<path d="M68.2188 100.013H65.6912V102.112H68.2188V100.013Z" fill="#3F3D56"/>
<path d="M68.2188 103.791H65.6912V105.89H68.2188V103.791Z" fill="#3F3D56"/>
<path d="M26.5128 66.8473H50.9466V71.8851C43.1148 69.7311 34.9478 69.8856 26.5128 71.8851V66.8473Z" fill="#3F3D56"/>
<path d="M26.5128 76.9229C34.1389 79.1619 42.2835 79.1619 50.9466 76.9229V81.9606H26.5128V76.9229Z" fill="#3F3D56"/>
<path d="M26.5128 86.9983H50.9466V92.0361C42.6196 89.3863 34.4664 89.2614 26.5128 92.0361V86.9983Z" fill="#3F3D56"/>
<path d="M26.5128 97.0739C34.4814 100.134 42.6333 100.007 50.9466 97.0739V102.112H26.5128V97.0739Z" fill="#3F3D56"/>
<path d="M157.832 88.3218H175V96.5653L173.466 97.0434L168.365 98.6301L160.362 96.7825L152.367 94.9363L148.146 93.9618L146.038 93.1847C147.791 90.7871 150.981 88.9014 157.832 88.3218Z" fill="#3F3D56"/>
<path d="M175 93.1846V118.275H146.038C146.029 118.259 146.023 118.245 146.014 118.23V118.228C146.007 118.211 145.998 118.194 145.989 118.178C145.537 117.271 145.132 116.366 144.773 115.464C141.734 107.83 142.064 100.397 146.038 93.1846H175Z" fill="#F2F2F2"/>
<path d="M164.363 105.05H158.466V118.274H164.363V105.05Z" fill="#CCCCCC"/>
<path d="M152.147 108.829V106.73H149.619V108.829H151.936H152.147Z" fill="#3F3D56"/>
<path d="M151.936 110.508H149.619V112.607H152.147V110.508H151.936Z" fill="#3F3D56"/>
<path d="M156.359 106.729H153.832V108.829H156.359V106.729Z" fill="#3F3D56"/>
<path d="M156.359 110.508H153.832V112.607H156.359V110.508Z" fill="#3F3D56"/>
<path d="M169.419 108.829V106.73H166.891V108.829H169.208H169.419Z" fill="#3F3D56"/>
<path d="M169.208 110.508H166.891V112.607H169.419V110.508H169.208Z" fill="#3F3D56"/>
<path d="M173.631 106.729H171.104V108.829H173.631V106.729Z" fill="#3F3D56"/>
<path d="M173.631 110.508H171.104V112.607H173.631V110.508Z" fill="#3F3D56"/>
<path d="M152.368 78.5804H155.999C159.58 78.5804 163.014 79.9981 165.547 82.5215C168.079 85.0449 169.501 88.4674 169.501 92.0361H152.368V78.5804Z" fill="#3F3D56"/>
<path d="M42.3976 42.0505H46.0284C49.6095 42.0505 53.0439 43.4682 55.5761 45.9916C58.1082 48.515 59.5308 51.9375 59.5308 55.5062H42.3976V42.0505Z" fill="#3F3D56"/>
<path d="M100.438 75.8407H104.068C107.649 75.8407 111.084 77.2583 113.616 79.7818C116.148 82.3052 117.571 85.7277 117.571 89.2964H100.438V75.8407Z" fill="#3F3D56"/>
<path d="M169.501 97.0739H152.368V102.112H169.501V97.0739Z" fill="#3F3D56"/>
<path d="M16.9388 94.0159H16.3279V118.065H16.9388V94.0159Z" fill="#3F3D56"/>
<path d="M22.5772 97.0807C22.6161 105.49 16.6791 112.334 16.6791 112.334C16.6791 112.334 9.07611 105.399 10.6402 97.1355C12.2133 88.8247 17.116 81.917 16.5383 81.8817C16.5383 81.8817 22.5383 88.6714 22.5772 97.0807Z" fill="#308ECC"/>
<path d="M78.0336 94.0159H77.4226V118.065H78.0336V94.0159Z" fill="#3F3D56"/>
<path d="M83.672 97.0807C84.2227 105.472 77.7739 112.334 77.7739 112.334C77.7739 112.334 71.7739 105.545 71.7351 97.1355C71.6962 88.7262 77.6331 81.8817 77.6331 81.8817C77.0543 84.1869 83.2264 90.291 83.672 97.0807Z" fill="#308ECC"/>
<path d="M38.3409 54.9239L64.8787 53.6301L76.0111 62.8902L74.0429 64.661L56.4143 64.2655L38.3409 54.9239Z" fill="#3F3D56"/>
<path d="M11.8616 97.8973L10.4319 99.185L10.2578 99.3402L9.89431 99.669L0.879767 99.4681V88.8561C0.586512 88.7922 0.293255 88.7313 0 88.6735L0.730087 88.637L0.879767 88.7618L2.27579 89.9216L6.24695 93.2275L10.6824 96.9171L11.8616 97.8973Z" fill="#3F3D56"/>
<path d="M96.381 89.9317L122.919 88.6379L134.051 97.898L132.083 99.6688L114.454 99.2733L96.381 89.9317Z" fill="#3F3D56"/>
</svg>
