<svg width="159" height="119" viewBox="0 0 159 119" fill="none" xmlns="http://www.w3.org/2000/svg">
<g clip-path="url(#clip0_135_849)">
<path d="M132.85 18.298L120.585 18.4265C120.008 15.3748 118.071 7.36743 119.816 5.18335C119.895 4.36132 120.266 3.60394 120.852 3.06886C121.438 2.53379 122.193 2.26226 122.961 2.31079C124.862 -0.88892 128.028 -0.408504 130.168 1.58985C132.322 2.38897 133.134 3.80865 132.85 5.73522C134.445 7.23652 134.74 9.06306 134.024 11.1422L132.85 18.298Z" fill="#2F2E41"/>
<path d="M131.67 26.4224L122.82 25.105L121.05 22.3237C123.488 20.5848 124.351 18.1561 123.229 14.8581L129.355 14.7117C129.068 17.6486 129.971 19.9226 132.486 21.299L131.67 26.4224Z" fill="#FFB9B9"/>
<path d="M120.728 112.245L120.39 117.219C120.374 117.444 120.404 117.67 120.477 117.882C120.549 118.094 120.663 118.286 120.811 118.447C120.958 118.608 121.136 118.733 121.332 118.813C121.528 118.894 121.738 118.929 121.947 118.915L124.324 118.76C124.434 118.753 124.541 118.72 124.638 118.663C124.735 118.606 124.819 118.527 124.884 118.432C124.949 118.336 124.994 118.226 125.015 118.11C125.036 117.993 125.033 117.873 125.007 117.758L123.688 112.086L120.728 112.245Z" fill="#E6E6E6"/>
<path d="M128.42 112.086L127.101 117.758C127.075 117.873 127.072 117.993 127.093 118.11C127.114 118.226 127.159 118.336 127.224 118.432C127.29 118.527 127.374 118.606 127.47 118.663C127.567 118.72 127.675 118.753 127.785 118.76L130.161 118.915C130.37 118.929 130.58 118.894 130.776 118.813C130.972 118.733 131.15 118.608 131.297 118.447C131.445 118.286 131.559 118.094 131.631 117.882C131.704 117.67 131.734 117.444 131.718 117.219L131.38 112.245L128.42 112.086Z" fill="#E6E6E6"/>
<path d="M131.533 112.936L128.327 112.59L125.135 75.9003L123.928 112.471L120.778 112.35L115.469 61.7009H135.754L131.533 112.936Z" fill="#AC3483"/>
<path d="M126.632 17.2001C130.016 17.2001 132.759 14.2509 132.759 10.6128C132.759 6.97475 130.016 4.02551 126.632 4.02551C123.249 4.02551 120.506 6.97475 120.506 10.6128C120.506 14.2509 123.249 17.2001 126.632 17.2001Z" fill="#FFB9B9"/>
<path d="M138.749 62.872L113.971 63.1648C117.648 48.1131 119.848 34.1314 116.013 24.5193L122.14 21.2989C125.094 24.6118 128.383 24.2702 131.942 21.0061L137.796 22.6163C136.793 35.2211 137.243 48.7208 138.749 62.872Z" fill="#AC3483"/>
<path d="M107.164 47.3554L122.548 53.9427L125.988 55.0304C126.141 55.0791 126.303 55.0938 126.462 55.0737C126.621 55.0535 126.775 54.999 126.914 54.9134C127.053 54.8277 127.175 54.7127 127.272 54.5752C127.369 54.4377 127.439 54.2806 127.478 54.1133C127.546 53.82 127.515 53.5102 127.391 53.2389C127.267 52.9675 127.058 52.7522 126.8 52.631L123.229 51.4542L112.473 44.7205L114.72 38.3528L110.023 35.6447L107.164 47.3554Z" fill="#FFB9B9"/>
<path d="M107.3 35.3518C110.227 36.5796 112.555 38.6751 114.379 41.5L120.097 32.5706L116.013 24.5194L107.3 35.3518Z" fill="#AC3483"/>
<path d="M133.537 9.54531C131.051 8.85644 128.606 8.76186 126.229 9.63563C124.716 10.424 122.898 10.3513 120.876 9.70179V3.12964L131.791 3.4426L133.537 9.54531Z" fill="#2F2E41"/>
<path d="M122.497 39.6803C122.016 39.6809 121.555 39.8866 121.214 40.2524C120.874 40.6181 120.683 41.114 120.682 41.6313L121.399 57.7518C121.399 58.269 121.591 58.7649 121.931 59.1307C122.271 59.4964 122.732 59.7022 123.213 59.7028H131.402C131.883 59.7022 132.344 59.4964 132.684 59.1307C133.024 58.7649 133.216 58.269 133.216 57.7518L133.932 41.6313C133.932 41.114 133.741 40.6181 133.4 40.2524C133.06 39.8866 132.599 39.6809 132.118 39.6803H122.497Z" fill="#3F3D56"/>
<path d="M145.73 46.1376L132.321 51.8786L131.309 52.3118C131.277 52.3253 131.245 52.3368 131.211 52.3484L127.821 53.4207C127.388 53.5574 126.788 52.9298 126.437 52.4966C126.263 52.2879 126.165 52.0191 126.16 51.739C126.155 51.4589 126.243 51.186 126.409 50.9699C126.455 50.9119 126.507 50.8584 126.563 50.8101C126.693 50.7008 126.847 50.628 127.01 50.5983L130.396 49.8822C130.518 49.8565 130.634 49.8097 130.742 49.7435L132.321 48.754L140.52 43.6213C140.748 43.4788 140.921 43.2539 141.01 42.9866C141.098 42.7194 141.095 42.4271 141.001 42.162L139.437 37.7243C139.341 37.4528 139.34 37.153 139.434 36.8809C139.529 36.6088 139.712 36.383 139.95 36.2457L142.543 34.7517C142.691 34.6662 142.856 34.618 143.024 34.6106C143.192 34.6033 143.359 34.637 143.513 34.7093C143.667 34.7816 143.804 34.8905 143.913 35.0279C144.023 35.1654 144.101 35.3276 144.144 35.5026L146.395 44.7206C146.464 45.0033 146.434 45.3034 146.312 45.5644C146.19 45.8254 145.983 46.0293 145.73 46.1376Z" fill="#FFB9B9"/>
<path d="M146.509 33.7415C143.582 34.9693 141.254 37.0648 139.43 39.8897L133.712 30.9602L137.796 22.6163L146.509 33.7415Z" fill="#AC3483"/>
<path d="M130.709 16.4759C128.029 17.6746 125.219 17.626 122.294 16.4759C123.145 14.9138 121.873 13.6903 121.22 12.1134L132.142 11.7644C131.307 13.1343 130.074 14.7529 130.709 16.4759Z" fill="white"/>
<path d="M132.026 12.025L131.899 11.8889L132.079 11.6964L133.148 10.3541L133.284 10.4793L132.21 11.8269L132.026 12.025Z" fill="white"/>
<path d="M120.471 11.2091L120.357 11.3571L121.431 12.3197L121.546 12.1717L120.471 11.2091Z" fill="white"/>
<path d="M132.335 13.1569L130.454 16.3333L130.605 16.4367L132.486 13.2603L132.335 13.1569Z" fill="white"/>
<path d="M120.668 13.1566L120.517 13.26L122.397 16.4367L122.549 16.3333L120.668 13.1566Z" fill="white"/>
<path d="M132.679 48.4816V51.9694L131.55 52.453C131.514 52.468 131.478 52.4809 131.44 52.4938L127.656 53.6908C127.173 53.8434 126.503 53.1428 126.111 52.6593C125.917 52.4262 125.808 52.1262 125.802 51.8135C125.796 51.5009 125.894 51.1963 126.079 50.9551C126.132 50.8903 126.189 50.8306 126.251 50.7767C126.397 50.6547 126.569 50.5735 126.751 50.5403L130.53 49.7409C130.666 49.7123 130.796 49.66 130.916 49.5861L132.679 48.4816Z" fill="white"/>
<path d="M134.316 36.0408H133.669C133.669 26.2008 131.784 19.3434 129.948 19.3434L129.786 18.6477C131.433 18.6477 132.483 21.5017 133.074 23.8959C133.875 27.1418 134.316 31.4549 134.316 36.0408Z" fill="#3F3D56"/>
<path d="M119.433 33.6058H118.786C118.786 24.5939 120.684 18.9956 123.478 18.9956L123.316 19.6913C121.383 19.6913 119.433 23.9938 119.433 33.6058Z" fill="#3F3D56"/>
<path d="M133.992 37.9541C134.885 37.9541 135.61 37.1754 135.61 36.2148C135.61 35.2542 134.885 34.4755 133.992 34.4755C133.099 34.4755 132.374 35.2542 132.374 36.2148C132.374 37.1754 133.099 37.9541 133.992 37.9541Z" fill="#3F3D56"/>
<path d="M116.845 37.7801H116.198C116.198 35.2866 117.504 33.2579 119.11 33.2579V33.9537C117.861 33.9537 116.845 35.6702 116.845 37.7801Z" fill="#3F3D56"/>
<path d="M122.022 37.7801H121.375C121.375 35.6702 120.359 33.9537 119.11 33.9537V33.2579C120.715 33.2579 122.022 35.2866 122.022 37.7801Z" fill="#3F3D56"/>
<path d="M121.698 38.6497C122.055 38.6497 122.345 38.3383 122.345 37.954C122.345 37.5698 122.055 37.2583 121.698 37.2583C121.341 37.2583 121.051 37.5698 121.051 37.954C121.051 38.3383 121.341 38.6497 121.698 38.6497Z" fill="#3F3D56"/>
<path d="M116.522 38.6497C116.879 38.6497 117.169 38.3383 117.169 37.954C117.169 37.5698 116.879 37.2583 116.522 37.2583C116.164 37.2583 115.875 37.5698 115.875 37.954C115.875 38.3383 116.164 38.6497 116.522 38.6497Z" fill="#3F3D56"/>
<path d="M38.5451 14.5736L27.1812 16.6427C26.9005 16.6942 26.612 16.6319 26.3715 16.4679C26.131 16.3038 25.9557 16.0497 25.8795 15.7547C25.0585 12.5685 23.3419 8.41206 25.0085 6.32553C25.0934 5.44773 25.4899 4.63897 26.1154 4.06759C26.741 3.49622 27.5474 3.20626 28.3667 3.25808C30.3968 -0.158698 33.7782 0.35431 36.0635 2.48824C38.3636 3.34157 39.2307 4.85757 38.9275 6.91484C39.9211 7.85 40.442 8.90336 40.5519 10.0595C40.6039 10.7029 40.5278 11.3508 40.3285 11.96C40.1293 12.5692 39.8115 13.1258 39.3963 13.5925L38.5451 14.5736Z" fill="#2F2E41"/>
<path d="M36.7783 24.193L27.9688 23.6358C28.8321 21.5052 29.177 19.4535 28.8324 17.5067H35.3964C35.3815 19.0014 36.0733 21.587 36.7783 24.193Z" fill="#9F616A"/>
<path d="M26.1741 111.719L25.8127 117.031C25.7964 117.271 25.828 117.512 25.9055 117.739C25.983 117.965 26.1046 118.171 26.2622 118.342C26.4197 118.514 26.6095 118.647 26.8189 118.733C27.0283 118.819 27.2524 118.856 27.4761 118.842L30.0134 118.676C30.1309 118.669 30.2455 118.633 30.3489 118.573C30.4523 118.512 30.542 118.428 30.6116 118.326C30.6812 118.223 30.7291 118.106 30.7518 117.982C30.7745 117.858 30.7714 117.729 30.7429 117.607L29.3345 111.549L26.1741 111.719Z" fill="#E6E6E6"/>
<path d="M34.3882 111.549L32.9798 117.607C32.9513 117.729 32.9482 117.858 32.9709 117.982C32.9936 118.106 33.0414 118.223 33.1111 118.326C33.1807 118.428 33.2704 118.512 33.3738 118.573C33.4772 118.633 33.5917 118.669 33.7093 118.676L36.2465 118.842C36.4703 118.856 36.6944 118.819 36.9038 118.733C37.1132 118.647 37.303 118.514 37.4605 118.342C37.618 118.171 37.7396 117.965 37.8172 117.739C37.8947 117.512 37.9263 117.271 37.91 117.031L37.5486 111.719L34.3882 111.549Z" fill="#E6E6E6"/>
<path d="M37.7124 112.457L34.2885 112.087L30.8797 72.9089L29.5914 111.961L26.2275 111.831L20.5577 57.7463H42.2192L37.7124 112.457Z" fill="#AC3483"/>
<path d="M32.2876 19.7614C35.9007 19.7614 38.8296 16.6121 38.8296 12.7272C38.8296 8.8423 35.9007 5.69299 32.2876 5.69299C28.6745 5.69299 25.7455 8.8423 25.7455 12.7272C25.7455 16.6121 28.6745 19.7614 32.2876 19.7614Z" fill="#9F616A"/>
<path d="M39.6608 9.36683C37.0056 8.86962 34.395 8.80135 31.8573 9.43201C30.2408 10.001 28.2995 9.94858 26.1406 9.47976V4.73621L37.7959 4.96209L39.6608 9.36683Z" fill="#2F2E41"/>
<path d="M36.6414 18.3713C33.7794 19.6513 30.7785 19.5993 27.6549 18.3713C28.5638 16.7031 27.2052 15.3967 26.5077 13.7128L38.171 13.3401C37.2791 14.8029 35.963 16.5313 36.6414 18.3713Z" fill="white"/>
<path d="M25.7047 12.752L25.59 12.9L26.7371 13.9279L26.8518 13.7799L25.7047 12.752Z" fill="white"/>
<path d="M38.3823 14.8303L36.3742 18.2222L36.5253 18.3256L38.5334 14.9337L38.3823 14.8303Z" fill="white"/>
<path d="M25.9138 14.8302L25.7627 14.9336L27.7703 18.3258L27.9214 18.2224L25.9138 14.8302Z" fill="white"/>
<path d="M19.8502 44.8091L14.8408 41.4659L19.1129 28.0126C19.5894 26.6244 20.502 25.4588 21.693 24.7174L23.1321 23.8215L23.2573 37.3934L19.8502 44.8091Z" fill="#AC3483"/>
<path d="M41.5028 51.343L40.7617 44.5176C40.7221 40.9149 41.2921 37.4318 42.6513 34.2224L43.3423 24.193L35.7419 20.8499C35.7186 21.0164 35.6987 21.1828 35.6765 21.3493L32.1144 23.2644L28.6405 22.4154L28.6597 21.2213L21.7502 24.5645C24.0352 35.9865 22.7889 47.8478 18.8596 61.858L27.9622 64.5342L28.0379 59.8346L36.1502 59.2116C36.2338 60.7363 36.3009 62.234 36.3399 63.6984C40.9175 65.5105 41.0747 65.4804 45.2454 62.886C43.5845 59.1312 42.2694 55.224 41.5028 51.343Z" fill="#AC3483"/>
<path d="M53.1882 43.1374L48.5244 41.4659L41.0643 32.128L43.3422 24.1931L53.7064 39.7945L53.1882 43.1374Z" fill="#AC3483"/>
<path d="M38.5717 50.3667C38.648 50.7268 38.854 51.0396 39.1445 51.2367C39.435 51.4337 39.7863 51.4988 40.1214 51.4177L44.0804 50.4537L43.5083 47.7366L39.5492 48.7004C39.2141 48.782 38.9228 49.0035 38.7395 49.3159C38.5562 49.6284 38.4959 50.0064 38.5717 50.3667Z" fill="#E6E6E6"/>
<path d="M42.1331 47.2235L44.3787 51.6811C48.1557 50.5484 51.4291 46.9775 54.5701 42.766L53.7064 39.7943L48.3516 41.2802L42.1331 47.2235Z" fill="#AC3483"/>
<path d="M12.8543 33.2413L17.1652 34.069L27.0187 49.1334L21.7841 47.809L12.8543 33.2413Z" fill="#E6E6E6"/>
<path d="M12.0897 33.0569C12.024 33.0579 11.9598 33.078 11.9037 33.1149C11.8477 33.1517 11.8019 33.2041 11.7712 33.2666C11.7404 33.329 11.7259 33.3992 11.729 33.4697C11.7321 33.5403 11.7527 33.6086 11.7888 33.6677L20.9993 48.6934C21.0507 48.7774 21.13 48.837 21.2211 48.86L25.5064 49.9441C25.5787 49.9624 25.6544 49.9566 25.7235 49.9276C25.7927 49.8985 25.852 49.8476 25.8935 49.7814C25.9351 49.7153 25.957 49.6372 25.9563 49.5574C25.9556 49.4776 25.9324 49.3999 25.8897 49.3346L15.7772 33.8743C15.7498 33.8321 15.7149 33.7962 15.6746 33.7686C15.6342 33.741 15.5892 33.7222 15.5421 33.7133L12.1588 33.0636C12.136 33.0592 12.1129 33.057 12.0897 33.0569Z" fill="#3F3D56"/>
<path d="M17.8352 43.8001L18.0912 46.5725L22.1306 46.1413C22.4725 46.1049 22.7869 45.9238 23.0047 45.6381C23.2225 45.3523 23.3257 44.9852 23.2918 44.6176C23.2579 44.25 23.0895 43.9119 22.8237 43.6777C22.558 43.4436 22.2166 43.3325 21.8747 43.369L17.8352 43.8001Z" fill="#E6E6E6"/>
<path d="M14.3227 43.4791C14.3286 44.4244 14.6817 45.3289 15.3051 45.9955C15.9285 46.6621 16.7716 47.0368 17.6508 47.0379H18.315L18.7986 42.7051L14.7948 41.1553L14.3227 43.4791Z" fill="#AC3483"/>
<path d="M37.8518 13.8194L37.7253 13.6833L37.9165 13.4777L39.059 12.0439L39.1949 12.1691L38.0477 13.6082L37.8518 13.8194Z" fill="white"/>
<path d="M159 118.615H0V119H159V118.615Z" fill="#3F3D56"/>
<path d="M60.6993 118.422H98.3007V69.3835C98.3007 66.7868 95.9219 64.6743 92.9981 64.6743H66.0019C63.078 64.6743 60.6993 66.7868 60.6993 69.3835V118.422Z" fill="#E6E6E6"/>
<path d="M63.5642 116.395H95.4358V74.8283C95.4358 72.6273 93.4195 70.8367 90.9413 70.8367H68.0587C65.5804 70.8367 63.5642 72.6273 63.5642 74.8283V116.395Z" fill="white"/>
<path d="M60.4153 60.8579C59.4859 60.8579 58.7297 61.5295 58.7297 62.3548V66.6758C58.7297 67.5012 59.4859 68.1727 60.4153 68.1727H98.5848C99.5142 68.1727 100.27 67.5012 100.27 66.6758V62.3548C100.27 61.5295 99.5142 60.8579 98.5848 60.8579H60.4153Z" fill="#3F3D56"/>
<path d="M68.252 111.065C67.8156 111.066 67.3975 111.253 67.089 111.585C66.7804 111.917 66.6065 112.366 66.6053 112.835C66.6065 113.304 66.7804 113.754 67.089 114.086C67.3975 114.417 67.8156 114.604 68.252 114.606H71.3342V111.065H68.252Z" fill="#3F3D56"/>
<path d="M74.1632 111.065H71.1653V114.606H74.1632C74.5995 114.604 75.0176 114.417 75.3262 114.086C75.6347 113.754 75.8086 113.304 75.8099 112.835C75.8086 112.366 75.6347 111.917 75.3262 111.585C75.0176 111.253 74.5995 111.066 74.1632 111.065Z" fill="#AC3483"/>
<path opacity="0.2" d="M75.2377 111.498C75.4974 111.818 75.6406 112.229 75.641 112.654C75.6397 113.123 75.4658 113.572 75.1573 113.904C74.8487 114.236 74.4306 114.423 73.9943 114.424H71.1653V114.606H74.1632C74.5995 114.604 75.0176 114.417 75.3262 114.086C75.6347 113.754 75.8086 113.304 75.8099 112.835C75.8095 112.581 75.7582 112.33 75.6594 112.1C75.5607 111.869 75.4169 111.664 75.2377 111.498Z" fill="black"/>
<path d="M82.161 84.3951C81.8608 84.0547 81.4474 83.8558 81.0113 83.842C80.5751 83.8281 80.1516 84.0004 79.8332 84.3212C79.5166 84.644 79.3317 85.0885 79.3188 85.5574C79.3059 86.0264 79.4661 86.4818 79.7645 86.8241L81.8788 89.2357L84.2753 86.8067L82.161 84.3951Z" fill="#3F3D56"/>
<path d="M86.2157 89.0201L84.1594 86.6746L81.7629 89.1035L83.8192 91.4491C84.1194 91.7895 84.5328 91.9884 84.9689 92.0022C85.4051 92.0161 85.8286 91.8438 86.147 91.523C86.4636 91.2002 86.6486 90.7557 86.6614 90.2868C86.6743 89.8178 86.5141 89.3624 86.2157 89.0201Z" fill="#AC3483"/>
<path opacity="0.2" d="M86.6593 90.1582C86.6207 90.581 86.4413 90.9746 86.154 91.2663C85.8356 91.5871 85.4121 91.7594 84.976 91.7455C84.5398 91.7317 84.1265 91.5328 83.8263 91.1924L81.8858 88.979L81.7629 89.1036L83.8192 91.4491C84.1194 91.7895 84.5328 91.9884 84.9689 92.0022C85.4051 92.0161 85.8286 91.8438 86.147 91.523C86.3186 91.3485 86.4532 91.1362 86.5416 90.9007C86.63 90.6652 86.6701 90.412 86.6593 90.1582Z" fill="black"/>
<path d="M73.3873 89.9784C73.0871 89.6379 72.6738 89.4391 72.2376 89.4252C71.8015 89.4114 71.378 89.5837 71.0596 89.9045C70.7429 90.2273 70.558 90.6717 70.5451 91.1407C70.5322 91.6096 70.6925 92.065 70.9909 92.4074L73.1051 94.819L75.5016 92.39L73.3873 89.9784Z" fill="#3F3D56"/>
<path d="M77.442 94.6033L75.3857 92.2578L72.9892 94.6868L75.0455 97.0323C75.3458 97.3728 75.7591 97.5716 76.1953 97.5855C76.6314 97.5993 77.0549 97.427 77.3733 97.1062C77.6899 96.7834 77.8749 96.339 77.8878 95.87C77.9007 95.4011 77.7404 94.9457 77.442 94.6033Z" fill="#AC3483"/>
<path opacity="0.2" d="M77.8856 95.7415C77.8471 96.1643 77.6676 96.5578 77.3804 96.8495C77.062 97.1703 76.6385 97.3426 76.2023 97.3288C75.7662 97.3149 75.3528 97.1161 75.0526 96.7756L73.1121 94.5623L72.9892 94.6868L75.0455 97.0323C75.3458 97.3728 75.7591 97.5717 76.1953 97.5855C76.6314 97.5993 77.0549 97.4271 77.3733 97.1062C77.5449 96.9317 77.6795 96.7195 77.7679 96.484C77.8563 96.2484 77.8965 95.9952 77.8856 95.7415Z" fill="black"/>
<path d="M82.161 95.1765C81.8608 94.836 81.4474 94.6372 81.0113 94.6233C80.5751 94.6095 80.1516 94.7818 79.8332 95.1026C79.5166 95.4254 79.3317 95.8698 79.3188 96.3388C79.3059 96.8078 79.4661 97.2632 79.7645 97.6055L81.8788 100.017L84.2753 97.5881L82.161 95.1765Z" fill="#3F3D56"/>
<path d="M86.2157 99.8015L84.1594 97.4559L81.7629 99.8849L83.8192 102.23C84.1194 102.571 84.5328 102.77 84.9689 102.784C85.4051 102.797 85.8286 102.625 86.147 102.304C86.4636 101.982 86.6486 101.537 86.6614 101.068C86.6743 100.599 86.5141 100.144 86.2157 99.8015Z" fill="#AC3483"/>
<path opacity="0.2" d="M86.6593 100.94C86.6207 101.362 86.4413 101.756 86.154 102.048C85.8356 102.368 85.4121 102.541 84.976 102.527C84.5398 102.513 84.1265 102.314 83.8263 101.974L81.8858 99.7604L81.7629 99.8849L83.8192 102.23C84.1194 102.571 84.5328 102.77 84.9689 102.784C85.4051 102.797 85.8286 102.625 86.147 102.304C86.3186 102.13 86.4532 101.918 86.5416 101.682C86.63 101.447 86.6701 101.193 86.6593 100.94Z" fill="black"/>
<path d="M87.5134 106.24C87.8264 105.913 88.0063 105.466 88.0138 104.997C88.0214 104.528 87.856 104.075 87.5538 103.737C87.2498 103.4 86.8342 103.207 86.3979 103.199C85.9617 103.19 85.5401 103.368 85.2254 103.693L83.0084 105.996L85.2964 108.543L87.5134 106.24Z" fill="#3F3D56"/>
<path d="M83.2616 110.656L85.4178 108.416L83.1298 105.869L80.9736 108.109C80.6606 108.436 80.4807 108.882 80.4731 109.352C80.4655 109.821 80.6309 110.274 80.9331 110.612C81.2372 110.949 81.6527 111.142 82.089 111.15C82.5253 111.159 82.9468 110.981 83.2616 110.656Z" fill="#AC3483"/>
<path opacity="0.2" d="M82.2085 111.147C81.8149 111.11 81.4467 110.922 81.172 110.617C80.8697 110.278 80.7044 109.825 80.7119 109.356C80.7195 108.887 80.8994 108.44 81.2124 108.113L83.2472 106L83.1298 105.869L80.9736 108.109C80.6606 108.436 80.4807 108.882 80.4731 109.352C80.4655 109.821 80.6309 110.274 80.9331 110.612C81.0975 110.795 81.2965 110.937 81.5166 111.029C81.7367 111.121 81.9727 111.161 82.2085 111.147Z" fill="black"/>
<path d="M75.6958 100.657C76.0088 100.33 76.1887 99.8833 76.1963 99.4142C76.2039 98.9452 76.0385 98.4919 75.7362 98.1535C75.4322 97.817 75.0167 97.6235 74.5804 97.6154C74.1441 97.6072 73.7226 97.7851 73.4078 98.11L71.1908 100.412L73.4788 102.959L75.6958 100.657Z" fill="#3F3D56"/>
<path d="M71.444 105.073L73.6003 102.833L71.3123 100.286L69.156 102.526C68.843 102.853 68.6631 103.299 68.6556 103.768C68.648 104.238 68.8134 104.691 69.1156 105.029C69.4196 105.366 69.8352 105.559 70.2715 105.567C70.7077 105.575 71.1293 105.398 71.444 105.073Z" fill="#AC3483"/>
<path opacity="0.2" d="M70.391 105.563C69.9973 105.527 69.6291 105.339 69.3544 105.034C69.0522 104.695 68.8868 104.242 68.8944 103.773C68.9019 103.304 69.0819 102.857 69.3948 102.53L71.4296 100.417L71.3123 100.286L69.156 102.526C68.843 102.853 68.6631 103.299 68.6556 103.768C68.648 104.238 68.8134 104.691 69.1156 105.029C69.28 105.212 69.479 105.354 69.6991 105.446C69.9192 105.538 70.1552 105.578 70.391 105.563Z" fill="black"/>
<path d="M92.5269 93.9187C92.8399 93.5917 93.0198 93.1449 93.0274 92.6758C93.0349 92.2068 92.8696 91.7535 92.5673 91.4151C92.2633 91.0786 91.8477 90.8851 91.4115 90.877C90.9752 90.8688 90.5536 91.0466 90.2389 91.3716L88.0219 93.674L90.3099 96.2211L92.5269 93.9187Z" fill="#3F3D56"/>
<path d="M88.2751 98.3343L90.4314 96.0949L88.1434 93.5479L85.9871 95.7872C85.6741 96.1141 85.4942 96.5609 85.4866 97.03C85.4791 97.4991 85.6444 97.9524 85.9467 98.2908C86.2507 98.6273 86.6663 98.8207 87.1025 98.8289C87.5388 98.837 87.9604 98.6592 88.2751 98.3343Z" fill="#AC3483"/>
<path opacity="0.2" d="M87.222 98.825C86.8284 98.7887 86.4602 98.6005 86.1855 98.2952C85.8833 97.9568 85.7179 97.5036 85.7254 97.0345C85.733 96.5654 85.913 96.1186 86.2259 95.7916L88.2607 93.6785L88.1434 93.5479L85.9871 95.7872C85.6741 96.1141 85.4942 96.5609 85.4866 97.03C85.4791 97.4991 85.6444 97.9524 85.9467 98.2908C86.111 98.4732 86.3101 98.6153 86.5302 98.7075C86.7502 98.7997 86.9862 98.8398 87.222 98.825Z" fill="black"/>
<path d="M88.786 107.883C88.4858 107.543 88.0724 107.344 87.6363 107.33C87.2001 107.316 86.7766 107.488 86.4582 107.809C86.1416 108.132 85.9567 108.576 85.9438 109.045C85.9309 109.514 86.0911 109.97 86.3895 110.312L88.5038 112.724L90.9003 110.295L88.786 107.883Z" fill="#3F3D56"/>
<path d="M92.8407 112.508L90.7844 110.162L88.3879 112.591L90.4442 114.937C90.7444 115.277 91.1578 115.476 91.5939 115.49C92.0301 115.504 92.4536 115.332 92.772 115.011C93.0886 114.688 93.2736 114.244 93.2864 113.775C93.2993 113.306 93.1391 112.85 92.8407 112.508Z" fill="#AC3483"/>
<path opacity="0.2" d="M93.2843 113.646C93.2457 114.069 93.0663 114.462 92.779 114.754C92.4606 115.075 92.0371 115.247 91.601 115.233C91.1648 115.22 90.7515 115.021 90.4513 114.68L88.5108 112.467L88.3879 112.591L90.4442 114.937C90.7444 115.277 91.1578 115.476 91.5939 115.49C92.0301 115.504 92.4536 115.332 92.772 115.011C92.9436 114.836 93.0782 114.624 93.1666 114.389C93.255 114.153 93.2951 113.9 93.2843 113.646Z" fill="black"/>
<path d="M77.1475 107.691C76.8473 107.35 76.4339 107.151 75.9978 107.137C75.5616 107.124 75.1381 107.296 74.8197 107.617C74.5031 107.939 74.3181 108.384 74.3053 108.853C74.2924 109.322 74.4526 109.777 74.751 110.12L76.8652 112.531L79.2617 110.102L77.1475 107.691Z" fill="#3F3D56"/>
<path d="M81.2022 112.315L79.1459 109.97L76.7494 112.399L78.8057 114.744C79.1059 115.085 79.5193 115.284 79.9554 115.298C80.3916 115.311 80.8151 115.139 81.1335 114.818C81.4501 114.496 81.6351 114.051 81.6479 113.582C81.6608 113.113 81.5006 112.658 81.2022 112.315Z" fill="#AC3483"/>
<path opacity="0.2" d="M81.6458 113.454C81.6072 113.876 81.4278 114.27 81.1405 114.562C80.8221 114.882 80.3986 115.055 79.9625 115.041C79.5263 115.027 79.113 114.828 78.8128 114.488L76.8723 112.274L76.7494 112.399L78.8057 114.744C79.1059 115.085 79.5193 115.284 79.9554 115.298C80.3916 115.312 80.8151 115.139 81.1335 114.818C81.3051 114.644 81.4397 114.432 81.5281 114.196C81.6165 113.961 81.6567 113.707 81.6458 113.454Z" fill="black"/>
<path d="M80.4235 101.339C80.4236 101.927 80.2346 102.498 79.8884 102.954C79.5422 103.41 79.0601 103.723 78.5237 103.841C78.2102 103.909 77.8872 103.909 77.5737 103.841C77.0374 103.723 76.5553 103.41 76.2092 102.954C75.863 102.498 75.6739 101.927 75.6739 101.338C75.6739 100.75 75.863 100.179 76.2092 99.7233C76.5553 99.2674 77.0374 98.9539 77.5737 98.8361C77.8872 98.768 78.2102 98.768 78.5237 98.8361C79.0601 98.9538 79.5422 99.2672 79.8884 99.7232C80.2346 100.179 80.4236 100.75 80.4235 101.339Z" fill="#AC3483"/>
<path opacity="0.2" d="M78.5237 98.8361V103.841C78.2102 103.909 77.8872 103.909 77.5738 103.841V98.8361C77.8872 98.768 78.2102 98.768 78.5237 98.8361Z" fill="black"/>
<path d="M81.4979 91.1348C81.498 91.7234 81.3089 92.294 80.9627 92.75C80.6165 93.2061 80.1344 93.5194 79.598 93.6372C79.2845 93.7053 78.9616 93.7053 78.6481 93.6372C78.1117 93.5193 77.6297 93.2059 77.2835 92.7499C76.9373 92.2939 76.7482 91.7234 76.7482 91.1348C76.7482 90.5461 76.9373 89.9756 77.2835 89.5196C77.6297 89.0636 78.1117 88.7502 78.6481 88.6324C78.9616 88.5643 79.2845 88.5643 79.598 88.6324C80.1344 88.7501 80.6165 89.0635 80.9627 89.5195C81.3089 89.9755 81.498 90.5461 81.4979 91.1348Z" fill="#AC3483"/>
<path opacity="0.2" d="M79.598 88.6324V93.6372C79.2845 93.7053 78.9615 93.7053 78.6481 93.6372V88.6324C78.9615 88.5643 79.2845 88.5643 79.598 88.6324Z" fill="black"/>
<path d="M81.4979 105.766C81.498 106.355 81.3089 106.926 80.9627 107.382C80.6165 107.838 80.1344 108.151 79.598 108.269C79.2845 108.337 78.9616 108.337 78.6481 108.269C78.1117 108.151 77.6297 107.838 77.2835 107.382C76.9373 106.926 76.7482 106.355 76.7482 105.766C76.7482 105.178 76.9373 104.607 77.2835 104.151C77.6297 103.695 78.1117 103.382 78.6481 103.264C78.9616 103.196 79.2845 103.196 79.598 103.264C80.1344 103.382 80.6165 103.695 80.9627 104.151C81.3089 104.607 81.498 105.178 81.4979 105.766Z" fill="#AC3483"/>
<path opacity="0.2" d="M79.598 103.264V108.269C79.2845 108.337 78.9615 108.337 78.6481 108.269V103.264C78.9615 103.196 79.2845 103.196 79.598 103.264Z" fill="black"/>
<path d="M87.4067 112.89C87.4068 113.479 87.2177 114.049 86.8715 114.505C86.5253 114.961 86.0432 115.275 85.5068 115.392C85.1933 115.46 84.8703 115.46 84.5569 115.392C84.0205 115.274 83.5385 114.961 83.1923 114.505C82.8461 114.049 82.657 113.479 82.657 112.89C82.657 112.301 82.8461 111.731 83.1923 111.275C83.5385 110.819 84.0205 110.505 84.5569 110.387C84.8703 110.319 85.1933 110.319 85.5068 110.387C86.0432 110.505 86.5253 110.819 86.8715 111.275C87.2177 111.731 87.4068 112.301 87.4067 112.89Z" fill="#AC3483"/>
<path opacity="0.2" d="M85.5068 110.387V115.392C85.1933 115.46 84.8703 115.46 84.5569 115.392V110.387C84.8703 110.319 85.1933 110.319 85.5068 110.387Z" fill="black"/>
<path d="M92.6264 99.7837C93.0206 100.192 93.2715 100.734 93.3366 101.319C93.4017 101.903 93.277 102.494 92.9836 102.991C92.8116 103.281 92.5875 103.531 92.3244 103.727C91.8732 104.06 91.3288 104.216 90.7832 104.167C90.2377 104.119 89.7244 103.869 89.3302 103.461C88.9361 103.052 88.6852 102.51 88.6201 101.925C88.555 101.341 88.6797 100.75 88.973 100.253C89.1449 99.9634 89.3691 99.7133 89.6322 99.5179C90.0833 99.1843 90.6277 99.0286 91.1734 99.077C91.719 99.1255 92.2323 99.3751 92.6264 99.7837Z" fill="#AC3483"/>
<path opacity="0.2" d="M89.6323 99.5179L92.9836 102.991C92.8117 103.281 92.5875 103.531 92.3244 103.727L88.973 100.253C89.145 99.9634 89.3691 99.7134 89.6323 99.5179Z" fill="black"/>
<path d="M93.3426 105.367C93.7369 105.775 93.9878 106.318 94.0529 106.902C94.118 107.487 93.9932 108.077 93.6998 108.574C93.5279 108.864 93.3037 109.114 93.0406 109.31C92.5895 109.643 92.0451 109.799 91.4995 109.75C90.9539 109.702 90.4406 109.452 90.0465 109.044C89.6523 108.635 89.4015 108.093 89.3364 107.509C89.2713 106.924 89.3959 106.334 89.6892 105.837C89.8612 105.547 90.0853 105.297 90.3485 105.101C90.7996 104.768 91.344 104.612 91.8896 104.66C92.4352 104.709 92.9485 104.958 93.3426 105.367Z" fill="#AC3483"/>
<path opacity="0.2" d="M90.3485 105.101L93.6998 108.574C93.5279 108.864 93.3037 109.114 93.0406 109.31L89.6892 105.836C89.8612 105.547 90.0853 105.297 90.3485 105.101Z" fill="black"/>
<path d="M72.0352 106.715C72.4294 107.123 72.6803 107.665 72.7454 108.25C72.8105 108.834 72.6858 109.425 72.3924 109.922C72.2204 110.212 71.9963 110.462 71.7331 110.657C71.282 110.991 70.7376 111.147 70.192 111.098C69.6464 111.05 69.1332 110.8 68.739 110.392C68.3449 109.983 68.094 109.441 68.0289 108.856C67.9638 108.272 68.0885 107.681 68.3818 107.184C68.5537 106.894 68.7779 106.644 69.041 106.449C69.4921 106.115 70.0365 105.959 70.5822 106.008C71.1278 106.056 71.6411 106.306 72.0352 106.715Z" fill="#AC3483"/>
<path opacity="0.2" d="M69.041 106.449L72.3924 109.922C72.2204 110.212 71.9963 110.462 71.7332 110.657L68.3818 107.184C68.5538 106.894 68.7779 106.644 69.041 106.449Z" fill="black"/>
<path opacity="0.2" d="M64.3699 60.8579H63.4747V67.9813H64.3699V60.8579Z" fill="black"/>
<path opacity="0.2" d="M69.5625 60.8579H68.6672V67.9813H69.5625V60.8579Z" fill="black"/>
<path opacity="0.2" d="M74.7551 60.8579H73.8598V67.9813H74.7551V60.8579Z" fill="black"/>
<path opacity="0.2" d="M79.9476 60.8579H79.0524V67.9813H79.9476V60.8579Z" fill="black"/>
<path opacity="0.2" d="M85.1402 60.8579H84.2449V67.9813H85.1402V60.8579Z" fill="black"/>
<path opacity="0.2" d="M90.3328 60.8579H89.4375V67.9813H90.3328V60.8579Z" fill="black"/>
<path opacity="0.2" d="M95.5253 60.8579H94.6301V67.9813H95.5253V60.8579Z" fill="black"/>
</g>
<defs>
<clipPath id="clip0_135_849">
<rect width="159" height="119" fill="white"/>
</clipPath>
</defs>
</svg>
