<svg width="23" height="23" viewBox="0 0 23 23" fill="none" xmlns="http://www.w3.org/2000/svg">
<path d="M22.5 6.78625V16.2138C22.5 19.375 21.0488 21.5462 18.495 22.3675C17.7525 22.6262 16.8975 22.75 15.9638 22.75H6.53625C5.6025 22.75 4.7475 22.6262 4.005 22.3675C1.45125 21.5462 0 19.375 0 16.2138V6.78625C0 2.69125 2.44125 0.25 6.53625 0.25H15.9638C20.0588 0.25 22.5 2.69125 22.5 6.78625Z" fill="#AC3483"/>
<path d="M18.4939 22.3664C17.7514 22.6251 16.8964 22.7489 15.9626 22.7489H6.53513C5.60138 22.7489 4.74638 22.6251 4.00388 22.3664C4.39763 19.3964 7.50263 17.0901 11.2489 17.0901C14.9951 17.0901 18.1001 19.3964 18.4939 22.3664ZM15.2798 11.0275C15.2798 13.255 13.4798 15.0663 11.2523 15.0663C9.02475 15.0663 7.22475 13.255 7.22475 11.0275C7.22475 8.8 9.02475 7 11.2523 7C13.4798 7 15.2798 8.8 15.2798 11.0275Z" fill="#2A2A2A"/>
</svg>
