<svg width="268" height="34" viewBox="0 0 268 34" fill="none" xmlns="http://www.w3.org/2000/svg">
<path d="M10.914 33L0.242 0.799998H6.452L15.974 29.918H12.892L22.782 0.799998H28.302L37.916 29.918H34.926L44.678 0.799998H50.382L39.71 33H33.362L24.576 6.734H26.232L17.308 33H10.914ZM69.9823 33.46C67.4676 33.46 65.1523 33.046 63.0363 32.218C60.9203 31.39 59.0803 30.24 57.5163 28.768C55.9523 27.2653 54.741 25.5173 53.8823 23.524C53.0236 21.5 52.5943 19.292 52.5943 16.9C52.5943 14.508 53.0236 12.3153 53.8823 10.322C54.741 8.298 55.9523 6.55 57.5163 5.078C59.0803 3.57533 60.9203 2.41 63.0363 1.582C65.1523 0.753998 67.4523 0.339998 69.9363 0.339998C72.451 0.339998 74.751 0.753998 76.8363 1.582C78.9523 2.41 80.7923 3.57533 82.3563 5.078C83.9203 6.55 85.1316 8.298 85.9903 10.322C86.849 12.3153 87.2783 14.508 87.2783 16.9C87.2783 19.292 86.849 21.5 85.9903 23.524C85.1316 25.548 83.9203 27.296 82.3563 28.768C80.7923 30.24 78.9523 31.39 76.8363 32.218C74.751 33.046 72.4663 33.46 69.9823 33.46ZM69.9363 28.216C71.5616 28.216 73.0643 27.94 74.4443 27.388C75.8243 26.836 77.0203 26.054 78.0323 25.042C79.0443 23.9993 79.8263 22.8033 80.3783 21.454C80.961 20.074 81.2523 18.556 81.2523 16.9C81.2523 15.244 80.961 13.7413 80.3783 12.392C79.8263 11.012 79.0443 9.816 78.0323 8.804C77.0203 7.76133 75.8243 6.964 74.4443 6.412C73.0643 5.86 71.5616 5.584 69.9363 5.584C68.311 5.584 66.8083 5.86 65.4283 6.412C64.079 6.964 62.883 7.76133 61.8403 8.804C60.8283 9.816 60.031 11.012 59.4483 12.392C58.8963 13.7413 58.6203 15.244 58.6203 16.9C58.6203 18.5253 58.8963 20.028 59.4483 21.408C60.031 22.788 60.8283 23.9993 61.8403 25.042C62.8523 26.054 64.0483 26.836 65.4283 27.388C66.8083 27.94 68.311 28.216 69.9363 28.216ZM93.617 33V0.799998H106.865C109.717 0.799998 112.155 1.26 114.179 2.18C116.234 3.1 117.813 4.41866 118.917 6.136C120.021 7.85333 120.573 9.89267 120.573 12.254C120.573 14.6153 120.021 16.6547 118.917 18.372C117.813 20.0587 116.234 21.362 114.179 22.282C112.155 23.1713 109.717 23.616 106.865 23.616H96.929L99.597 20.902V33H93.617ZM114.685 33L106.543 21.316H112.937L121.125 33H114.685ZM99.597 21.546L96.929 18.694H106.589C109.226 18.694 111.204 18.1267 112.523 16.992C113.872 15.8573 114.547 14.278 114.547 12.254C114.547 10.1993 113.872 8.62 112.523 7.516C111.204 6.412 109.226 5.86 106.589 5.86H96.929L99.597 2.916V21.546ZM132.599 25.41L132.277 18.326L149.159 0.799998H155.875L141.845 15.704L138.533 19.338L132.599 25.41ZM127.263 33V0.799998H133.243V33H127.263ZM149.711 33L137.383 18.326L141.339 13.956L156.703 33H149.711Z" fill="white" style="mix-blend-mode:color-dodge"/>
<path d="M10.914 33L9.96478 33.3146L10.1919 34H10.914V33ZM0.242 0.799998V-0.200002H-1.14292L-0.707224 1.1146L0.242 0.799998ZM6.452 0.799998L7.40247 0.489181L7.1771 -0.200002H6.452V0.799998ZM15.974 29.918V30.918H17.3531L16.9245 29.6072L15.974 29.918ZM12.892 29.918L11.9451 29.5964L11.4962 30.918H12.892V29.918ZM22.782 0.799998V-0.200002H22.0655L21.8351 0.47839L22.782 0.799998ZM28.302 0.799998L29.2516 0.486472L29.0249 -0.200002H28.302V0.799998ZM37.916 29.918V30.918H39.2993L38.8656 29.6045L37.916 29.918ZM34.926 29.918L33.9778 29.6004L33.5365 30.918H34.926V29.918ZM44.678 0.799998V-0.200002H43.9583L43.7298 0.482422L44.678 0.799998ZM50.382 0.799998L51.3312 1.1146L51.7669 -0.200002H50.382V0.799998ZM39.71 33V34H40.4321L40.6592 33.3146L39.71 33ZM33.362 33L32.4137 33.3172L32.642 34H33.362V33ZM24.576 6.734V5.734H23.187L23.6277 7.05122L24.576 6.734ZM26.232 6.734L27.1788 7.05569L27.6279 5.734H26.232V6.734ZM17.308 33V34H18.0244L18.2548 33.3217L17.308 33ZM11.8632 32.6854L1.19122 0.485398L-0.707224 1.1146L9.96478 33.3146L11.8632 32.6854ZM0.242 1.8H6.452V-0.200002H0.242V1.8ZM5.50153 1.11081L15.0235 30.2288L16.9245 29.6072L7.40247 0.489181L5.50153 1.11081ZM15.974 28.918H12.892V30.918H15.974V28.918ZM13.8389 30.2396L23.7289 1.12161L21.8351 0.47839L11.9451 29.5964L13.8389 30.2396ZM22.782 1.8H28.302V-0.200002H22.782V1.8ZM27.3524 1.11352L36.9664 30.2315L38.8656 29.6045L29.2516 0.486472L27.3524 1.11352ZM37.916 28.918H34.926V30.918H37.916V28.918ZM35.8742 30.2356L45.6262 1.11757L43.7298 0.482422L33.9778 29.6004L35.8742 30.2356ZM44.678 1.8H50.382V-0.200002H44.678V1.8ZM49.4328 0.485398L38.7608 32.6854L40.6592 33.3146L51.3312 1.1146L49.4328 0.485398ZM39.71 32H33.362V34H39.71V32ZM34.3104 32.6828L25.5244 6.41677L23.6277 7.05122L32.4137 33.3172L34.3104 32.6828ZM24.576 7.734H26.232V5.734H24.576V7.734ZM25.2852 6.4123L16.3612 32.6783L18.2548 33.3217L27.1788 7.05569L25.2852 6.4123ZM17.308 32H10.914V34H17.308V32ZM63.0363 32.218L63.4007 31.2868L63.4007 31.2868L63.0363 32.218ZM57.5163 28.768L56.8235 29.4891L56.8309 29.4962L57.5163 28.768ZM53.8823 23.524L52.9617 23.9146L52.9639 23.9196L53.8823 23.524ZM53.8823 10.322L54.8007 10.7176L54.8029 10.7125L53.8823 10.322ZM57.5163 5.078L58.2017 5.80624L58.2091 5.7991L57.5163 5.078ZM63.0363 1.582L63.4007 2.51324L63.4007 2.51324L63.0363 1.582ZM76.8363 1.582L76.4673 2.51143L76.4719 2.51324L76.8363 1.582ZM82.3563 5.078L81.6635 5.79914L81.6709 5.8062L82.3563 5.078ZM85.9903 10.322L85.0697 10.7126L85.0719 10.7176L85.9903 10.322ZM85.9903 23.524L85.0697 23.1334L85.0697 23.1334L85.9903 23.524ZM82.3563 28.768L81.6709 28.0398L81.6709 28.0398L82.3563 28.768ZM76.8363 32.218L76.4719 31.2867L76.4673 31.2886L76.8363 32.218ZM74.4443 27.388L74.8157 28.3165L74.8157 28.3165L74.4443 27.388ZM78.0323 25.042L78.7394 25.7491L78.7447 25.7438L78.7499 25.7385L78.0323 25.042ZM80.3783 21.454L79.457 21.065L79.4528 21.0754L80.3783 21.454ZM80.3783 12.392L79.4498 12.7634L79.4549 12.776L79.4603 12.7884L80.3783 12.392ZM78.0323 8.804L77.3147 9.50047L77.3199 9.50583L77.3252 9.51111L78.0323 8.804ZM74.4443 6.412L74.8157 5.48352L74.8157 5.48352L74.4443 6.412ZM65.4283 6.412L65.0569 5.48349L65.0497 5.48645L65.4283 6.412ZM61.8403 8.804L61.1332 8.09689L61.1332 8.09689L61.8403 8.804ZM59.4483 12.392L58.527 12.003L58.5228 12.0134L59.4483 12.392ZM59.4483 21.408L58.5198 21.7794L58.5234 21.7882L58.5271 21.797L59.4483 21.408ZM61.8403 25.042L61.1227 25.7385L61.1279 25.7438L61.1332 25.7491L61.8403 25.042ZM65.4283 27.388L65.7997 26.4595L65.7997 26.4595L65.4283 27.388ZM69.9823 32.46C67.579 32.46 65.3888 32.0647 63.4007 31.2868L62.6719 33.1492C64.9158 34.0273 67.3562 34.46 69.9823 34.46V32.46ZM63.4007 31.2868C61.3967 30.5026 59.6673 29.4192 58.2017 28.0398L56.8309 29.4962C58.4933 31.0608 60.4439 32.2774 62.6719 33.1492L63.4007 31.2868ZM58.2091 28.0469C56.7413 26.6367 55.6067 24.9994 54.8007 23.1284L52.9639 23.9196C53.8753 26.0353 55.1633 27.894 56.8235 29.4891L58.2091 28.0469ZM54.8029 23.1334C54.0011 21.2435 53.5943 19.1697 53.5943 16.9H51.5943C51.5943 19.4143 52.0462 21.7565 52.9617 23.9145L54.8029 23.1334ZM53.5943 16.9C53.5943 14.6301 54.0011 12.5738 54.8007 10.7176L52.9639 9.92637C52.0461 12.0569 51.5943 14.3859 51.5943 16.9H53.5943ZM54.8029 10.7125C55.6087 8.81309 56.7411 7.18089 58.2017 5.8062L56.8309 4.3498C55.1636 5.91911 53.8732 7.78291 52.9617 9.93145L54.8029 10.7125ZM58.2091 5.7991C59.674 4.39166 61.401 3.29574 63.4007 2.51324L62.6719 0.650756C60.4396 1.52426 58.4866 2.75901 56.8235 4.35689L58.2091 5.7991ZM63.4007 2.51324C65.3902 1.73474 67.5654 1.34 69.9363 1.34V-0.660002C67.3393 -0.660002 64.9144 -0.226743 62.6719 0.650756L63.4007 2.51324ZM69.9363 1.34C72.3398 1.34 74.5127 1.73535 76.4673 2.51142L77.2053 0.652582C74.9892 -0.227352 72.5621 -0.660002 69.9363 -0.660002V1.34ZM76.4719 2.51324C78.4716 3.29574 80.1986 4.39166 81.6635 5.7991L83.0491 4.35689C81.386 2.75901 79.433 1.52426 77.2007 0.650756L76.4719 2.51324ZM81.6709 5.8062C83.1316 7.18089 84.2639 8.81309 85.0697 10.7125L86.9109 9.93145C85.9994 7.78291 84.7091 5.91911 83.0417 4.3498L81.6709 5.8062ZM85.0719 10.7176C85.8715 12.5738 86.2783 14.6301 86.2783 16.9H88.2783C88.2783 14.3859 87.8265 12.0569 86.9087 9.92637L85.0719 10.7176ZM86.2783 16.9C86.2783 19.1697 85.8715 21.2435 85.0697 23.1334L86.9109 23.9145C87.8264 21.7565 88.2783 19.4143 88.2783 16.9H86.2783ZM85.0697 23.1334C84.2639 25.0329 83.1316 26.6651 81.6709 28.0398L83.0417 29.4962C84.7091 27.9269 85.9994 26.0631 86.9109 23.9145L85.0697 23.1334ZM81.6709 28.0398C80.2053 29.4192 78.4759 30.5026 76.4719 31.2868L77.2007 33.1492C79.4287 32.2774 81.3793 31.0608 83.0417 29.4962L81.6709 28.0398ZM76.4673 31.2886C74.5113 32.0652 72.3535 32.46 69.9823 32.46V34.46C72.5791 34.46 74.9906 34.0268 77.2053 33.1474L76.4673 31.2886ZM69.9363 29.216C71.6769 29.216 73.307 28.92 74.8157 28.3165L74.0729 26.4595C72.8216 26.96 71.4464 27.216 69.9363 27.216V29.216ZM74.8157 28.3165C76.3165 27.7162 77.628 26.8606 78.7394 25.7491L77.3252 24.3349C76.4127 25.2474 75.3321 25.9558 74.0729 26.4595L74.8157 28.3165ZM78.7499 25.7385C79.8512 24.6038 80.7036 23.2998 81.3039 21.8326L79.4528 21.0754C78.949 22.3068 78.2374 23.3949 77.3147 24.3455L78.7499 25.7385ZM81.2996 21.843C81.9394 20.3275 82.2523 18.6755 82.2523 16.9H80.2523C80.2523 18.4365 79.9825 19.8205 79.4571 21.065L81.2996 21.843ZM82.2523 16.9C82.2523 15.1249 81.9395 13.485 81.2964 11.9956L79.4603 12.7884C79.9824 13.9977 80.2523 15.3631 80.2523 16.9H82.2523ZM81.3068 12.0206C80.7065 10.5198 79.8509 9.20835 78.7394 8.09689L77.3252 9.51111C78.2377 10.4236 78.9462 11.5042 79.4498 12.7634L81.3068 12.0206ZM78.7499 8.10752C77.6378 6.96172 76.323 6.08646 74.8157 5.48352L74.0729 7.34048C75.3256 7.84154 76.4028 8.56094 77.3147 9.50047L78.7499 8.10752ZM74.8157 5.48352C73.307 4.88003 71.6769 4.584 69.9363 4.584V6.584C71.4464 6.584 72.8216 6.83997 74.0729 7.34048L74.8157 5.48352ZM69.9363 4.584C68.1957 4.584 66.5656 4.88003 65.0569 5.48352L65.7997 7.34048C67.051 6.83997 68.4263 6.584 69.9363 6.584V4.584ZM65.0497 5.48645C63.576 6.08932 62.2687 6.96143 61.1332 8.09689L62.5474 9.51111C63.4973 8.56124 64.582 7.83868 65.8069 7.33755L65.0497 5.48645ZM61.1332 8.09689C60.0257 9.20436 59.1575 10.5098 58.5271 12.003L60.3696 12.781C60.9044 11.5142 61.6309 10.4276 62.5474 9.51111L61.1332 8.09689ZM58.5228 12.0134C57.9154 13.4981 57.6203 15.1317 57.6203 16.9H59.6203C59.6203 15.3563 59.8773 13.9846 60.3739 12.7706L58.5228 12.0134ZM57.6203 16.9C57.6203 18.6406 57.9163 20.2707 58.5198 21.7794L60.3768 21.0366C59.8763 19.7853 59.6203 18.4101 59.6203 16.9H57.6203ZM58.5271 21.797C59.1564 23.2876 60.0217 24.6041 61.1227 25.7385L62.5579 24.3455C61.6349 23.3946 60.9055 22.2884 60.3696 21.019L58.5271 21.797ZM61.1332 25.7491C62.2447 26.8606 63.5561 27.7162 65.0569 28.3165L65.7997 26.4595C64.5405 25.9558 63.46 25.2474 62.5474 24.3349L61.1332 25.7491ZM65.0569 28.3165C66.5656 28.92 68.1957 29.216 69.9363 29.216V27.216C68.4263 27.216 67.051 26.96 65.7997 26.4595L65.0569 28.3165ZM93.617 33H92.617V34H93.617V33ZM93.617 0.799998V-0.200002H92.617V0.799998H93.617ZM114.179 2.18L113.765 3.09038L113.77 3.09268L114.179 2.18ZM118.917 6.136L119.758 5.59524L119.758 5.59524L118.917 6.136ZM118.917 18.372L119.754 18.9197L119.758 18.9128L118.917 18.372ZM114.179 22.282L114.581 23.1975L114.588 23.1947L114.179 22.282ZM96.929 23.616L96.2158 22.915L94.5436 24.616H96.929V23.616ZM99.597 20.902H100.597V18.4583L98.8838 20.201L99.597 20.902ZM99.597 33V34H100.597V33H99.597ZM114.685 33L113.865 33.5717L114.163 34H114.685V33ZM106.543 21.316V20.316H104.627L105.723 21.8877L106.543 21.316ZM112.937 21.316L113.756 20.7421L113.457 20.316H112.937V21.316ZM121.125 33V34H123.047L121.944 32.4261L121.125 33ZM99.597 21.546L98.8667 22.2292L100.597 24.0788V21.546H99.597ZM96.929 18.694V17.694H94.6241L96.1987 19.3772L96.929 18.694ZM112.523 16.992L111.879 16.2266L111.871 16.234L112.523 16.992ZM112.523 7.516L111.881 8.28281L111.89 8.28996L112.523 7.516ZM96.929 5.86L96.188 5.18848L94.6732 6.86H96.929V5.86ZM99.597 2.916H100.597V0.323389L98.856 2.24448L99.597 2.916ZM94.617 33V0.799998H92.617V33H94.617ZM93.617 1.8H106.865V-0.200002H93.617V1.8ZM106.865 1.8C109.613 1.8 111.902 2.24364 113.765 3.09037L114.593 1.26963C112.408 0.276356 109.821 -0.200002 106.865 -0.200002V1.8ZM113.77 3.09268C115.667 3.94179 117.087 5.13935 118.076 6.67676L119.758 5.59524C118.538 3.69798 116.801 2.2582 114.588 1.26731L113.77 3.09268ZM118.076 6.67675C119.061 8.20877 119.573 10.0537 119.573 12.254H121.573C121.573 9.73162 120.981 7.4979 119.758 5.59524L118.076 6.67675ZM119.573 12.254C119.573 14.4543 119.061 16.2992 118.076 17.8312L119.758 18.9128C120.981 17.0101 121.573 14.7764 121.573 12.254H119.573ZM118.08 17.8243C117.093 19.3326 115.671 20.5181 113.77 21.3693L114.588 23.1947C116.796 22.2059 118.533 20.7847 119.754 18.9197L118.08 17.8243ZM113.777 21.3665C111.911 22.1865 109.617 22.616 106.865 22.616V24.616C109.817 24.616 112.399 24.1562 114.581 23.1975L113.777 21.3665ZM106.865 22.616H96.929V24.616H106.865V22.616ZM97.6421 24.317L100.31 21.603L98.8838 20.201L96.2158 22.915L97.6421 24.317ZM98.597 20.902V33H100.597V20.902H98.597ZM99.597 32H93.617V34H99.597V32ZM115.505 32.4283L107.363 20.7443L105.723 21.8877L113.865 33.5717L115.505 32.4283ZM106.543 22.316H112.937V20.316H106.543V22.316ZM112.118 21.8899L120.306 33.5739L121.944 32.4261L113.756 20.7421L112.118 21.8899ZM121.125 32H114.685V34H121.125V32ZM100.327 20.8628L97.6592 18.0108L96.1987 19.3772L98.8667 22.2292L100.327 20.8628ZM96.929 19.694H106.589V17.694H96.929V19.694ZM106.589 19.694C109.347 19.694 111.602 19.104 113.175 17.75L111.871 16.234C110.807 17.1494 109.106 17.694 106.589 17.694V19.694ZM113.167 17.7574C114.777 16.4034 115.547 14.5244 115.547 12.254H113.547C113.547 14.0316 112.968 15.3113 111.879 16.2266L113.167 17.7574ZM115.547 12.254C115.547 9.959 114.78 8.07074 113.156 6.74204L111.89 8.28996C112.964 9.16926 113.547 10.4397 113.547 12.254H115.547ZM113.165 6.74924C111.592 5.43239 109.341 4.86 106.589 4.86V6.86C109.111 6.86 110.817 7.3916 111.881 8.28276L113.165 6.74924ZM106.589 4.86H96.929V6.86H106.589V4.86ZM97.67 6.53152L100.338 3.58752L98.856 2.24448L96.188 5.18848L97.67 6.53152ZM98.597 2.916V21.546H100.597V2.916H98.597ZM132.599 25.41L131.6 25.4554L131.705 27.756L133.315 26.1089L132.599 25.41ZM132.277 18.326L131.557 17.6322L131.259 17.9419L131.278 18.3714L132.277 18.326ZM149.159 0.799998V-0.200002H148.734L148.439 0.106247L149.159 0.799998ZM155.875 0.799998L156.604 1.48543L158.19 -0.200002H155.875V0.799998ZM141.845 15.704L141.117 15.0186L141.112 15.0244L141.106 15.0304L141.845 15.704ZM138.533 19.338L139.249 20.0369L139.261 20.0245L139.273 20.0116L138.533 19.338ZM127.263 33H126.263V34H127.263V33ZM127.263 0.799998V-0.200002H126.263V0.799998H127.263ZM133.243 0.799998H134.243V-0.200002H133.243V0.799998ZM133.243 33V34H134.243V33H133.243ZM149.711 33L148.946 33.6432L149.246 34H149.711V33ZM137.383 18.326L136.642 17.6549L136.057 18.3015L136.618 18.9692L137.383 18.326ZM141.339 13.956L142.118 13.3281L141.383 12.4176L140.598 13.2849L141.339 13.956ZM156.703 33V34H158.795L157.482 32.3721L156.703 33ZM133.598 25.3646L133.276 18.2806L131.278 18.3714L131.6 25.4554L133.598 25.3646ZM132.998 19.0198L149.88 1.49375L148.439 0.106247L131.557 17.6322L132.998 19.0198ZM149.159 1.8H155.875V-0.200002H149.159V1.8ZM155.147 0.114563L141.117 15.0186L142.574 16.3894L156.604 1.48543L155.147 0.114563ZM141.106 15.0304L137.794 18.6644L139.273 20.0116L142.585 16.3776L141.106 15.0304ZM137.818 18.6391L131.884 24.7111L133.315 26.1089L139.249 20.0369L137.818 18.6391ZM128.263 33V0.799998H126.263V33H128.263ZM127.263 1.8H133.243V-0.200002H127.263V1.8ZM132.243 0.799998V33H134.243V0.799998H132.243ZM133.243 32H127.263V34H133.243V32ZM150.477 32.3568L138.149 17.6828L136.618 18.9692L148.946 33.6432L150.477 32.3568ZM138.125 18.9971L142.081 14.6271L140.598 13.2849L136.642 17.6549L138.125 18.9971ZM140.561 14.5839L155.925 33.6279L157.482 32.3721L142.118 13.3281L140.561 14.5839ZM156.703 32H149.711V34H156.703V32ZM160.775 33H159.775V34H160.775V33ZM160.775 0.799998V-0.200002H159.775V0.799998H160.775ZM165.697 0.799998L166.555 0.286243L166.264 -0.200002H165.697V0.799998ZM179.773 24.306V25.306H181.538L180.631 23.7922L179.773 24.306ZM177.197 24.306L176.336 23.7985L175.448 25.306H177.197V24.306ZM191.043 0.799998V-0.200002H190.472L190.182 0.292462L191.043 0.799998ZM195.965 0.799998L196.965 0.798569L196.964 -0.200002H195.965V0.799998ZM196.011 33V34H197.013L197.011 32.9986L196.011 33ZM190.353 33L189.353 33.002L189.355 34H190.353V33ZM190.307 9.678V8.678H189.305L189.307 9.67997L190.307 9.678ZM191.503 9.678L192.361 10.1922L193.269 8.678H191.503V9.678ZM179.727 29.32V30.32H180.294L180.585 29.8342L179.727 29.32ZM177.059 29.32L176.205 29.8401L176.497 30.32H177.059V29.32ZM165.099 9.678V8.678H163.319L164.245 10.1981L165.099 9.678ZM166.479 9.678H167.479V8.678H166.479V9.678ZM166.479 33V34H167.479V33H166.479ZM161.775 33V0.799998H159.775V33H161.775ZM160.775 1.8H165.697V-0.200002H160.775V1.8ZM164.839 1.31375L178.915 24.8198L180.631 23.7922L166.555 0.286243L164.839 1.31375ZM179.773 23.306H177.197V25.306H179.773V23.306ZM178.059 24.8135L191.905 1.30753L190.182 0.292462L176.336 23.7985L178.059 24.8135ZM191.043 1.8H195.965V-0.200002H191.043V1.8ZM194.965 0.801426L195.011 33.0014L197.011 32.9986L196.965 0.798569L194.965 0.801426ZM196.011 32H190.353V34H196.011V32ZM191.353 32.998L191.307 9.67603L189.307 9.67997L189.353 33.002L191.353 32.998ZM190.307 10.678H191.503V8.678H190.307V10.678ZM190.646 9.1638L178.87 28.8058L180.585 29.8342L192.361 10.1922L190.646 9.1638ZM179.727 28.32H177.059V30.32H179.727V28.32ZM177.913 28.7999L165.953 9.15792L164.245 10.1981L176.205 29.8401L177.913 28.7999ZM165.099 10.678H166.479V8.678H165.099V10.678ZM165.479 9.678V33H167.479V9.678H165.479ZM166.479 32H160.775V34H166.479V32ZM210.229 14.186V13.186H209.229V14.186H210.229ZM226.237 14.186H227.237V13.186H226.237V14.186ZM226.237 19.108V20.108H227.237V19.108H226.237ZM210.229 19.108H209.229V20.108H210.229V19.108ZM210.689 27.986H209.689V28.986H210.689V27.986ZM228.859 27.986H229.859V26.986H228.859V27.986ZM228.859 33V34H229.859V33H228.859ZM204.709 33H203.709V34H204.709V33ZM204.709 0.799998V-0.200002H203.709V0.799998H204.709ZM228.215 0.799998H229.215V-0.200002H228.215V0.799998ZM228.215 5.814V6.814H229.215V5.814H228.215ZM210.689 5.814V4.814H209.689V5.814H210.689ZM210.229 15.186H226.237V13.186H210.229V15.186ZM225.237 14.186V19.108H227.237V14.186H225.237ZM226.237 18.108H210.229V20.108H226.237V18.108ZM211.229 19.108V14.186H209.229V19.108H211.229ZM210.689 28.986H228.859V26.986H210.689V28.986ZM227.859 27.986V33H229.859V27.986H227.859ZM228.859 32H204.709V34H228.859V32ZM205.709 33V0.799998H203.709V33H205.709ZM204.709 1.8H228.215V-0.200002H204.709V1.8ZM227.215 0.799998V5.814H229.215V0.799998H227.215ZM228.215 4.814H210.689V6.814H228.215V4.814ZM209.689 5.814V27.986H211.689V5.814H209.689ZM235.525 33H234.525V34H235.525V33ZM235.525 0.799998V-0.200002H234.525V0.799998H235.525ZM258.801 2.824L258.346 3.71425L258.346 3.71425L258.801 2.824ZM264.965 8.436L264.114 8.9601L264.114 8.9601L264.965 8.436ZM264.965 25.364L265.817 25.8881L265.82 25.8833L264.965 25.364ZM241.505 27.94H240.505V28.94H241.505V27.94ZM255.581 26.56L255.122 25.6718L255.115 25.6751L255.581 26.56ZM259.675 22.696L258.815 22.1861L258.808 22.1981L259.675 22.696ZM259.675 11.104L258.808 11.6019L258.813 11.6114L258.819 11.6209L259.675 11.104ZM255.581 7.24L255.115 8.12494L255.122 8.12822L255.581 7.24ZM241.505 5.86V4.86H240.505V5.86H241.505ZM236.525 33V0.799998H234.525V33H236.525ZM235.525 1.8H249.601V-0.200002H235.525V1.8ZM249.601 1.8C252.967 1.8 255.873 2.44897 258.346 3.71425L259.257 1.93375C256.455 0.500362 253.227 -0.200002 249.601 -0.200002V1.8ZM258.346 3.71425C260.829 4.9849 262.743 6.73282 264.114 8.9601L265.817 7.9119C264.243 5.35517 262.048 3.36176 259.257 1.93375L258.346 3.71425ZM264.114 8.9601C265.474 11.171 266.173 13.8047 266.173 16.9H268.173C268.173 13.4939 267.4 10.485 265.817 7.9119L264.114 8.9601ZM266.173 16.9C266.173 19.9623 265.475 22.599 264.111 24.8447L265.82 25.8833C267.399 23.2837 268.173 20.2777 268.173 16.9H266.173ZM264.114 24.8399C262.743 27.0672 260.829 28.8151 258.346 30.0858L259.257 31.8662C262.048 30.4382 264.243 28.4448 265.817 25.8881L264.114 24.8399ZM258.346 30.0858C255.873 31.351 252.967 32 249.601 32V34C253.227 34 256.455 33.2996 259.257 31.8662L258.346 30.0858ZM249.601 32H235.525V34H249.601V32ZM241.505 28.94H249.325V26.94H241.505V28.94ZM249.325 28.94C251.874 28.94 254.126 28.4558 256.047 27.4449L255.115 25.6751C253.54 26.5042 251.622 26.94 249.325 26.94V28.94ZM256.041 27.4482C257.981 26.4445 259.491 25.0248 260.542 23.1939L258.808 22.1981C257.958 23.6792 256.739 24.8355 255.122 25.6718L256.041 27.4482ZM260.535 23.2058C261.621 21.3739 262.147 19.2606 262.147 16.9H260.147C260.147 18.9554 259.692 20.7061 258.815 22.1862L260.535 23.2058ZM262.147 16.9C262.147 14.5121 261.622 12.3944 260.531 10.5871L258.819 11.6209C259.691 13.0642 260.147 14.8105 260.147 16.9H262.147ZM260.542 10.6061C259.491 8.77521 257.981 7.35551 256.041 6.35178L255.122 8.12822C256.739 8.96449 257.958 10.1208 258.808 11.6019L260.542 10.6061ZM256.047 6.35508C254.126 5.34424 251.874 4.86 249.325 4.86V6.86C251.622 6.86 253.54 7.29576 255.115 8.12492L256.047 6.35508ZM249.325 4.86H241.505V6.86H249.325V4.86ZM240.505 5.86V27.94H242.505V5.86H240.505Z" fill="white"/>
</svg>
